<?xml version="1.0" encoding="utf-8"?>
<!-- Generator: Adobe Illustrator 19.0.0, SVG Export Plug-In . SVG Version: 6.00 Build 0)  -->
<svg version="1.1" xmlns="http://www.w3.org/2000/svg" xmlns:xlink="http://www.w3.org/1999/xlink" x="0px" y="0px"
	 viewBox="144 -54 900 900" style="enable-background:new 144 -54 900 900;" xml:space="preserve">
<style type="text/css">
	.st0{display:none;}
	.st1{display:inline;}
	.st2{fill:none;stroke:#666766;stroke-width:2;stroke-miterlimit:10;}
	.st3{fill:#EAEAEA;stroke:#EAEAEA;stroke-width:0.5;stroke-miterlimit:10;}
	.st4{fill:#D7D7D6;stroke:#D7D7D6;stroke-width:0.5;stroke-miterlimit:10;}
	.st5{fill:#C1C0C0;stroke:#C1C0C0;stroke-width:0.5;stroke-miterlimit:10;}
	.st6{fill:#969695;stroke:#969695;stroke-width:0.5;stroke-miterlimit:10;}
	.st7{fill:#969695;}
	.st8{fill:none;stroke:#000000;stroke-miterlimit:10;}
	.st9{stroke:#000000;stroke-miterlimit:10;}
	.st10{fill:#CECECE;stroke:#000000;stroke-miterlimit:10;}
	.st11{fill:none;stroke:#D7D7D6;stroke-width:0.5;stroke-miterlimit:10;}
	.st12{fill:#444444;stroke:#000000;stroke-width:0.5;stroke-miterlimit:10;}
	.st13{fill:#FFFFFF;stroke:#F9F9F9;stroke-width:0.5;stroke-miterlimit:10;}
	.st14{fill:#444444;stroke:#444444;stroke-width:0.5;stroke-miterlimit:10;}
	.st15{fill:#FFFFFF;stroke:#FFFFFF;stroke-miterlimit:10;}
	.st16{fill:#848484;stroke:#848484;stroke-width:0.5;stroke-miterlimit:10;}
</style>
<g id="Layer_33">
	<g id="Layer_28" class="st0">
		<g id="original" class="st1">
		</g>
	</g>
</g>
<g id="Layer_32">
	<g id="Layer_27" class="st0">
		<g id="background-shade_2_" class="st1">
			<g id="eVKz2L_1_">
			</g>
		</g>
	</g>
</g>
<g id="houtline">
	<path class="st2" d="M624.2,486.9c15.3-8.4,29.2-21.1,41.6-37.5c33.6-44.6,47.1-96.5,60.7-149.9c11.8-46.3,12-98.2-8.2-143.3
		c-8.2-18.3-20.6-33.8-35.8-47.7c-24.1-22.1-57.1-32.6-89.3-33.9C569.6,73.7,533,77,511,86c-23.8,9.7-42.7,27.3-55.3,49.5
		c-9.9,17.5-21,46-22.7,66c-1.4,17-3.4,36.6-2.7,53.9c2.3,59.9,15.5,126.1,53.3,174.4c16.4,21.1,28.1,54.7,55.3,63.2
		C571,503.1,599.5,500.5,624.2,486.9z"/>
</g>
<g id="neck">
	<path class="st2" d="M463.2,397.9c2.3,3,2.9,8.6,3,12.3c0.2,5.2,1.3,10.1,1.9,15.3c1.4,12.5,0.2,25.1,1.7,37.5
		c2.7,23.3,10.6,45.8,19,67.5c7.6,19.5,26.3,31,37.3,49.2c9.9,16.4,22.3,29.1,34.7,44.4c16.8,20.8,25.5,29,44,6
		c11.9-14.9,25.1-30,33.6-47.1c9-18.1,13.9-36.6,18.9-55.6c5.4-20.8,14.7-39.5,15-62.6c0.1-8.5-2.5-19.5,2.4-26.9"/>
</g>
<g id="shoulderL">
	<path class="st2" d="M187.3,638c6.2-19.6,25.5-33,42.2-39.9c19.5-8.1,32.9-25.7,50.7-37.3c18.8-12.3,40.1-19.3,59-32
		c17-11.4,31-25.4,49.6-34c27.9-12.8,47.9-47.6,80.7-49.5"/>
</g>
<g id="shoulderR">
	<path class="st2" d="M671.3,446.9c1,4,9.7,4.5,13.2,5.9c5.4,2.2,10.4,5.2,15.3,8.3c9.7,6.2,18.7,13.5,28.9,19
		c19.3,10.3,41.1,11.8,60.4,21.7c39.1,20.1,79.9,31.1,116,57.1c15.4,11.1,32.6,29.7,42.2,46.2c12.9,22.1,13.7,45.9,31,67.2"/>
</g>
<g id="grid-vert">
	<line class="st2" x1="593.2" y1="74.7" x2="575.4" y2="499.2"/>
</g>
<g id="grid-horiz-eye-top">
	<path class="st2" d="M470.4,243.5c12.3,5.6,37.4,1.3,52.5,1.5c19.4,0.2,38.7,1.5,58.5,1.5c39.9,0,82.5-2.3,120,7.5"/>
</g>
<g id="grid-horiz-eye-bot">
	<path class="st2" d="M488.4,267.5c-0.8,0.9-3.8-1.1-1.7,1.2c31.4,3.7,64.3,4.9,97.7,4.8c34.9,0,70.1,6.5,105,3"/>
</g>
<g id="grid-nose-hr">
	<line class="st2" x1="543.8" y1="351.9" x2="617.8" y2="351.9"/>
</g>
<g id="grid-mouth-hr">
	<path class="st2" d="M524.4,401c33.8-3.4,69.3,3,105,3"/>
</g>
<g id="greyBase">
	<path class="st3" d="M635.5,643.5c6.5-12.9,6.7-28.3,10-42.7c5-22.1,10.6-43,20-63.5c7.5-16.2,14.9-33.6,17.9-51
		c1.8-10.3,1.5-20.7,4.1-30.7c5.8-22.9,15.3-41.7,16-65.8c0.7-23.7,10.7-43.8,13.8-67c5.4-40-7.1-74.8-15-112.2
		c-3.9-18.6-8.6-39.2-18.7-56c-8.3-13.8-15.4-33.9-26-46c-15.1-17.3-36.5-16.3-54.8-8c-16.6,7.5-34,15.4-47.5,28
		c-10.5,9.8-18.9,22.4-28.9,33c-18.9,20-32.2,45.7-53.7,63c-8,6.5-17.6,11.6-24,20c-6.3,8.2-9.7,18.6-15.7,27
		c-34.8,49.1,23.9,112.9,18.7,166.8c-0.8,8-2.7,14.6-3,23.1c-0.4,12,4,20.9,6.8,32.1c5.9,23.9,12.2,45.7,24.2,67.2
		c8.7,15.7,21.6,31.3,32.3,45.5c12.8,16.9,23.9,27.5,42.8,37.5c14.5,7.7,27.7,10.3,43.9,12c9,0.9,36.6-4.9,40-14.2"/>
</g>
<g id="greys0">
	<path class="st4" d="M701,283.5c-4.2-0.8-9,0.9-13-0.5c-3.6-1.2-6.5-3.3-10.1-4.4c-8.4-2.7-16.2-2.6-25.4-2.6c-8.1,0-21,1-27.5,6.1
		c-4.2,3.3-2.9,8.8-5.5,13.3c-2.6,4.5-6.5,7.1-8.5,12.1c-2.3,5.7,0.9,6.2,1.4,11.5c0.4,4.1-1.3,8.6-0.9,13c0.4,4.5,1.7,7.1,0.2,11.5
		c-1.2,3.6-4.1,6.6-6.7,9.5c-7.8,8.3-12.2,4.1-21.4,3.5c-5-0.3-9,0.5-13.6,1.9c-3.1,0.9-5.6,1.9-8.9,1.6c-3.1-0.2-3-1.1-4.6-1.9
		c-7.4-3.4-9.6-7.9-14.5-14c-0.4-0.5-0.5-0.8-0.9-1.1l-1,0.5c6-7.2-0.7-14.8-4-21.5c-3.2-6.5-6.7-10.8-11.4-16.6
		c-4-4.9-8-11.5-13.1-15.3c-7.8-5.8-15.7-1.4-21.9,3.5c-6.1,4.8-10.5,11.5-17.1,16c-5.2,3.5-12.3,6.5-15.9,12
		c-3.6,5.6-3.3,17.2,0.5,22.3c3,4.1,8.4,4.5,11.3,8.6c2.3,3.5,3.8,7.8,6,11.4c4.6,7.5,7.7,17.4,9.1,26c1.4,8.4-1.4,16.3-1.5,24.5
		c-0.1,4,1.3,6.2,3.6,10.5c2.4,4.4,3.7,7.3,4.8,12c1.2,5,3.7,6.5,6.5,10.6c2.2,3.3,2.5,7.2,4.5,10.5c4.9,7.8,14.3,13.4,21,19
		c6.2,5.2,12.6,14.4,21.5,13.8c4.6-6.4-8.3-10.5-11.5-13.3c-2.7-2.3-3.9-4.7-6.9-6.7c-2-1.3-8.6-6-1.6-6.6c0.4-2.3,2-4.4,1.1-6.6
		c-0.4-0.9-2.5,0-3.2-0.7c-0.6-0.7-1.1-1.9-1.7-2.7c-2.7-3.9-3.3-7.9-1.1-11.2c-0.4-0.6-0.8-1.3-1.2-1.9c-0.2-0.3-0.4-0.6-0.6-0.9
		c-0.5-0.8-0.1-0.2,0.2,0.2c-1.4-1.8-2.2-3.4-2.3-5.6c-0.1-1.2,0.3-2.4,0.9-3.5c-1.3-1.4-2.6-2.8-3.8-4.2c-3.1-3.7-7-8.2-7.8-13.1
		c-0.4-2.8,0.1-5.6,1.9-7.5c-2.5-1.3-5.1-1.6-3.1-5c1.3-2.1,5.4-2.6,7-5c2.4-3.6,1.5-3.1-0.8-6c-2-2.5-3.9-4.6-5.4-7.6
		c-0.2-0.4-0.4-0.7-0.5-1c-2.5-0.8-4.7-2.7-5.1-5.4c-0.4-2.1-0.2-1.4-1.2-3c-1.1-1.7-2.2-3.3-3.4-5c-2.4-3.3-4.9-6.5-6.8-10.1
		c-4.1-7.2-5.5-15.6-0.7-22.3c-0.8-0.6-1.5-1.4-2.1-2.3c-2.2-3.3-1-9.2,2.9-10.9c4.4-2,9.1-2.3,13.7-1.6c0.7,0,1.3,0.1,1.8,0.3
		c0.7,0.1,1.4,0.3,2.1,0.5c0.2,0,0.3,0.1,0.4,0.1c1.1-0.1,3.3-0.4,4-0.4c4.1,0.3,5.8,2.7,9.8,3.5c0.5,3.3,3.6,5.6,5.1,8.4
		c2.1,4.2,1.4,6.3,7.4,6.1c-0.1,2.5,0.2,5.2,1,7.4c0.4,1,0.7,2.2,1.2,3.4c0.4,1,2.3,1.5,2.4,3.1c0.2,2.4-2.9,3.7-3.9,5.6
		c-1.3,2.5-1.2,4.4-0.7,7.3c-2,0.2-3.3,1.7-1.9,3.6c1.1,1.5,3.6,0.7,5.1,1.4c2.1,0.9,9.6,2.9,10.4,4.6c0.6,1.2-0.7,3.8-1.1,4.9
		c-0.2,0.7-1.6,0.8-1.8,1.2c-0.4,0.8-0.1,2.7-0.2,2.9c-2,3.6-5.6,4.1-7.4,7.4c0.3,0.3,0.7,0.2,0.9,0.5c-1.7,0.8-2.3,1.5-2,3.5
		c-0.9,0.4-1.7,1.2-2.4,1.5c4.4,0.8,10.7-1.2,15-2.2c5-1.2,9.8-0.7,15-2.1c2.9-0.8,4.9-2.7,7.6-2.7c1.5,0,5.1,1.7,6.9,2.2
		c4.9,1.3,11.8,2.7,16.4,5.4c0.5-1,1.4-1.2,1.7-2.3c4.1,0.6,15.6-2.7,17-1.2c6.5,1,12.7,0.5,19.1,1.9c1.2,0.3,2.8,0.7,4.5,1.1
		c-0.7-1.2-1.1-2.6-1.1-3.9V394c0-0.5,0-0.9,0.1-1.3c-2.1-1.3-4.1-2.9-5.8-4.5c-1.4-1.4-2.1-2.9-2.3-4.4c-2.1-0.2-4,0-4.9,0.7
		c-0.3-5.7-0.6-7.8,2-12.3c2.5-4.3,2.8-7.2,7.8-8.2c0.4-0.8,2-2.5,2.2-3.3c0.4-1.3-1-3.2-0.8-4.5c0.4-2.7,3.3-4.5,4.3-7.6
		c1.5-4.6-1.2-6.1-2.3-9.9c-1-3.7,1.3-6.1-2.8-8.1c2.1-2.3,4.1-4.8,2.1-8c0.7,0,2.6,0.4,3.2,0.6c-0.4,6.1,6.9,8.3,11.6,6.6
		c5.7-2.1,7.5-7.5,13.4-6.6c-0.1,0.7,0.2,1.7,0.2,2.3c3.8-0.8,4.3,2.6,1.6,4.6c3.4-0.3,8.6-0.5,11.3-2.9c2,1.2,5.3,0.8,4.4,4.2
		c-1.1,0.4-1.2,1.1-2,1.6c1.8,3.5,1.7,9.3-1.9,12.1c-0.8,5.6-9,12.2-1.1,17c-3.4,5.3-3.7,11.5-6,17.3c-1.2,2.9-2.9,5-4.9,6.8
		c-0.6,1.6-1.2,3.3-1.8,5.1c-0.1,0.4-0.2,0.9-0.4,1.2c-0.4,1.2-0.8,2.5-1.2,3.6c-1.1,3.4-4.1,5.8-7.5,5.8c-1.5,2.2-4.2,3.5-6.8,3.5
		c-2.4,4-5.4,11.6-3.3,14.6c-3,4.3-11.3,4.5-13.9,0c3.1-0.3,6.2-3.7,5.2-6.9c-4.7,0.2-10.8,4.5-15.9,5.5c-6.9,1.3-13.4-0.2-20.1,0.4
		c-3.3,0.3-5.6,1.8-9.4,1.4c-3-0.3-5.6-0.6-8.6-0.9c-3.3-0.3-4.9-1.6-8-2.5c-9.9-2.8-16.8-5.1-27.5-4c-7.3,0.7-13.1-1.8-20.4-1.4
		c0.2,1.8,0.8,2.8,1.4,4.5c0.3,0.9,0.7,1.7,1,2.4c1.4,1.6,2.9,3.1,4.3,4.7c2.5,1.7,5.5,2.7,8.7,5c5.4,3.9,10.5,10.7,17.5,11.8
		c7.2,1.1,14.7-1.7,22-0.2c4.6,0.9,9.5,0.9,14,1.8c4.1,0.8,6.6,4.3,11,3.7c3.7-0.5,7.2-4.2,10-6.3c7.4-5.7,16.8-9.1,22.9-0.5
		c-2.6,1.7-4.4,3.8-6.5,5.5c-2.8,2.3-4.4,1.8-7.4,3.1c-2.8,1.2-4.5,3.7-6,6c-0.8,1.4-0.3,2.5-1.5,4c-1.3,1.6-3,1-4,2.5
		c0.4,0.6,0.7,1.2,1,1.9c2.7,2.1,3.2,5.5,2.5,9.1c-0.3,1.4-1.4,4.3-2.1,5.5c-1.8,2.9-2.6,2.4-4.9,4.5c-3.3,3.1-3.5,6.4-6.9,9.1
		c-2.9,2.4-6.9,4.6-10.6,4.9c-7.7,0.6-16.6-1.4-23.4-4.6c-3.2-1.5-5.2-4.7-8.6-5.4c-3.6-0.7-7.6,1-6.9,4.4
		c1.5,7.2,14.5,9.5,20.3,10.1c7.5,0.8,18.7-0.7,26-3.1c17.6-5.8,31.8-17.6,41.1-33.4c4-6.8,6.8-12.5,12.5-17.9c5.4-5.1,9.6-10,12-17
		c2.8-8.1,7.2-16.6,8.9-25.2c3-15,8.3-27.7,14.4-41.8c5.3-12.3,5.6-25.8,12.2-37.6c3.4-6,9.6-13.1,10.9-20
		C710.4,295.8,708.4,285,701,283.5z"/>
	<path class="st4" d="M712.1,238.5c-1.8-8.4-2.8-17-6.1-25c-4.4-10.8-7.4-22.6-12.4-33c-4-8.5-10.7-15.3-15-23.5
		c-6.7-12.6-11.8-30.9-27.6-35c-5.4-1.4-11.3-3.2-17-3.5c-7.9-0.5-14.7,2.4-22,5c-14,5-24.7,10.8-36.7,19.5
		c-15.2,11-30.4,26.5-36.9,44c-2.3,6.2-7.1,14.7-4.9,20.9c2.4,6.6,9,9.9,12.5,16c3.4,6,7,12.8,9.4,19.6c3,8.5,0.9,16,0.5,24.5
		c-0.4,8.7,4.1,18.2,0.4,27c-3.5,8.3-7.3,14.4-9,23.4c-0.7,3.5-1.1,7.2-0.5,11c0.7,3.9,3.4,6.9,6.2,10.5c2.6,3.3,5.4,6.2,8.9,7.6
		c2.8,1.1,8.8,2.1,9.4-1.9c-0.9-0.5-1.8-0.7-2.9-0.6l2-0.5c-5.3-2.7-10-3.9-8.3-9.1c-0.7-0.3-1.3-0.8-1.8-1.3
		c-3.3-3.1-2.7-8.1,0-11.3c-2.1,2.5-0.9,1.2-0.5,0.2c0.3-0.7,0.6-1.3,0.9-2c0.7-1.8,0.4-1,0.1-0.3c0.1-0.1,0.1-0.3,0.2-0.4
		c0.2-0.6,0.5-1.3,0.7-1.9c0.4-1.5,1.2-2.7,2.2-3.6c-0.4-0.5-0.8-1.1-1-1.8c3.5-2.9,4.5-5,5.1-9.5c0.3-2.7,1.8-7.8,1.5-10.5
		c-0.5-5.3-2-4.4,0.5-9.5c1.4-2.9,2.4-6.8,3.1-9.6c1.8-6.9,2.2-13.6,4.9-20.3c0.2-0.4,0.4-0.8,0.6-1.3c-0.4-0.2-0.7-0.3-1-0.5
		c-2.2-1.2-3.7-3.3-4.4-5.6c-0.4-1.3-0.4-2.6-0.2-3.8c-0.4,0.2-0.8,0.4-0.9,0.5c-2.1-3.8-0.2-6.1-0.5-9.4c-0.6-5.1-3.7-5.6-0.6-11
		c0.7-1.2,2.4-2.5,2.7-3.9c0.5-1.9-1.2-4.2-0.6-6.1c0.5-1.8,2.6-2,3.7-3.9c1-1.8,1-4.1,1.5-6.1c1-4,0.7-8.1,4.4-10.5
		c3.3-2.2,6.2-2.7,9-5.5c2.3-2.3,5.2-5.4,8-6.9c2.2-1.2,4.9-1.3,7-3.2c0,0,0,0,0,0c-0.3-1.7,0-3.4,1.1-4.8
		c3.3-4.4,7.5-6.8,11.6-10.3c3.5-2.9,3.8-8.1,6.4-11.7c2.5-3.5,6.9-5.2,10.9-2.9c2.5,1.5,4.2,4.7,4,7.7c2.9,2.5,5.1,5.9,6.7,9.6
		c1.4,3.1,2.4,6.4,3.8,9.5c0.2,0.5,1,1.9,1.5,2.7c0.2,0.3,1,0.7-0.3,0.2c4,1.6,6.8,5.3,5.6,9.8c-0.2,0.9-0.7,1.7-1.2,2.4
		c0.4,0.2,0.7,0.3,1,0.5c2.9,1.4,3.4,2.3,5.6,3.9c1.8,1.3,4.8,1.9,6.8,3.2c1.9,1.3,2.8,3.2,5,4c-2,8.1-6.3,9.2-14.4,8.9
		c-3.8-0.1-6.7,1.1-9.9,1.6c-3.2,0.6-6.8-0.1-10.6-0.2c-0.1-0.4,0.5-0.4,0.4-0.8c-4.9-0.3-8.7,0.8-13,2.9c-4.9,2.5-5,4.9-7.9,9
		c-2.4,3.5-7.1,5.3-9.1,9c-1.5,2.7-2.8,9.4-2.9,12.5c1.3-2.7,3.8-3.3,6.4-3c1.2,0.1,2.6,2,3.6,1.9c1.7-0.1,3.3-1.8,4.9-2.4
		c5.4-1.9,12.8-3.9,18.5-3c6.2,0.9,12,1.5,18.5,1.5c5.8,0,19.1,0.8,21.6,6.9c3.5,0,8.8-2.1,10.3,1.7c1.6,4.1-4.1,5.9-7.4,6.8
		c-7.5,1.9-16.4,1-24,0.1c-8.3-1-16.5-5-25.5-4c-3.9,0.4-7.1,2.1-11,3c-3.8,0.8-8.1,1.2-11.5,2.5c-10.3,4-8.6,10.9-9.5,20
		c-0.4,3.8-2.2,7.2-2.5,12c-0.2,5,0.7,9.8,0.4,14.9c-0.6,0.3-2.3,0.6-2.8,0.5c-0.5-5.3,2.5-9.6,1.3-15.3c-0.9-4.3,0.3-9.6-1.5-14
		c-0.8-0.3-2.5-0.3-3.3,0c-0.9,3.7-1.6,7.4-2.1,10.9c-0.6,4-0.5,8.1-1.1,12c-0.6,3.6-1.9,6.5-2,9.9c-0.2,4.2,1.5,6.4,2.1,10.6
		c0.3,2.3-0.3,3.5,0.4,5.6c0.3,0.9,2.2,2.8,2.8,4.3c1.5,3.8,1.8,6.1-0.8,9.4c-2.3,2.9-5.8,4-9.4,4.6c-0.3,0-0.6,0.1-1,0.1
		c-1.1,0.5-2.3,0.9-3.5,0.9H579c-0.7,0-1.4-0.1-2.1-0.3c-1.6,0.3-2.9,0.9-3.3,1.9c0,0-0.7,0.9-0.7,0.9c4.3,5,15.3,0.8,20.1-2
		c7.5-4.5,10.8-9.6,12.5-18c1.5-7.3,2.3-16.8,2-24.5c-0.2-4.2-1.8-8.4-1.5-12.5c0.2-3.7,2.2-7.5,3-11c4.1-16.3,17.6-21.5,33.5-21.5
		c8.9,0,15.4,1.1,23.4,3.6c8.2,2.6,16.7,7,25.5,8.9c7.6,1.6,17.6,0.2,21-8C714.9,252.9,713.4,244.7,712.1,238.5z"/>
</g>
<g id="greys1">
	<path class="st5" d="M625.5,349.5c0.8,0.4,2.1,0.4,2.9,0.4c0.1-4.6,3-14.9-0.9-17.9c5-1.7-2.3-5.5-1.5-8.9c0.3-0.1,0.6-0.1,0.8-0.2
		c-0.3-0.7-0.3-1.5-0.3-2.3c0.8,0.2,1.5,0,2.3,0.4c-0.4-1,0-1.5-0.7-2.6c0.7,0,1.8-0.6,2.7-0.5c-0.1-0.4,0.4-1.2,0.7-1.4
		c-0.3-0.5-0.7-0.5-1-0.8c2.5-0.7,4.2,2.9,5.5-0.1c1.5-0.1,2.7-0.9,4.4-0.7c-0.3-0.6-0.4-1.2-0.9-1.8c3.9,0.1,3.3,5.8,7.4,5.8
		c-1-1.3-0.5-1.6-1.9-2.5c0.1-0.8,0.4-1.2,1-1.9c-0.1-0.2-0.9-0.9-0.8-1c0.1-0.5,1-0.4,1.2-0.6c-0.3-0.4-0.7-0.7-0.9-1.3
		c3.2-0.9,5.3,0.5,4.6,3.9c1.2-1.3,2.3-3,3.5-4.4c-1.1-1.2-2.7-2-4.5-2.1c0.3-0.2,0.8-0.7,1.4-1c-0.5,0-2.1-0.9-2.9-1
		c0.4-0.5,0.7-1.4,0.9-1.8c-1.7-0.7-2.3-1.2-3-2.5c-0.2-0.1-0.5-0.2-0.7-0.1c0-0.2,0.6-0.5,0.7-0.6c-0.1-0.6-0.6-0.6-0.4-1.3
		c2.2-0.8,4.2-1.2,5.8-3.1c-0.8,0.2-1.4,0.3-2.2,0.6c2.1,0,3.6-0.9,3.8-2.9c-0.3-0.1-0.6-0.1-0.8-0.2c-0.1-0.4,0.1-1-0.2-1.3
		c-0.4-0.2-0.8,0-1.2-0.2c0.2-0.2,0.3-0.5,0.2-0.8c-1.3-0.9-2.4-1.7-3.8-2.2c-0.8-1-1.3-1.7-2-2.5c0-0.2,0.8-0.7,1-0.9
		c-0.3-0.4-0.9-0.9-1-1.4c2.2-1.4,4-0.4,6.5-1.1c0.4,0,0.3,0-0.1,0c1.4-1,6.3-0.2,9-1c-0.3,0.5-0.9,1.4-1.4,1.8c0.1,0.4,1-0.2,1,0.6
		c-1,0.6-1.4,1.8-2,2.4c0.3,0.1,0.7,0.2,1,0.1c0,0-1.4,1.5-2,1.9c5.2,2.3,11.4-1.5,14.9,4.6c-3.1,1.6-6.7,2.2-9.8,3.9
		c0.2,0.3,0.6,0.1,0.8,0.5c-0.4,0.1-1.1-0.1-1.4,0.2c-0.6,0.8-0.3,1.2-1,1.8c4.8,1.1,13.5,0.8,14.4,7c-0.4,0.2-0.9,0.4-1.3,0.6
		c3.8,1,7.7,0.5,11.3-0.9c2.8-1.1,5.6-3.7,8.4-4c1.4,1.8,2.6,3.7,1.3,5.8c0.3,0.4,0.7-0.1,0.9,0.5c-1.3,3-3.5,7-2.3,10
		c3.9-1.7,4.7-7.1,4.8-10.9c0-3.4,0.4-10.5-4-11c-4.3-0.5-7.7,4.7-11.1,6.4c-4.5,2.2-7.6-1.9-11.5-4.4c2.4-1.6,8.9-5.2,2.2-7.6
		c0.6-4.4-5.9-4.1-9-4c0.5-2.1-0.2-4.7-1.1-6.8c-7.1-1.7-18.1-2.1-23.9,3.1c1.1,3.2,7.3,3.4,4.7,7.7c0.5,0.5,0.8,0.5,1.1,1
		c-0.7,0.6-8.5,4-7.4,5.6c1.2,1.7,2.3,3.4,3.6,5c-2.1,2.4-3.3,5.7-6.5,6.5c-3.4,0.9-7.7-2.2-10.2-0.1c1.3,1.1,2.8,4.5,1.1,6
		c-1.6,1.4-3.5,6.3-1,8.7c-0.9,4.9,0.9,9.6,0.7,14.5c-0.3,5.3,2,22.8-9.5,18.3c-1.3-3.9-9-15.6-14-10c1.2,1,3.7,3.2,5,4.7
		c1.5,1.8,2.7,5.1,4.9,5.5c0.2,1,0.8,1.5,1.2,2.3c4.2-0.4,2.9,2.9,3.5,5.5c1.3-0.1,2.3,0.2,2.9,0.4c1.7-2.6,5-4.1,7.1-6.8
		c-1.6-2.9,4.6-10.5,4.5-15"/>
	<path class="st5" d="M538.5,355c-3.3-0.9-4.5-16.8-3.9-20.9c1.3-8.7,9.7-8.3,14.5-15.6c2.1-3.2,2.6-7.6,3.9-11
		c1.6-4.6,3.9-5.7,6.4-9.1c2-2.7,2.7-7.7,3-10.9c0.5-4.9,0.1-7,1.8-11.5c2.7-7.2,1.3-13.4,6.3-19.6c-0.9-1.7-1.1-3.7-1-5.8
		c-4.3,0.1-6.3-0.2-10.4-1.2c-0.3-2.2-2.9-2.9-3.1-4.9c-0.2-2.2,1.6-3.1,2.1-4.9c2-7.5-0.8-15.1-4.1-21.6c-1.2-2.4-6.5-7.3-6-8.9
		c-0.8-0.4-1.3-1.1-1.9-1.5c1.9-1.3,8.3-1.2,10,0.4c-3.2,3.9,4.7,12.5,6.3,16.1c2.5,5.6,6,12.7,0.3,17.9c0.3-0.1,0.5,0,0.8,0.1
		c-6.1,6,10.5,6.7,13,5c-0.2,2.1-1.2,3.5-2,5.5c-0.4,1-2.3,4.3-2.4,4.9c-0.4,1.9,0.3,3.4,0,5.6c-0.2,2.1-1.4,2.9-1.5,5
		c-0.3,4.5,1.2,7.1-0.6,11.4c-1.9,4.5-2.3,4.4-1.5,9.5c-0.5,0.1-0.9,0-1.3,0.2c-2.7,6.6,0.9,14.9-3.4,20.9c-0.8-1.4-2-1.9-3.1-3
		c-4.7,2.1-3.2,6-4.4,9.9c-1.4,4.5-5.3,7.7-3.6,13c-5.7-2.2-11.2,3.6-12.9,8.6c-2,5.9,2.2,11.8-0.1,17.4c-0.5,0.1-0.9,0-1.4,0.1"/>
	<path class="st5" d="M574.5,344c4.2-1.3,7.7-2.8,12-3.5c3.9-0.6,8.1-1.1,10-5c1.7-3.5-0.2-8.5-0.5-12c-0.4-4.1-0.5-8.1-0.6-12.4
		c-0.5-0.3-0.9-0.4-1.3-0.7c0.4-1.1,0.2-2.8,0.7-3.9c-6.4,1.8-3.6-6.9-1.4-9.6c0.2-0.2-0.5-7.8-0.3-9c0.5-2.6,2.2-5.2,2.5-7.8
		c0.6-6-4.9-11.6-2.6-17.5c-0.7-1.8-1.3-3.4-2.6-5c2.3-1.9,1.9-5.1,4.4-6.1c1.2-0.5,5.4,0.8,7.6,0.6c5.2-0.5,10.5-2.4,15.5-4
		c1,0.9,1.1,1,0.9,2.5c-0.1,1.1-15.8,6.5-17.5,7.6c-10.3,6.3-2.9,9.1-1.4,18.5c0.8,5.2-0.3,7.9,2.6,12.5c-1.5,1.2-5.5,5.4-5.6,7.5
		c-0.1,1.5,2.2,6,2.6,7.9c3.3,0.4,1.6,4,1,6c0.9,0.2,1.5,0.9,2.3,1.2c-1,3.1-3.8,4.9-3.4,8.4c0.2,1.5,2.1,2.2,2.5,3.5
		c0.6,1.7,0.6,3.8,1.1,5.5c6.8-2.4,9.9-4.7,13.8,2.7c2.5,4.8,6.5,14,0.2,17.9c-6.9-6.4-11.9-10.3-22.1-6.5
		c-4.7,1.7-8.5,3.1-13.5,3.5c-4.9,0.5-7.2-1-10.9-3.9c3.2-0.3,6.3,0.5,8.9,1.9"/>
	<path class="st5" d="M574.5,365c-3.7,1.6-12,5.4-9.6,10.5c-1.4,0.7-3.5,3.8-4.4,5.4c-1.6,2.8-2.7,1.4-0.9,5.5
		c4.1,0.9,6.8,4.9,11.3,4c-0.3-0.5-0.4-1.7-0.9-2.3c2.9-2.7,11.5-2,15-0.7c1.8,0.6,3.4,3.4,5.9,2.5c3-1.1,2.8-3.9,0.1-5
		c2.4-1.7,6.9-8.4,2-9.5c1-4.8-9-11-12.9-8.9c0.2,3.4,5.5,4.7,8.2,5.6c0.6,1.2,2.3,2.3,2.6,3.4c0.5,1.7-1.1,3.1-0.6,4.9
		c-2.3-0.1-3.8,1-3.5,3c-4.3,0.2-10.5-0.9-14.5,1.4c-1.3-1-5.8-1.5-6-1.8c-2.2-2.5,1-3.7,0-6.5c0.2-0.7,0.8-2.2,1.1-2.9
		c2.1-0.5,1.9-0.1,2.1-2.1c1.5-1.4,2.4-2.7,4.2-2.6c0.8-2,3-2.5,5.1-2c-1.5-0.6-3.6-2.1-4.4-2.4"/>
	<path class="st5" d="M552.5,413c-4.2-0.2-30,1.6-28.1-7.9c-4.6-1.8-4.9,2.5-3.8,5.8c4,2.1,8.4,5.4,12.9,6.1
		c4.8,0.7,9.1-2.1,13.8-2.1c4.1,0,8.1,1.9,12.2,2.6c4.1,0.7,6.4,0.9,10,2.9c2.7,1.5,5.9,3.8,9,3.6c3.1-0.2,7.4-2.4,10.4-3.1
		c3.5-0.7,6.2-1.3,10.4-0.9c7.3,0.7,15.2,3.8,22.6,2.4c5.6-1.1,8.4-3.6,11.1-8.4c3.7-6.5,2.8-8.2-4-10c0,0-0.7,1-0.7,0.9
		c7.7,4.5-3.4,14.1-8.4,14.9c-7.4,1.2-16-2.3-24-1.9c-8.5,0.5-15.4,1-24,0C565,417.2,559.1,413.3,552.5,413z"/>
	<path class="st5" d="M553.6,432.4c0.2-0.2,0.4-0.4,0.4-0.4c-2.5,0.6-5.4,2.6-7.3,4.3c0.2-0.1,0.4-0.2,0.6-0.4
		c-0.7,0.5-1.5,1.4-2.1,2c1.3-0.2,2.1,0.6,3.3,0.7c0.5,2.7-2.2,3.9-4.2,4.9c1.8-0.2,2.7,0.5,3.8,0.9c-1.9,0.2-3.7,0.7-3.9,2.5
		c4.7,0.8,7.6-3.3,12.9-1.8c0.3,0.5-0.3,0.7-0.2,0.9c0.4,1.2,1,1.3-0.2,3.4c0.7,0,1.7,0.3,2.4,0.2c-1.6,2.5-5,2.7-7.9,2.5
		c0.5,2.6,8.5,4,11.5,4.8c4.7,1.2,8.2,0.1,12.4,0.2c0.1,0.5,0.1,0.9,0.2,1.4c1.7,0,3.6,0.1,5.3,0.2c1.2,1.4,1.2,1.8,3,2.1
		c0.1,0.2-0.7,0.5-0.4,0.7c1.2-0.2,2.7,0.2,3.9,0.2c-0.7,0.8-0.5,2.1-0.9,2.8c2,0.6,3.6,1.9,5.8,1.6c0.1,0.3,0,0.7,0.1,1
		c4.4-2.3,8.8-4.7,13.3-6.9c2-1,4.3-2.1,6.6-3.1c0.6-0.8,1.3-1.4,2.1-2l7.9-5.3c1.6-5,3.2-7.3,7-11c0-0.4-0.4-0.4-0.4-0.8
		c0.2-0.8,2.7-3,3.2-4.2c0.7-1.6,1-3.6,1-5.3c-0.5,0.1-1.1,0-1.7,0.2c-0.2-2.2-2-0.9-3.4-0.3c0.4-0.9,1-2.7,0.5-3.7
		c-1.1,2-3.8,2.1-5.8,3.2c-1.4,0.8-2.5,2.2-3.8,3.2c-2.4,1.7-5.7,2.4-8.4,3.3c-1.2,0.4-1.7,1.1-3.1,1.1c-0.8,0-2.7-0.9-3.2-0.7
		c-2.6,1-3.8,3.2-6.8,3.2c-2.4,0-4.7-1.5-6.9-2.2c-4.7-1.4-11.1-2.5-15.9-1.1c-1.6,0.5-3.1,1.4-4.7,1.8c-3.2,0.7-2.6-0.3-4.9-1.4
		c-0.6-0.3-1.4-0.3-2.1-0.4c-2.9-0.4-5.2-2.6-7.3-4.6c0,0.4-0.1,0.7-0.1,1.1c-0.1,1.2-11.9-3.4-12.8-3.3c-0.2,0.3-0.2,0.6-0.1,1
		c-1.2-0.1-2.5-0.5-3.5-1.1c2.5,2.5,5,5.1,7.6,7.6"/>
	<path class="st5" d="M676.6,320.6c-0.3,0.6-0.5,1.8-0.5,2.4c1.1,0.2,1.8,1,2.8,1.2c0,0.6,0.2,1.3,0.2,1.8c3.6-0.2,7.8,0.4,11.4,1.2
		c-0.4,2.8-4.2,6.7-6.9,8c1.8,3.3-1.5,2-2.7,4.3c-0.9,1.8-0.6,3.5-0.9,5.6c-0.4,2.8-4.1,9-2.6,10.6c0.1,3.2-0.9,6.1-1.8,9
		c-0.8,2.6-4,7-1.2,8.7c-0.4,0.3-1,0.5-1.4,0.8c0.5,0.6,0.6,1.5,0.6,2.3c0.4,0,0.4-0.5,0.8-0.4c-2.8,3.4-4.8,7.3-6.9,10.8
		c0.5,0,1.2,0,1.7,0c-2.7,4.5-0.2,4.8-1.3,8.5c-0.8,2.8-3.6,5.1-4.6,7.9c-1.2,3.3-1.5,5.7-3.7,8.8c-1.4,2-4.7,4.3-4.7,6.8
		c-2.2,0.5-4.3,1.8-6,3.1c0.9,0.8,0.6,1.7,1,2.4c-1.9,1-3.8,2.2-3.8,4.5c0.5,0.2,0.9,0,1.4,0.1c-0.1,1.9-1.2,3.5-2.9,4.5
		c-0.5-0.3-0.3-0.7-0.5-0.9c-2.2,1.6-6.2,1.9-4.4,5.2c1.7,0.4,1.9,1,2.7,2.5c-2.1,1.6-0.5,4.6-2,6.2c-0.6,0.6-5.7,2.1-5.8,1
		c0.1,1.9,0,3.6-0.4,5c1.9,3.7,0.1,8.1-3.2,10.3l-1.1,0.7c-0.1,1.6-0.9,3.3-2,4.6c0.2-0.1,0.4-0.1,0.5-0.1c-0.3,0.6-0.7,1.2-0.9,1.9
		c4.8-1.2,6.6-8.2,9.3-11.6c3.3-4,9.3-7.2,12.5-11.5c1.8-2.5,1.3-5.3,3.1-7.9c5.3-7.9,10.8-13.8,13.5-23.5
		c1.5-5.3,2.7-10.6,4.1-15.9c1.4-5.1,4.4-9.4,5.4-14.6c1.7-8.5,1.7-16.8,5.1-24.9c1.6-3.9,3.9-6.6,4.8-10.6
		c0.8-3.5,1.3-8.1,3.2-11.4c1.9-3.3,5.9-5,6.3-8.9C690.7,323.3,680.7,326,676.6,320.6z"/>
	<path class="st5" d="M535.2,336.3c-0.1,1.1-0.2,2.3-0.2,3.5C535.1,338.7,535.1,337.5,535.2,336.3z"/>
	<path class="st5" d="M581,494c-0.4-2.1-1.6-2.3-3.6-2.9c-2.7-0.8-1.9,0.1-4,0.3c0,0-1.9,1.4-2.4,1.5c-0.5,0.1-1.4-1.1-1.9-1.1
		c-1.7,0-2.8,0.1-4.5-0.1c-1.9-0.2-4.8-0.8-6.2-1.3c-0.8-0.3-2.6-1.5-3.9-1.7c-4-0.7-6.6,1.5-10.9,1c-3.4-0.3-6.5-1.5-9.5-3.5
		c-2.6-1.8-5.6-3.1-8.1-4.9c-3-2.1-3.1-4.2-5.6-6.9c-1.1-1.2-3.2-1.6-4.3-2.7c-1.8-1.9-1.1-2.3-2.2-4.3c-1.2-2.3-5.9-7.5-2.5-9.2
		c-2.2-1.7-3.8-4.8-6.4-6c-0.2-4.8-9.2-6.8-6.2-13.8c-2-3.6-5.7-6.1-7.9-9.3c0.7-9.5-5-18-2.9-27.7c0.9-0.1,1.4-0.6,2.4-0.7
		c-2.1-2.8-0.9-7,1.9-9c-2.1-2.6-3.3-5.5-3.3-8.9c0-0.3,0-0.6,0-0.8c-2.8-2.6-5-6.5-6-9.6c2-1.9,1.6-4.9,0.4-7.1
		c0.7-0.3,1.4-1.4,2.5-1.6c-0.3-0.3-0.4-0.8-0.6-1.3c-2.2-1.9-3.9-4.1-4.9-7c-0.7-1.9-0.8-3.9-0.7-5.9c-0.9-0.6-1.9-1.1-2.8-1.8
		c-3.5-2.5-5.2-6.9-2.9-10.9c0,0,0.1-0.1,0.1-0.1c-2.9-0.9-6.5-1.4-3.8-5.7c-3.8-0.7-6.1-4.3-9.8-5.2c0.1-1.5-1.5-4.3,0-5.8
		c0.9-0.8,5.9,0,6.9,0c5.2,0.1,7.2-0.9,11.6-4.1c3.7-2.8,6.3-5.8,9.5-9.4c2.7-3,6.7-5,9.3-8.3c-0.1-0.4-0.3-0.9-0.4-1.3
		c3.3-0.7,3.3-3.8,6.4-4c-0.2,0.4-0.7,0.8-0.9,1.3c2.3,3.1,8.3-2.9,8.1,2.4c-2.1,0.2-3.2,3.2-3.2,4.5c-1.2,0.3-2.7,1-3.8,1.2
		c4.3,1.7,8.6-0.3,13.1,1.5c-0.7,0.3-1,0.4-1.8,0.6c2.8,1.9,7.5,0.7,9.8,3.1c1.2,1.2,2.9,7.6,3,9.3c0.2,3.2-1.6,6.8,1.2,8.9
		c5.5,1,5.8,5.5,5.6,10.4c0.5-4.1,1.9-7.1,4.6-10.8c0.3-2.2,2.9-6.4,3.1-8.1c0.8-6.7-3-1.8-6-5.3c-3.8,1.4-2.5-3.3-3.5-6
		c-1.4-0.8-3-1.7-4.2-2.6c0,0,0,0,0,0c-4.8-0.3-7.1-7.8-8.6-11.6c-2.4-6.3,2.6-10,2.3-16.8c-5.7-2.8-15-0.5-20.1,3.3
		c-2.7,2.1-3.9,5.2-6.4,7.3c-2.7,2.3-6.4,2.7-9.5,3.9c-3.7,1.4-6.7,3.8-11,3c-2.9-0.5-6.5-3.3-9.5-4.4c-7.9-3-17.3-5.8-25.5-2.3
		c-11,4.8-4,15.7,2.5,20.5c9,6.7,18.7,1.3,26.8-3.8c3.1,0.6,5.6,3.8,3.3,7c-2.4,3.5-7.8,3.8-11.1,4.3c-4.2,0.6-8.9,0.8-13,1.9
		c-1.3,0.4-5.2,0.7-5.5,2.6c-0.3,1.8,3,2.6,3.1,4.9c3.1,0.3,6,5.2,8.4,7.1c3.9,3.1,5.5,8.3,6.3,13.3c0.8,5,1.1,10.1,3.3,14.6
		c1,2,2.3,3.8,3.2,5.8c2.1,4.7,1.7,10.2,2,15.3c0.3,5.3,1.4,10.5,3.3,15.4c1.1,2.8,2.9,4,3.8,7.1c0.8,3,2,6,2.3,9.1
		c0.5,5.4,1.1,6.4,4.4,10.6c4.4,5.8,6,13.8,8.5,20.5c2.5,6.8,7.4,10.8,11.1,16.9c3.5,5.8,6.5,16.8,11.5,20.5
		c10.5,7.7,24.5,14,37,16.5c6.7,1.3,15.2,4.6,22,4C576.7,499.8,581.7,497.6,581,494z"/>
	<path class="st5" d="M578.5,403c-3.4,3.4-15.4-3-20-2.5c-7.7,0.8-14.8,2.6-23,3.1c1.5,2.1,3.9,1.3,6.5,1.4c2.4,0.1,3.6,0.7,5.6,0.9
		c4.4,0.5,8.7-1,12.9-0.8c3.9,0.2,7.8,1,12,1.4c1.9,0.2,4.3,1.1,6,0c2.1-1.3,2.6-3.1,0.5-3.5"/>
	<path class="st5" d="M622.5,241c-5.1,1.6-11.2-1.9-8.1-7.4c-6.1-3.1,10.4-10.2,12.1-12.1c4.8-5.5,11-9,18.5-10
		c15.4-2.2,31.3,3.1,43.5,11c0,0,0,0,0,0c2.5,1.6,6.5,6.7,8.9,6.7c-0.8-4.5,0.1-8.1-2.2-12.6c-2.1-4.2-5.6-7.6-7.3-12.1
		c-3.5,0.1-2-2-2.9-4.1c-0.6-1.5-1.6-3.8-2.1-5.4c-0.6-1.8-0.4-4.1-1-6.1c-0.7-2.2-2.6-3.3-3.5-5.4c-1.7,1.1-1.7,3.3-1.5,5.4
		c-3.9,1.1-11.5,4.2-15.2,1.1c0.4-0.1,0.8,0.1,1.3-0.1c-1-4.4,3.6-8,2.1-12.4c-1.5-4.4-4.9-7.1-9.5-5.9c-2.8-3.8-4.6-5.1-3.4-9.9
		c1.1-4.6,3.6-7.5,4.3-12.1c0.7-4.1,0-9.9-1.4-14c-1.2-3.9-5.3-5.8-7.2-9.4c-4.1,0.8-8.8,4.5-13.3,3.8c-0.7-11.5-5.5-4.5-10.2,0.6
		c-4.4,4.7-8.5,9.4-11.3,15.2c-1,2.1-0.4,6.2-1.6,8.9c-1.6,3.7-4.3,4.4-7,6.5c-3,2.3-4.4,3.6-8,4.9c-2.4,0.9-3,0.4-4.5,2.1
		c-1.1,1.2,1,3.1-1.9,4.4c-0.4-0.7-0.9-1-1.2-1.8c-2.8,0-4.5,1.6-7.4,2.3c-3,0.7-5.1-0.1-8.4,1.2c-1.7,3.1,1.6,3.2,1.5,5.4
		c-0.1,1.5-1.1,5.1-1.4,6.4c-0.7,3.1-2.9,8.4-2.3,11.6c-1.6,1.1-1.7,2.2-0.8,4c-8,4.6-13.6,6.1-23,7.4c-0.2-0.8-0.2-2,0-2.8
		c4-1.5,4.2-2.5,7.3-5.2c2.4-2.1,5-2.3,7.2-4.8c4.9-5.4,7-11.7,7.4-19.1c0.2-3.3-1-8,2.4-10.1c1.5-0.9,3.8-0.1,5.5-0.5
		c1.8-0.4,3.7-1.8,5.6-2.5c8.2-3.1,13.9-5.2,20-11.9c10-11,15-25.9,28-34.1c3-1.9,7.8-4,11.5-2.9c3.2,0.9,6.1,4.3,9.4,6.1
		c9.2,5.2,8.5,10.5,11.2,19.4c1.8,5.7,1.7,3.7-0.6,9c-1.6,3.5-0.9,7.7,0,11c1.9,7.4,3.2,14,10.4,16.6c8.3,3.1,12.3,7.1,17,14.9
		c2.5,4.1,6.5,7.4,8.7,11.7c2.1,4.1,1.8,8.4,2.5,12.8c0.8,4.5,6.2,19.3-1.9,20.5c-5.2,0.8-11.3-9-14.8-11.8c-3.5-2.8-6.7-4-10.9-5
		c-7.6-1.8-14.7-1.9-22.5-2.6c-4.8-0.4-9.1,0.5-13.4,2.5c-4.2,1.9-6.3,5.5-10.2,7.9c-4.6,2.8-12.5,7.4-5.2,12
		c4.6,2.9,13.2,1.7,18.4,1.6c8.2-0.1,15.3-3.4,24-2.5c3.4,0.3,17.9,2.4,18.5,7.5c0.4,3.3-7.1,1.4-9.5,1.5c-3.6,0.2-7.1,1-10.5,1.5
		c-4.6,0.7-20,1.6-21.9-2.4c4.4-0.2,8.5,1,12.8,0.3c2.7-0.4,9.5-0.8,11.6-2.3c-4.7-0.4-9.1-0.6-14-0.6c-5.1,0-9.8-0.8-14.5-0.6
		c-1.6,0.1-5.7,0.3-7,1.1c-2.3,1.3-0.9,4-4.5,4c-3.2,0-2.1-2.5-4.5-4c-1.1-0.7-7.5,0.3-3.1-2.6c0.1-0.2,0-1.3,0-1.3
		c-0.5-0.1-0.9,0-1.4-0.1"/>
	<path class="st5" d="M636,559.5c-1.1-2.1-1.8-2-3.5-3c-2.9-1.5-7-2.8-10.5-2.6c-3.3,0.2-6.6,1.8-9.6-0.2c-1.6-1-1.6-3.5-3-4.4
		c-1.9-1.2-4.3-0.4-6.3-0.8c-2.4-0.5-4.6-1.8-7-2.2c-4.8-1-9.7-0.9-14.5,0.2c-2.9,0.7-5.7,1.8-8.6,2.5c-5.3,1.4-12.2,0.8-17.5,2.7
		c0.1-0.3,0.1-0.6,0-1c-0.2-0.7-0.7-1.2-1.3-1.7c-2.4-2.2-5-4.2-7-6.8c-2-2.7-3.3-5.9-6-8.1c-1.5-1.2-3.5-2.1-5.4-2
		c0.4-0.5,0.7-1.1,0.8-1.2c-2.4-1.2-1.8-3.7-2.6-4.5c-1.4-1.3-3.2-2.4-4.4-3.5c-3-2.8-5.9-5.9-6.1-10.4c-5.7-1.7-4-6-4.9-10.1
		c-1.2-5.6-7.3-16.9-10.6-22.1c-4.3-6.8-12.4-11.7-20.5-11.1c-0.6,0-1.3,0.1-1.8,0.4c-0.8,0.4-1.3,1.3-1.9,2
		c-2.1,2.7-5.5,4.3-8.9,4.3c1.8,6.1,2.3,12.5,1.6,18.8c-0.8,7.5,2,13.1,5,19.5c0.6,1.2,0.2,2.7,0.2,4.1c-0.2,4.8,3.3,5.3,5.3,8.5
		c2.2,3.6-0.5,9.8,0.7,13.9c0.7,2.5,2.2,4.8,2.3,7.4c0,1.2-0.2,2.5,0.1,3.6c0.5,1.7,2,2.7,3.3,3.9c2.9,2.8,4.5,6.7,7.3,9.5
		c2.9,3,7.1,4.4,10,7.4c2.4,2.5,4.3,5.3,6.8,7.9c1.5,1.5,2.3,2.3,3.9,3.6c0.8,0.7,3,3.6,3.6,3.9c2,1.2,3.5,0.3,5.8,1.1
		c1.3,0.5,6.3,5.1,6.3,6.6c3.8,4.6,7.5,9.2,11.3,13.8c5.3,6.5,10.6,13.1,15.9,19.6c4.3,5.3,9.1,10.9,15.6,12.7
		c5.3,1.5,11,0.2,15.9-2.2c4.2-2,7.9-4.9,11-8.3c3.7-4.1,6.5-9.3,6.5-14.9c0-3.2-0.9-6.5,0.3-9.5c0.5-1.3,1.4-2.4,2.1-3.6
		c3.2-4.8,3.3-11.5,6.7-15.3c3.8-4.3,8.5-7.7,11.1-12.9c1.7-3.5,1.4-6.5,2.2-10.2C636.1,561.3,637.7,562.7,636,559.5z M611.6,593.5
		c-0.4,0.4-0.9,0.7-1.3,1.1c-1.9,1.6-3.8,3.2-5.5,5c3.2,3.4,2.3,8.4-0.6,11.3c-0.3,1.6-1.3,3.1-3.2,3.9c-1.5,0.6-3,1.1-4.6,1.6
		c-0.4,1.3-1.4,2.5-3.1,3.1c-6.4,2.3-12.4-1.3-18.6-2.3c-3.5-0.6-4.2-3.8-3.1-6.4c-3-1.8-6.1-3.6-9.6-4.3c-2.8-0.5-3.9-3.6-3.4-6.1
		c0.1-0.3,0.7-2.2,1.5-3.8c-0.2-0.1-0.4-0.2-0.6-0.4c-1.2-0.4-2.3-1.3-3.4-1.8c-2.3-1-3.3-3.1-3.2-5.2c-0.9-0.4-1.8-1-2.5-1.7
		c-0.2,2-0.7,3.9-2.3,5.5c-2.8-1.1-6,0.2-6.6-3.5c-0.3-0.3-1,0-1.3-0.2c-0.2-0.6-0.4-1.3-0.7-1.8c-7,1.3-13.8-6.7-18.9-10.6
		c-1.4-1-4.7-1.8-5.5-2.5c-1.7-1.6-1.7-3.8-2.8-5.7c-2.2-3.6-5.9-6.4-8.8-8.8c-0.4-0.1-0.4,0.5-0.8,0.4c-1.5-3.2-3-5.6-4.1-9
		c-1.2-3.8-0.5-6.4-1-10.5c-0.4-3.6-1.9-6.3-1.4-10.5c0.4-3.4,2.1-6.6,2.3-9.9c-0.7,0.3-2.1,0.1-2.9,0.4c-0.5-2.3-2.4-4.2-5-4
		c-0.2-2.1-0.8-2.7-3-2.5c0-2.6,1.7-4.3,2-6.8c0-0.1,1.6-0.7,3.1-1.3c-0.3-0.8-0.6-1.5-0.8-2.3c-1.8-6.1,7.7-8.7,9.5-2.6
		c0.8,2.9,2.4,5.3,4.7,7.5c0.5,0.5,0.9,1.1,1.1,1.8c1.3,1.1,2.6,2.3,3.7,3.9c1.4,2,1.2,6.2,4.5,3.3c-2.1,2.6,2,2.8,3.1,5.1
		c2,0.1,3.9,0.9,4.8,2.5c-1-0.5-1.8-0.2-2.9-0.4c-0.1,3,3,3.3,3,6.3c0.6,0,1.3,0.1,1.9,0.2c-6-0.1,0.1,7.1,4,2.8
		c0.7,1.4,1.9,3.9,3,5c-2.1-0.7-2.7-0.5-3.4,1.5c3,0.7,6,3.2,7.4,5.5c-0.1,0.1,1-0.6,0.9-0.6c0-0.1-0.3,2.8-0.5,3.6
		c-0.5,0.1-0.9,0.3-1.3,0.4c1,0.9,2,1.9,3,2.9c0,0,0.1,0.1,0.1,0.1c3.9,0.6,8.1,1.9,8.8,4.1c-1-0.5-3.1-1.2-3.9-1.8
		c0.9,1.6,3.4,4.2,5.5,6.5c0.3,0.1,0.5,0.2,0.8,0.4c0.8,0.4,1.7,0.8,2.5,1.3c0.3-1.1,0.9-2.1,2-2.9c0.6-0.4,1.2-1,1.6-1.6
		c1.4,0.3,2.8,0.4,4.2,0.6c2.8,0.3,16.7,0.1,15.9,5.5c-0.9,6.2,10-2.6,12.6-0.3c3.8-2.6,4.8-1.7,8,0.4c2.8,1.9,2.9,1.6,5.8,2
		c3.4,0.4,6.7,2.2,6.6,6.4c0,0.8-0.2,1.6,0.1,2.4c0.4,0.9,1.3,1.5,2.2,2c0.8,0.4,1.5,0.8,2.3,1.3c0.8,0.4,1.6,0.9,2.5,1.3
		c0.4,0.2,0.8,0.5,1.1,0.9c0.2,0.3,0.2,0.7,0.2,1.1C617.4,587.1,615.4,590.4,611.6,593.5z"/>
</g>
<g id="greys2_1_">
	<path class="st6" d="M708.5,329c-1.2-2.8-3.1-5.2-4.6-8c-1.5-0.3-11.5,1.8-12,3.5c-0.5,1.6,1.9,1.3,2,2.5c0.3,2.3-3.2,5.3-4.6,6.7
		c-2.2,2.4-3.9,4.5-5.2,7.5c-2.6,6.1-3.6,12.7-4.7,19.2c-2.3,13.6-8.5,26.5-12,40c-3.7,14.3-6.9,27.3-15.7,39.3
		c-7.2,9.8-15.4,19.5-23.2,28.8c-6.9,8.3-17.2,22.1-28,26.1c-15.8,5.9-35.3,3.6-50.6-1.6c-4.8-1.6-10.5-2.2-15.4-3.4
		c0.8,2.2,5.1,5.4,7,6.8c3.4,2.4,6.1,1.5,10,2.5c11.6,2.9,20.6,4.4,32.6,3.4c11.6-1,24.1-3.8,34.3-9.8c9.7-5.7,16-20,24.2-28.8
		c6.8-7.3,14-14.1,20.9-21.3c5.9-6,10-12.9,15.3-19.4c3.5-4.3,6-9.4,8.9-14.2c4.6-7.7,10.2-15.5,12.5-24.4
		c1.7-6.4,2.3-12.8,2.6-19.5c0.3-5.2,1.8-10.3,2.9-15.4c1.1-5.2,4-11.1,3.6-16.6C709.4,331.6,709,330.3,708.5,329z"/>
	<path class="st6" d="M639.8,296.8c2.7-1.8,6.6-0.3,9-2.7c-1.9-1.8-10.8-7.5-10.8-10.4c0.1,2.6-2.9,6.7,0.4,7.9
		c-1,3.1-3.1,6-3.4,9.3c4.1,2.3,1.9,6.4-1.8,7.6c-5,1.7-6.8-3.8-11.2-3.7c-1.7,0.1-4.9,5.8-3.1,6.6c3.5,1.4,3.5,3.2,1.8,5.5
		c-0.6,0.8-3-0.2-3.8,1.2c-0.7,1.3,1.1,2.4,1.3,3.5c0.1,0.8,0.3,1.7,0.5,2.5c0.6,1.2,1,2.5,1.1,3.9c0,0.2,0,0.5,0,0.7
		c1,4,1.8,8,1.3,12c-1.7,13.6-9.6,2.2-13.6-4.7H604c-0.5,0-1-0.1-1.5-0.1c-1.7,1.6-3.3,3.5-5,4.5c-1.4,0.9-3.9,1.3-6.2,1.9
		c-0.1,0.1-0.2,0.1-0.3,0.2c-1.8,0.9-3.6,1.6-5.5,2.1c-0.5,0.5-1.1,0.8-2,1c-1.9,1.3-4.4,1.7-6.7,1.2c-3.7-0.9-5.9-1.2-9.9-1.2
		c-3.1,0-5.7-1.8-7-4.4c-2-0.6-3.5-2-4.3-3.8c-0.7-0.5-1.3-1-1.9-1.6c-1.6-0.5-3.2-1.2-4.8-1.9c-0.4-0.2-0.7-0.4-1.1-0.7
		c-0.2-0.1-0.4-0.1-0.5-0.2c-1.3-0.4-2.4-1.1-3.3-1.8c-1.4,1.6-2.7,3.6-3.6,4.9c-2.4,3.2-3.5,6-3.3,10.1c0.1,2.3,0.9,8.8,4.3,8.4
		c0.6,3,9.9,4.7,11.4,2.6c-2-4.3,1-8.7,5.6-8.3c3.6,0.3,5.8,3.9,9.3,4.6c0.9,0.2,3,4.6,2.7,5.6c-0.7,1.8-3.3,1.1-4.8,1.9
		c-3.9,2.2-6.6,4.9-4.1,9.6c-0.7,0.5-1.3,1.6-2.1,2c0.1,0,3.3,1.2,4.7,0.7c2.1-0.8,2.9-3.9,4.6-5.2c3.4-2.5,8.3-2.3,12.3-1.9
		c3.8,0.4,4.4,4.3,8,5.2c0.5,0.1,1,0.2,1.3,0.6c0.3,0.4,0.1,1,0.1,1.5c0,1.1,0.8,2,1.3,2.9c0.6,0.9,0.9,2.2,0.1,3
		c-0.3,0.3-0.6,0.4-0.9,0.6c-0.4,0.3-0.7,0.7-1,1c-0.6,0.7-1.2,1.5-1.3,2.4c-0.1,0.3-0.1,0.7-0.3,1c-0.2,0.4-0.7,0.6-1.1,0.9
		c-0.4,0.3-0.7,0.8-0.4,1.2c1.4-0.2,2.8-0.5,4.3-0.7c0.7-0.1,1.4-0.2,2-0.5c2.1-0.9,3-3.5,3.3-5.8c0.1-0.7,0.1-1.4-0.1-2
		c-0.2-0.6-0.7-1-1.1-1.5c-1.3-1.4-2.7-4-2-6c0.6-1.6,2.5-1.8,2.3-4c-0.3-3-5-5.1-7.3-6.2c-4.8-2.3-4.1-2.3,1.4-6.3
		c3-2.1,4.2-3.8,8-5.1c0.6-0.2,7.6-2.3,7.5-1c0,0.4,0,0.8,0,1.2c0.2-0.2,0.3-0.3,0.5-0.4c2.9,1.9,2.6,4.6,4.3,7.1
		c1.7,2.5,4.8,2.5,6.3,5.3c1.4,0.5,2.2,0.3,3.3-0.2c11.6-4.6,4.6-20.6,6-29.7c0.2,0,1.6,0.1,1.7,0.3c-1.4-2.8-4.4-5.2-3.9-8.6
		c0.4-3,4-3.7,3.8-6.7c-0.2-1.8-2.8-3.5-2.2-6c3.5,1.4,6.9,2.4,10.6,1.3c2.8-0.8,8.4-2.4,7.9-6.3C641.1,303,634.4,300.4,639.8,296.8
		z M612,346c0.4,0.3,0.7,0.6,0.8,1C612.5,346.7,612.3,346.4,612,346z"/>
	<path class="st7" d="M567.2,351.8C567.2,351.8,567.2,351.8,567.2,351.8C567.2,351.8,567.2,351.8,567.2,351.8z"/>
	<path class="st6" d="M512,286c-3.9-0.7-13.7-1-13.9-6.4c3-0.5,13.1-3.1,10.6,3.4c0.3,0.1,3,0.8,3,0.9c0.1,0.4,0.1,0.7,0.2,1.1
		c0.6,0.2,1.2,0,1.8,0.3c0.1,0.8,6.1,0.8,6.2,0.1c0.5-2.7,1.1-6.2-2.9-6.8c6.8-0.2,4.9-4.5-0.6-4.5c-2.5,0-8.7,1.5-9.9,4.2
		c-1.8-2.3-4.4-1.4-6.1-3.8c3.3-3.9,7.2-0.6,10.6-2c-0.9-0.3-1.8-1.4-2.5-1.9c0.2,0.1,4.6-0.7,5.4-0.6c2.1,0.2,4,1.5,6.1,1.9
		c4.9,1,12.3-0.7,12.4,5.6c0,1-4.3,10.6-4.9,10.5c0.3,0.1,0.6,0.1,0.9,0.2c-1,0.9-1.5,2.4-2.5,3.4c2.1,2,4.1-0.6,6.5,1.6
		c0.8,0.7-0.4,3,0,3.9c0.5,1,1.6,1.4,2.2,2.4c1.4,2.3,4.3,10-0.9,10c1.5,0-12.1-6.3-11.1-5c-1-1.4-0.5-0.4-2-1.3
		c-0.1-0.6-0.1-1.2-0.2-1.8c-3.3-1-6.5,0.7-8.5-2.7c3,0.5,2.7,0.4,3.1-2.6c-2.2-0.5-2.9-1.6-4.5-2.6c0.4-0.2,0.9-0.2,1.4-0.1
		c-2.4-2.6-10.6-0.5-12-5.2c4,0.2,7.7,1.5,10.5-2c-8.9,1.5-9.5-9.8-3.4-6.6c0,0.4-0.4,1.2-0.5,1.7c0.3,0.2,0.8,0.4,1.3,0.5"/>
	<path class="st6" d="M500.5,448.5c-1.7-2.5-4.4-5.8-6-8.7c-1.6-3-2-7.3-5.9-9.3c0.6-2.5,0.5-5-0.9-7.3c-0.4,0-1.3,0.4-1.7,0.5
		c-1.2-1.2-2.6-3.3-3.4-4.5c0.3,0.2,1.9,1,2.6,1.3c4.6-3.1-2.8-6.5-2.6-10.6c0.6,0.1,1.2,0,1.9-0.1c-12.4-19.2-9.5-47.5-19.4-67.8
		c-0.6-1.2-0.9-2.4-0.9-3.6c-0.1,0-0.2-0.1-0.3-0.1c0.2-0.4,0.3-0.8,0.3-1.3c-2.9-3-5.9-6.1-7.9-9.8c-4-2.2-9.7-5.3-9.8-8.7
		c3.2-0.5,6.6-0.5,10.2-0.4c1.1-1.4,2.6-2.4,4.2-2.9c3.3-0.9,6.2,0.4,8.1,2.7c4.2-0.5,8.2-1.7,11.5-4.5c2.4-2,3.2-5.4,5.1-7.9
		c1.8-2.4,3.7-3.2,6-5c2.7-2.1,10.9-10.5,7.9-13.7c-1.7,0.8-3.4,1.8-4.9,2.5c-0.1-0.7-0.5-1.3-0.6-1.9c-6.8,1-11.8,10.8-18.4,11.4
		c0.1-0.7-0.2-1.7-0.2-2.4c-11.3,3.6-8.5-7.7-3.3-13c-2.4-1.5-5.7-2-8.5-3.4c-4.7-2.2-4.2-1.6-2.4-5.5c0.7-1.4,3.7-0.7,2.5-3.1
		c-0.8-1.6-2.7-0.8-4.1-1c-3.4-0.4-7,0.7-10.1,1c-3.8,0.4-9.3,0.3-12.4,2.9c-3.7,3.1-1.6,5.7-2,9.6c-0.4,3.9-2.5,7.6-1.5,12
		c0.7,3.2,2.6,6.8,3.5,10c4.2,15,3.7,29.8,6.1,45.4c0.6,3.8,0.1,8.2,0.9,12.1c0.8,3.9,2.2,7.9,3.1,11.9c0.8,3.6,2.8,7.3,3.5,11.1
		c0.9,5.1,0.8,10.9,2.8,15.6c1.9,4.5,6.6,7.8,9.7,11.4c4.3,5.1,7.9,11,12.4,16c5,5.6,10.1,10.6,14.2,16.9c2.9,4.6,5.9,8.2,10,11.7
		c3.8,3.3,6.9,7.8,11,10.9C508.1,461.6,504.8,455,500.5,448.5z M443.2,303.3c-0.6-2.3,0.6-5.4,3.1-6.1c-0.4-0.5-0.9-1-1.3-1.5
		c-2.3-1.3-3.1-4.5-1.7-6.8c1.4-2.4,4.4-3.1,6.8-1.8c1.5,0.8,2.4,2.1,3.5,3.3c1.4,1.4,1.8,3.5,1.1,5.3c0.9-0.1,1.9-0.2,2.8-0.2
		c4.2-0.1,6.8,5.6,3.5,8.5c-1.4,1.2-3.1,2.4-5,2.3c-0.7,0-1.3-0.1-2-0.2c-0.1,0-0.3,0-0.5-0.1c-1.4,0.3-2.7,0.6-4.2,0.8
		C446.6,307.2,444,306.2,443.2,303.3z"/>
	<path class="st6" d="M631.2,427.4c-3.2,1.9-3.9,6.7-6.9,8.2c-4.6,2.5-6.2-2.4-10.4-2.4c0.2,1.8-0.7,2.3-0.2,3.9
		c-3.7,2.7-5.7-1.3-9.8-0.6c-0.3,0-1.5,5.9-1.6,6.5c-0.1,0.2-0.1,0.5-0.3,0.7c-0.3,0.4-0.9,0.3-1.4,0.3c-1.1,0-2,0.7-3.1,1.1
		c-2.4,0.8-3.1-1.1-2.5-3.1c-0.2-0.1-1.7-0.4-1.8-0.2c1.7-2.9-3.5-4.6-6.1-4.8c-3.2-0.2-4.7,3.3-7.7,2.6c-2.7-0.7-4.6-3.5-7.6-3.6
		c-2.1-0.1-4.2,1.4-6.5,1.3c-0.9,0-14.9-1.5-14.1,0.6c0.2,0.6,0.9,1.9,1.4,2.5c3.6-1.2,7.4,0.4,11.1-0.4c0.3,1.4-0.1,2-0.5,3.1
		c0.4,0.1,0.8,0.2,1.2,0.3c-0.1,0.1-0.2,0.2-0.3,0.4c0.3,0,0.7,0.1,1,0.1c1.9,0.3,3.2,1.1,4.1,2.2c1.4,1,2.4,2.3,3,3.8
		c1.1,0.3,2,0.8,2.8,1.4c2.4,0.3,4.7,0.6,7,1.1c1.5,0.3,3.1,1.4,4.2,2.7c0.8-0.5,1.6-1.1,2.2-1.4c2.4-1.3,5-1.2,7.2-0.2
		c0.9-1.6,2.2-2.9,3.9-3.7c1.8-0.9,3.6-1.3,5.4-1.6c1.2-1.2,2.6-2.2,4-3.1c1.1-2.5,3.4-4.4,6.9-4.4c0.9,0,1.7,0.1,2.5,0.4
		c0.1,0,0.3-0.1,0.4-0.1c1.8-0.4,3.5-0.3,5.1,0.4c1.8-2.7,4.2-5.9,6.3-7.2c0.3-1.1,0.5-2.9,0.3-4c-0.1,0.1-0.6,1.1-0.8,1.6
		c-0.1-0.3-0.5-0.8-1.1-0.6C629.5,429.8,629.9,428.5,631.2,427.4z"/>
	<path class="st6" d="M596.3,302.6c-0.4,1.5,0.3,2.9-0.5,4.4c6.2,1.1,1.6,7,0.2,10.2c0.5,0.4,1.1,0.4,1.6,0.8c0.1,0,0,2.7,0.1,3
		c1,0,2.2-0.2,3.3,0.1c0.1,1.2,0.2,2.5,0.3,3.7c0,0.5,0.1,1.1,0.4,1.6s1,0.7,1.4,0.3c-0.4,0.9,0.5,1.9,1.5,2
		c0.9,0.2,1.9-0.2,2.8-0.5s1.9-0.6,2.8-0.1c1.3,0.6,1.7,2.4,2.9,3c-0.6-2.7-1.3-5.4-2.9-7.6c-2.3-3-2.6-4.8-2.7-8.4
		c0-2,0.2-4.6-0.9-6.4c-0.6-0.9-2-1.3-1.6-2.2c0.1-0.3,3.9-2.3,4.1-2.2c-0.9-0.5-1.5-1.5-1.3-2.5c0-0.3,0.2-0.6,0.1-1
		c0-0.6-0.5-1-0.9-1.4c-0.7-0.7-1.5-1.4-2.2-2.2c-0.3-0.3-0.7-0.7-0.5-1.2c0.1-0.4,0.6-0.5,0.8-0.9c0.1-0.3,0.1-0.6,0-1
		c-0.4-1.2-0.8-2.5-1.6-3.5c-0.2-0.2-0.4-0.5-0.3-0.7c0.1-0.5,0.9-0.8,0.8-1.3c-0.1-0.2-0.3-0.4-0.5-0.5c-1.5-0.8-5.7-4-7-2.9
		c-1,0.9-2.2,5.3-2.5,6.6c-0.6,3.2,1.6,4.6-1.2,8.5C593.9,300.9,594.6,302.3,596.3,302.6z"/>
	<path class="st6" d="M554.4,214c-0.2,0,3.2,8.4,3.6,9.5c1.5,3.9,3.5,8.2,2.9,12.5c-6.3,1.8-5.2-3.8-6.4-7.4c-1.2-3.5-3.8-5.3-7-7
		c-1.4-0.8-3-1.6-4.3-2.1c-0.9-0.4-1-1.4-2.1-1.9c-0.9-0.4-1.8,0.9-2.9,0.4c-2.1-0.9-6.7-3.5-8.1-4.9c1.7-2.4,17.5-16.2,6.6-15.6
		c3.2-6.4,13.3-3,17.9-7.4c2.2-2.1,11.5-13.3,4.1-13.1c-6.3-8.5,1.5-13.4,8.4-17.3c7.4-4.2,14,1.1,21-1.6
		c7.1-2.8,11.7-10.3,15.4-16.5c2.1-3.5,5.3-5.6,7.6-8.9c2.4-3.4,3.3-7.6,5.4-11.1c1.2-2,3-3.2,4.1-5.4c0.6-1.3,0.5-4.4,1.6-5.4
		c3.8-3.5,7.1,1.1,10.3,1.8c1.1-5.5,8.8-11.1,12.1-4.9c2.4,4.4,0.4,9.5-3.8,11.9c-4.1,2.3-8.8,0.9-13.4,1.2c0.2,0.6,0.2,1.8,0.5,2.4
		c-3.5,1.1-5.9,4.4-6,8c-3.5,4.9-7.8,6.8-8.7,14c-2.8,0.6-3.2,1.9-2,4.6c-0.4,0.1-1.2,1-1.4,1.4c-0.2,0.2-0.7-0.5-1-0.5
		c0.1,9.4-14,8.1-15.6,16.6c-1.2-1.5-2.7-1.1-3.8-1.8c-1.7,2.1-4.3,2.5-6.7,3.8c-0.1-0.4-0.2-0.8-0.3-1.1c-2,1.2-4.9,1.9-7.1,1.8
		c-0.5-1-0.9-1.2-1.5-2c-1.4,0.6-3.4,1.4-4.5,2.2c-0.8,2.6-1.1,2.5,1.1,4c1.4,3.8-1.3,6,0.7,9.1c-0.3,0.2-1.6,0.8-1.8,0.9
		c0,2.6-0.5,3.5-1.4,5.4c-0.3,2.3,0.1,4,1.3,5.9c-1.2,1.6-2.4,2.9-4.7,3.4c-0.3,1.3-1.1,1.9-1.6,3.1c-2.3-1.5-5.4-1-7.2-0.3
		c-1.3,2-2.4,2.6-5.2,2.5c-0.4,0.4,0,1.3-0.2,1.8c-3,1-1.8,0.1-3.3,2.5c0.3,0,0.7-1,1.2-1c0.2,0.7-0.2,1.9,0.2,2.5
		c0.8-0.1,2.3,0,3.1,0.2C550.6,212.5,551.4,214,554.4,214z"/>
	<path class="st6" d="M688,196.4c-0.8,0-2.1-13-2.3-14.4c-0.7-4-0.5-6.7-5-8.7c-2.9-1.2-5.7,0.3-8.2-0.7c-6.1-2.5-4.5-11.2-8.5-14.2
		c-5.1-3.8-5.3,6.1-3.9,6.7c3,1.3,3.7,4.8,3.3,7.3c1.5,0.9,1.5,1.9,3.2,3c0,3.1,2.7,5.3-1,8.6c0.3-0.1,0.7-0.1,1,0.1
		c-0.8,1.6-0.8,3.5-1.8,5.1c3.2-0.3,8.3,0.4,10.6-2.1c-0.3-1.3,0.4-3,0.1-4.3c0.4-0.4,1.3,0,1.8-0.2c0.1-1.2,0.4-2.1,0.9-3.2
		c0.7,1.3,1.6,2.1,1.9,3.8c1.8,1.7,3.2,4.1,5.1,3.5c-1.8,4.8,0,11.4,1.3,16.4c0.4-0.8,0.7-1.5,1-2.4c1.4,5.2,7.6,7.2,7.9,13.2
		c0.6,0.1,1.9,0.1,2.4,0c1.4-8.1-5.3-11.5-8.7-17.8C688.4,195.9,688.5,196.5,688,196.4z"/>
	<path class="st6" d="M601.9,264.9c-2,2.1-3.6,5.7-6,5c0-0.5-1.2-5.1-1.9-4.4c0.8-0.8,0.9-1.8,0-2.6c1.4-0.7-0.1-1.6,0.3-2.8
		c0.3-0.8,1.7-1.7,2.3-2.3c-0.4,0.1-0.7,0.1-1.1,0.2c1.4-1.2,5.1-2.9,7-3.4c1.1-0.3,2.6,0,4-0.3c1.4-0.2,2.6-0.7,4-0.8
		c1.9-3.8,7-1.8,9.8-4.2c2.9,1.7,3.9-0.7,6.5-0.8c0-0.1,0-0.2-0.1-0.2c1.1,0.4,1.9,0,2.9,0c0.6,0,2.1,0.4,2.8,0.2
		c1-0.2,1.7-1.1,2.8-1.3c0.8-0.1,2.1,0.5,3,0.5c2.4,0,4-0.5,6.3-0.2c2,0.2,4.5,1.1,6.5,1.2c0-0.1,0-0.2-0.1-0.2
		c2,0.5,4.7,0.8,6.6-0.2c0.1,0.2,0,0.4,0.1,0.7c2,0.1,3.8-0.8,6-0.7c0.8,0,2.5,0.4,3,0.3c0.7-0.2,1-1.4,1.7-1.5
		c1.6-0.3,3.8,0.9,5.5,0.8c1.2-0.1,1.7-0.2,2.7-0.6c0.9-0.4,0.6-1.3,2-1.1c0.6,1.3,1.3,0.4,2.3,1c1.2,0.7,0.9,0.8,1.8,1.7
		c1.7,1.6,2.7,1.4,4.7,1.8c4.2,0.7,3.8,5.7,6.7,8.2c0-0.5,0.3-0.9,0.3-1.4c3.6,0.5,4.7,4.5,6.9,6.9c-0.4-0.5-0.6-1.2-0.8-1.7
		c1.8,0.4,2.8,5,2.7,6.8c-0.4,4.4-3.4,8.9-7.6,7.3c-3.6-1.4-5.5-6.9-8.2-9.5c-2.6-2.6-5.3-4.5-8.4-6.1c-3.7-1.9-6.4-1.7-10.1-2.8
		c-6.2-1.9-11.9-5.9-18.3-7.3c-11.1-2.4-22.4,1.7-32.4,6.2c-4.8,2.2-10.5,4.2-14.9,7.2C602.6,264.2,602.2,264.6,601.9,264.9z"/>
	<path class="st6" d="M683.6,293.7c0.2,0.8,2,2.5,2.7,2.4c1.2-0.1,2-2.1,2.6-3.1c0.8-1.2,1.6-2.5,2.8-3.4c0.2-0.2,3.3-1.6,3.2-1.2
		c0.6-3.1,5.5-8.9,8.4-9.3c3.2,6.4-0.1,16.4-0.4,22.9c-0.3,5.8-0.3,16.8-8.8,15.9c1.1-2,3-3.9,3.3-6.3c-2-0.9,0.1-4.5-1.3-6.4
		c-0.3-0.1-0.5,0-0.8-0.1c0.3-1.4,0-3,0.6-4.3c-0.2-0.5-0.8-1.5-1.1-2c-0.9,0.1-1.5-0.4-2.2-0.4c-0.1-0.3,0-0.6-0.1-0.9
		c-2.3,0.1-1.6,2.2-2.9,3.4c-1.2,1.2-2.7,1.3-4,2.7c-1.2,1.2-0.4,2.5-3.1,3.3c-1.6,0.4-4.8,0.6-6.6,0.3c0.4-0.8,1.4-1.6,2.3-1.9
		c-1.8-1.5-4.8-2.4-7-3.4c0.2-0.2,0.4-0.6,0.6-0.9c-1.6-0.3-2.9,0.5-4.3,0.3c-1-0.2-2.3-1.3-3.2-1.7c2.9-0.9,9.6,0.1,10.5-3.9
		c-1.3-1-0.8-2.8-2.6-3.8c0.2-0.2,0.4-0.7,0.6-0.9c-1.9-2.8-8.9,0-11.7-0.4c-0.2-0.7-0.1-0.3-0.3-0.6c1.6-0.1,3.6-0.2,3.8-1.9
		c-0.3-0.1-0.6-0.2-0.9-0.4c-1.3,1.1-2.8,1.8-4.4,1.9c2.3-1.4,2.8-3.7,4.6-5.5c-0.7,0-1.1-0.4-1.6-0.5c0.2-0.5,0.2-0.7,0.2-1.2
		c-4.3-1.1-17.9-0.9-21.8,1.3c-1.7,0.9-0.6,3.3-3,3.5c-0.5,0.1-3.8-3-5.4-3.1c2.1-3.3,2.7-5.4,6.9-5.9c3.4-0.4,7.8-0.6,11.1-0.9
		c6.2-0.6,15.2-2,20.3,1.5c-0.6,0.6-0.4,1-1.3,1.5c-0.1-0.1-0.1,1.5,0,1.3c0.7,0,1.6,0.2,2.3,0.1c-1.2,0-0.1,3.2,0.1,3.6
		c0.8,1.4,2.8,2.5,4.2,3c2.1,0.7,8.5-1.2,8.1,2.8C684.2,291.9,683.5,292.7,683.6,293.7C683.6,293.6,683.6,293.7,683.6,293.7z"/>
	<path class="st6" d="M634.5,526.5c-3.4,0.3-8,0.1-10.4,3.1c-1.8,2.3-1.9,8.5-7,4.8c-1.8-1.3-3-7.8-3.6-9.9c-1.6-5.3-2.6-5.9-8-6.5
		c-8-0.9-15.4,1.1-23,3.1c-3.9,1-7.4,2.6-11.5,3.4c-2.9,0.6-7.1,2.7-10,2.5c-9.2-0.7-9.4-10.6-16-14.4c-7.5-4.3-12.6-2.9-17.9-10.3
		c-4.4-6.1-5.7-12.3-10.5-18c-9.2-11-20.4-19.3-25-33c-2-6-5.9-12.5-9.7-17.4c-2.5-3.1-4-4.9-7.9-6c-9.8-2.7-6.5,9.1-6.1,14.1
		c0.3,4.2-1.1,7.5-1.4,11.4c-0.4,4.4-1,5-3.1,8.9c-3,5.6,0.8,5,3,9.6c1.3,2.7,0.6,8.1,2.1,11.5c2,4.6,3,5.7,1.9,10.9
		c-1.3,6.1-0.8,16.7,6.5,19.2c1.3,4.2,2,6.6,5.1,10c1.9,2.1,3.1,4.6,5.2,6.4c2.1-2.7-2.1-8-4.7-9.6c0.6-2.1,0.8-4.5-0.5-6.4
		c1.9-1.7,0.7-5.6-1.1-7.5c2.1-2.2,3.4-4.8,1.6-7.4c0.3-0.1,0.6-0.1,0.8-0.2c-0.2-0.7-0.2-2.1-0.4-2.8c0.3,0,0.5,0,0.7,0
		c-0.4-1-0.7-2-0.7-3.1c0-0.3,0-0.5,0-0.6c-0.1-0.1-0.1-0.2-0.1-0.2c-0.2-0.2-0.3-0.4-0.5-0.5c-2.7-2.8-2.9-6.6-1.2-9.6
		c-0.1-0.4-0.1-0.7-0.2-1.1c-0.5-4.1,4.1-8.2,8-8c6.2,0.4,10.4,4.1,14.6,8.3c1.9,1.9,2.6,4.4,2.2,6.8c1.2,0.6,2.4,1.1,3.3,1.8
		c-0.3,0.5-0.7,1.1-1,1.4c0.2-0.1,0.7-0.2,0.9-0.5c-1.3,3.5,0.5,5.9,3,8.5c-6.8,3.4,2.6,6.8,5.5,6.2c0.1,1.9,0,3.9,0.2,5.9
		c0.5,0.1,0.9,0,1.4,0.2c-0.4,0.3-1.2,1.6-2,1.9c2.2,0.6,4.5,2.3,4.5,4.9c-0.5,0.1-0.9,0-1.4,0.2c1.4,3.5,4.1,1.5,6.6,2.8
		c2.5,1.4,2.7,2.8,3.8,5c-0.5,0.2-0.9,0-1.4,0.2c0.2,3.8,5.5,5.5,8.9,7.4c1.1,0.2,2.1,0.6,3.1,1.2c1.8,1.1,3,2.6,3.8,4.4
		c3.8,2.5,5.4,6.4,5.4,10.6c1.4,0.5,2.6,1.3,3.3,2.7c0.4,0.8,0.5,1.6,0.5,2.4c4.1,1,8.4,2.1,12.5,1.8c0.4-0.9,0.9-1.9,1.7-2.7
		c0.1-0.1,0.2-0.2,0.3-0.3c-0.3-0.7-0.6-1.5-0.6-2.4c0.6-0.2,1.9-0.1,3.5,0c9-6.4,23-7.1,31.1-1.2c0.6,0.1,0.9,0.4,1,0.8
		c1.6,1.4,2.9,3,3.8,5c0,0,0-0.1,0-0.1c3.5,1.7,5.7-0.1,9.3-1c-0.1,0,2.8,3.9,4.3,3.9c1.7,0,1.4-1.2,2.9-0.2
		c0.9,0.6,1.6,2.5,1.7,3.5c0,0.4,0,0.8,0.2,1.2c0.1,0.3,0.4,0.6,0.6,0.9c2,2.4,2.2,6.1,0.7,8.8c-0.8,1.3-1.9,2.5-1.9,4
		c0,0.7,0.3,1.3,0.6,2c1,2.4,1.9,3.1,0.3,4.9c-1.2,1.4-3.4,1.9-4.8,3.3c-1.9,1.9-3.6,2.7-4.8,5.7c-0.6,1.6-0.8,3.6-1.1,5.5
		c0.2,0.8,0.1,1.6-0.2,2.6c-1.2,3.2-3.1,5.9-3.5,9.4c-0.3,3.4,0.1,6.8-0.8,10.1c-1.7,6.1-6.2,11.5-11.4,14.9
		c-5.3,3.4-12.3,4.9-18.3,2.5c-3.1-1.2-4.6-3.7-7.1-5.6c-2.2-1.7-4.9-2.2-6.8-4.4c-0.8-0.9-1.1-1.9-1.2-2.9
		c-4.1-2.3-8.2-5.1-10.6-8.6c-1.7-2.6-2.5-5.8-4.7-8.1c-2.7-2.8-5.8-4.4-8-7.6c-0.3-0.5-0.6-1-0.7-1.4c-1.5-0.7-2.9-1.5-3.9-2.9
		c-2.2-3-0.1-5.8-3.2-8.3c-2.4-1.9-7.5-0.5-10-3c-1.3-1.3,0-2.9-1.7-4.3c-1.4-1.1-3.9-0.3-5.5-1.5c-2.5-2-2.8-5.5-5.2-7.8
		c-5.4-4.9-10.6-7.8-15.3-13.2c-0.4-0.5-0.8-1.6-1.1-2.2c0,7.2,6.9,11.9,10.7,17.2c3.7,5.2,5.8,11.6,11.2,15.2
		c4.5,3.1,8.7,6.6,12.9,10c3.9,3.2,4.9,6.4,7.5,10.6c1.7,2.7,2.7,5.9,4,8.8c9.5,21.7,43.1,46.8,67.2,34.1c9-4.8,17.8-14.1,20.4-24.1
		c2.1-7.7,3.2-15.5-0.4-23c-2.2-4.5-2.8-5.6,0.1-10c2.4-3.6,6.7-6.3,8-10.5c1.5-4.7-0.5-9.5-0.6-14c-0.2-5,3-8.6,5-12.7
		c2.6-5.2,4.1-11.5,4.5-17.3C647.2,529.8,645.7,525.4,634.5,526.5z M548.3,614.2c0.4,0.8,0.7,1.6,0.9,2.4
		C549,615.7,548.6,614.9,548.3,614.2z M550,622.7c1.2,1.9,2.4,3.6,3.1,5.1C551.9,626.1,550.9,624.5,550,622.7z"/>
	<path class="st6" d="M538.5,411c-2.4-0.1-16.5-3.9-16.5-2c-0.1,3,4.8,3.1,6.5,3.5c6.3,1.3,12.7,0.4,19,0.8c6.8,0.5,13.3,2.3,20,3.7
		c7.7,1.7,11.1,5,19,2.5c7.8-2.4,11.8-1.2,19.6,0.9c13,3.4,21,3,25.8-10.8c0.2-0.6-8.3,5.1-8.5,5.1c-9.8,3.4-19.4-4.6-28.9-4.7
		c-3.5,0-7.9,0.5-11,1.5c-3.8,1.1-8.9,5.4-12.3,1.3c0.3,0.6,0.7,1.2,1.1,1.8c-2.5,0.9-7.7-2.7-10.8-3c-3.9-0.4-8-1.5-11.5-1.5
		C546.1,410,542.7,411.2,538.5,411z"/>
	<path class="st6" d="M575.4,409.3c-2.9-1-5.6-2.3-8.6-3c-2.9-0.7-6.5-0.2-9.2-1.5c2-2.9,7.7-1.2,10.4-0.9c2.4,0.3,6.1,0.2,9,0
		c2.9-0.1,5.9-1.7,8.6-1.9c3.1-0.2,5.5,1.2,8.4,1.9c5.5,1.3,12.4,0.7,18.5,0.4c4.9-0.2,14.2-3.4,17.8,0.9
		c-1.1-1.3-16.8,4.8-19.6,5.1c-6.7,0.7-13.5-0.6-20.2,0.1c-4.5,0.4-8.7,0.7-13-0.5C576.8,409.8,576.1,409.6,575.4,409.3z"/>
	<path class="st6" d="M542,358.5c1-2.6-2.7-2.4-4.8-1.6c0.4,0.5,0.8,0.8,1.2,1.3c-0.5,0.6-1.2,1.3-1.9,2c0,0.3,0.5,0.5,0.4,0.8
		c0,0.2-0.9,0.9-1,1.1c0.3,0.7,0.6,0.2,1,0.6c-0.7,0.5-1.4,1.9-2.3,2.4c0.1,0.1,1.8,0.9,1.9,1c0.1,0.6-0.9,0.7-0.9,1
		c0.6,0.1,1.2,0,1.8,0.1c-0.2,0.3-0.6,1.6-0.7,2.1c3.7,0.4,7.3,2.1,11.3,2.9c1.8,0.4,4.7-0.8,5.9,1.1c1.3,2-0.1,3.8-2.3,4.5
		c0.3,2.2,0.6,4.9-0.6,7.3c-1.6,0.4-2.4,1.5-3.9,2.2c0.2,2.1-2.9,2.9-4.8,3.9c0.2,0.3,0.6,0.5,0.7,0.9c-1.3,0.6-2.5,1.6-3.8,2.1
		c4.8-0.8,12.8-6.4,16.2-2.1c-0.7-0.9,6.4-1.9,7.1-1.8c2.7,0.4,4.9,2.3,7.3,3.2c5.4,2.1,10.3,2.5,16.1,1.8c-0.2,0.5-0.5,1-0.8,1.4
		c2.8-1.3,6.2-3.7,9.1-3.9c-0.1-0.4-0.5-0.8-0.6-1.2c2.6,1.2,5.1,3.3,7.7,4.1c-0.1,0.5-0.3,0.8-0.4,1.3c3.5,0.6,7.3-3.2,10.3-4.5
		c0.6-0.2,0.4-2.1,1.1-2.3c1.3-0.3,1.9,0.9,2.6,0.8c2-0.1,3.6,1.2,5.5,0.1c-0.1-0.1-0.9-0.5-1-0.6c-0.1-1.2-0.1-0.9-0.9-1.5
		c0,0,0.8-0.7,0.9-0.9c-0.3-0.5-0.8-0.9-1-1.4c0.6-0.3,1.2-0.4,1.9-0.7c0.2-0.6-0.1-1,0.4-1.5c-1.5,1.3-2.7,1.3-4.2,0.5
		c0.6-0.8,0.7-2,1.4-2.8c-0.6-0.1-1.3-0.2-1.9-0.2c0-0.7,0.3-1.5,0.5-2.3c5.8-1.5,1.2-6,1.3-9.5c-0.7-0.3-1.3-0.5-2-0.4
		c-1.3,5-5.1,15.5-11.8,14.4c-0.6,3.8-5.1,4.3-8.1,4.4c-3.4,0.1-4.5-0.2-8,1.5c-4.6,2.1-17.4,5.1-19.6-1.9c-1.8-0.4-3.5-0.6-5.4-0.7
		c-0.1-0.3,0.3-0.9,0.3-1c-1.8,0.2-3.2-0.1-4.8-0.6c0.6-0.3,1.3-1.4,1.9-1.8c-0.7-0.1-1.5-0.6-2.4-0.7c1.2-1.1,3.2-1.9,4.4-2.8
		c-0.4,0-1,0-1.3-0.1c5.6-1.6,2-4.8,5.5-7.5c-0.2,0.2-1.9,0.6-2.6,0.9c-0.1-0.3-0.1-0.6-0.2-0.8c-6.7-1.3-5.5,9.6-11.4,9.3
		c1.4-3,4.9-7.2,4.9-10.3c-3.5-1.3-4.4-2.7-8.4-3.6c-3.8-0.8-5.9-2.2-9.3-3.6c0.9-1.5,1.8-2.4,3.3-3.5c0.3-0.7-0.4-0.7-0.4-1.3
		c1.7-0.8,1.8-2.3,0.9-4c-1.1-0.6-2.6-0.8-3.8-0.5c0,0.8-0.4,1.2-0.6,1.9"/>
	<path class="st6" d="M547.5,217c1.2,0.5,2.8,0.9,4.2,0.6c-0.1-0.1-0.1-0.5-0.2-0.7l-5.6-2.8C547,214.9,548,214.9,547.5,217z"/>
	<path class="st6" d="M574,248.3c-3.2,3.4-9.4,2.7-13,0.3c-2.9-1.9-4.5-7.8,0.4-9.1c0.7-2,1.4-4.3,1.6-6.4c-2.9-1.5-3.1-6-4.3-8.6
		c-1.6-3.3-3.5-3.9-5.4-6.7l-0.5-0.2c1.6,1.8,2.6,5.6,3.2,7.5c0.3,0.1,0.6,0.1,0.8,0.2c-1.7,3.3,1.8,4,2.6,6.4
		c0.7,2.2-0.9,5.5-2.4,7.1c-4.2,4.6-10.4,4.3-15.6,2.1c-4.8,1.5-13-2-18.5-2.2c-6.4-0.3-11.1-0.8-16.9,1.1c-0.4,0.9-0.7,2.4-0.5,3.4
		c5.9-0.1,12,0.5,17.9,0.6c4.7,0.1,11.9-1.7,15.6,1.9c5.4,0.5,9.2,1,12.5,5c1.7,0.3,3.5-0.3,4.8-1.4c0,3.7,4.9,3.6,7.5,3
		c0.9,1.8,2.8,1.8,4.5,1c0.3,6.1-5.8,8.2-6.4,13c-0.3,2,2.7,3.6,1.4,6.9c-0.9,2.3-3.6,4.4-4.9,6.5c1,0.5,1.3,1.6,2,2.1
		c-0.8,0.6-0.9,1.2-2,1.6c-1.9,7.4-6.2,13.9-8.1,21.4c-0.9,3.3-0.7,7.1-1.4,10.6c1.3,0,2.7,0.3,4,1c0.2,0.1,0.4,0.2,0.6,0.4
		c0.9-3,1-14.2,7.2-12.4c0.4,0.8,1.1,1.2,1.5,1.9c2.5-6.7-1.2-14.3,1.1-21.5c1.3-4,9.5-14,4.6-17.6c2.9-3.1,1.6-6.1,2.4-9.4
		C571.2,254.5,573,251.4,574,248.3z"/>
</g>
<g id="linework-face-outline">
	<path class="st8" d="M436.3,280.9c4.6,1.6,0.1,11.6,0.5,15.5c0.6,5.1,2.3,10.1,3.5,15c2.7,10.8,2.1,22.2,4.3,33
		c2.1,10.5,4.5,20.8,6.4,31.4c1.9,10.5,6.2,21,11.3,30.4c4.8,9,9.9,18.2,16.2,26.2c6.6,8.4,13.4,16.6,20.4,24.7
		c6.8,7.9,12.9,17.1,20.3,24.4c6.8,6.7,15.4,11,24.2,14.3c18.7,7,39.7,9.8,59,3c5.3-1.9,14-3.9,17.1-9l-0.9,0.5
		c7.9-4,15.1-9.2,21.3-15.4c6.5-6.6,11.9-14.2,18-21.1c6-6.8,12.8-12.1,16.5-20.6c6.1-14.2,18.2-26.1,20.6-41.8
		c1-6.6,2.1-11.8,4.1-18c1.9-6.1,3.3-12.9,5.8-18.5c2.4-5.6,7.1-10.2,6.1-17"/>
</g>
<g id="linework-hairlines-left">
	<path class="st8" d="M593.4,111.5c-6.2,9.6-19.9,11.7-30,16.2c-14.1,6.1-14.9,9.1-21,21.3c-5.5,11.1-11.8,17.8-24,23.6
		c-13.1,6.3-14.3,8.4-22.4,18.4c-12.5,15.2-49.1,7.5-59.6,27.4c-11.1,21,50.9,32.4,22,43.1c-14.9,5.5-38.8-16.2-52.8,4.1
		c-7.1,10.4,4.5,14,0.1,24.1c-4.7,11-21.2,2.9-8.8,18.3c11.1,13.8,39.6,1.8,39,28.5c-0.2,10.4-10.7,16.1-13.5,25.5
		c-3.5,11.7,0.6,11.6,6.8,21.1c13.4-8.2,23.2,9.1,19.1,20.9c-5.9,16.9-35.1,15.7-31.6-4.3c5.3-1.8,7.5-2.6,11.5,0.9
		c-14,4-15.3,21.2,1.7,22.5c9.4,0.8,25.4-21.2,30,0.3c2.8,13.1-16.2,16.5-18.1,30c-0.9,7,5.5,12.5,3.1,19.5
		c-2.6,7.7-12.5,9.9-18.1,15"/>
	<path class="st8" d="M594.9,87.5c-7.4,2-11.3,4.1-18,9c-4.8,3.5-7.9,12.3-16.5,11.7c-20.1-1.6-9.6-31,1.2-16.3
		c-0.2-11.8-17.6-7.9-21.9,0.4c-6.9,13.5,9.7,17.1-4.9,28.6c-9.8,7.7-22.3,3.8-33,8.3c-15,6.2-6.5,14.6-11.9,25.9
		c-11.5,24.3-45,3.2-16.2-16.2c7.1-4.8,29.5-15.3,21-27.8c-6.8-9.9-24.1,3.1-30.8,7.5c-18.1,11.8-66.1,58.1-49.4,81.2
		c-0.7-19.6,11.5-39.2,30-44.7c3.6,16.5-12,14.5-15.9,25.6c-3.7,10.5,9.7,14.4-4.7,24.1c-14.3,9.6-15.3,0.2-18,19
		c-2.6,18.2-4.2,12.9-21,18c-19.5,5.9-12.1,10.2-7.1,24c4.7,13.1-0.7,18.7-4.5,30.4c-3.9,11.9-3.8,18.4,4.5,28.1
		c5.5,6.4,21.5,12.4,24,21c5.9,20.2-29.2,21.7-22.8,6.6c-1.6,14.8,5.3,26.7,20.9,20.3c5,4.3,15,12.8,6.3,16.9
		c-0.6,2.6-1,4.8-1.8,7.2"/>
	<path class="st8" d="M593.4,71c-25.8-3.3,9.9,27,10.5,34.5c0.7,8.8-4.2,19-15.1,14.7c-10.6-4.1-7-17.1-9-25.2
		c-7.9-32.9-39-2.9-56.6-24.3c-14.9-18.2,15.1-30.3,29.4-29.4c0.6,0.7,1,1.6,1.2,2.5c-35.6-1-27.6,49,2,31.8"/>
	<path class="st8" d="M608.4,69.5c-11.5-8.6-23.6-3.5-27,7.5c-1.8,5.8,3.4,9.2-1.1,15.3c-3.7,5.1-12.7,4.8-18.4,6
		c-11.1,2.3-23.2,3.9-32.6-3.7c-7-5.6-9-21.9-22.9-14.3c-10.9,6-2.2,22.2-15,26.7c-16,5.6-13.5-13.4-13.5-22.6
		c0.1-35.1-40,0.6-31.5,15.1"/>
</g>
<g id="linework-hairlines-right">
	<path class="st8" d="M596.4,101c-10.3,6.9-15.3,34.6,5.6,19.1c8.6-6.4,18-42.1,34.7-25.5c-2.8,1.1-5.2,3.6-7.2,4.6
		c12.8,2.6,24.2-11.3,35.9-4.2c14.7,8.9-2.4,18.8-3.4,29.6c-1,10.5,6.8,26.4,18.3,30.4c16.7,5.6,23.8-14.3,9.4-19.3
		c-1.7,3.6-3.5,6-3,10.2c-0.4-10,7.4-10.8,13.2-2.9c9,12.1-4.3,12.8-6.1,18.3c-6,19.3,14.5,15.8,27,23.4c12.7,7.7,23.9,25.1,15,39.3
		c-9.9,16-32.2-5.1-19.7-13.3c-11.8,3.3-8.1,19.9-1.3,26.7c4.4,4.4,8.5,5.8,15,6c6.3,0.2,14.6-7.2,15.3-7.2
		c6.4-0.1,18.7,12.1,19.5,22.2c1,12.4-10.6,17.5-20.2,23.7c-8.4,5.4-20.4,13.4-15.9,25.5c5.7,15.1,20.1,3.5,28.6,10.4
		c13,10.6-3.1,21.2-5.3,28.6c-3,10,3.7,22.7,17.2,15.8c1.6-0.8,3-2.1,4.2-3.4"/>
	<path class="st8" d="M591.9,89c3.5-3.9,10.1-9.2,16.1-10.8c10.7-2.9,9,1.8,18.3,3c16.2,2.1,23.1-10,32.8-20.3
		c-0.5-1.3-3.6-6.5-4.5-7.6c-3.8-0.1-7.5-0.8-11.1,0.8c5.5-0.2,21.7-1,21.9,7.9c0.2,8.1-5.7,4.4-8.7,9.5
		c-7.3,12.2-4.9,13.7,10.5,10.4c12.1-2.6,15.3-7.2,26.6,1.2c6.4,4.7,16.9,18.6,1.8,21.3c0.6,15.1,26.3,11.9,35.4,18
		c17.2,11.5,8.9,41.1-5.7,23.6c-9.5,9.1,1,14.6,6,20c4.6,5,5.6,0.2,9,7.2c1.9,3.9,1.7,8.7,1.3,13.3c-8.5-2.1-24.4-13.2-19.1-23.2
		c-23.1,30.6,38.3,36.3,25.2,15c4.2,7.9,4.5,16,7.7,23.4c2.9,6.9,11.8,13.9,11.7,22.2c-12.4,6.5,13.9,10.3,5.2,22.8
		c-8.3,11.9-11.9-13.1-9.7-18c-1.8,10.8,8.4,40.7,24.1,28.9c-5.3,9.9-2.5,31.2-17.6,28.2c1.6,4.2,5.3,8,10.1,10.6
		c-9.2,12.9-22.5,9-20.4,25.1c1.1,8,8.5,9.7,3.8,17.7c-4,6.8-13,3.5-16.5,5.2c-15.4,7.6-6.1,12.4-10.5,26.7
		c-3.5,11.3-23.7,19.9-20.4,1.7c11.9,3.5,3.5,10.2,2.4,17.4c-1.3,8.2,0.5,17.4-1.1,25.9c-5.2,27-36,7.1-18.2-2.8
		c-4.9,4.3-9.8,11.3-5.4,17.4c6.4,8.9,15.4-1,21.7,0c16.6,2.7-10.7,25.1,9.4,36.4"/>
	<path class="st8" d="M590.4,66.5c-3.5-5.3-5.4-12.4-10.5-16.6c-19.6,31.6-40-23.2-25.3-26.9c-12.6,1.1-10.8,18.3-6.5,25.9
		c4.9,8.9,15.9,8,19.7,17.4c-15,2.6-22.3-10-27.2-22c-9,9.8-12.4,26.8-28.1,28.3c-18.6,1.8-30.8-16-15-28.5"/>
</g>
<g id="linework-hair-leftbang">
	<path class="st8" d="M636.5,110.4c0.7-0.3,1.6,0.9,2.7-0.9c-2.3,0.4-3.6,2.1-5.5,3.1c0.6,1.9-0.3,3.2-0.1,4.6
		c-4.3-0.6-10.1-3.7-11.9,0.9c0.6,0.1,1.1,0.3,1.7,0.4c-0.3,3.7-1.8,6.9-4.7,9.1c-0.2,0.8,0.9,1.5,0.8,2.6c-1.1-0.3-2.5-0.3-3.6-0.7
		c-2.4,4.7-3.2,9.4-8.1,13.1c-0.2,0.8,1,0.7,0.7,1.5c-3,2-3.3,4.4-4.7,7c0.4,0.6,1.3,1.5,1.7,2c-3.1,3.6-8.1,5.6-12.6,4.4
		c-1.3,2.2-3.2,2.6-4.5,4.7c-2.1,0-7.4,2.6-9.7,2.2c-4.2-0.7-5.2-5-9.9-5.3c-0.4-0.4-0.3-0.4,0.1-0.1c0.6,1.1,1.1,2.4,1.7,3.3
		c-1.9,0.7-2.6,1.7-4.8,2.2c1.1,4.6-2.1,9.8-1.9,15.8c0.2,6.5,3.3,10.5-2,15.9c0.5-3.3-0.2-3.7-1.2-7c0-0.7,0.1-0.7,0.1,0
		c-2.8,2.8-5.9,5.6-5.2,8.9c-4.6-0.5-12.2-8.3-14.8,0c4.5,0.7,3.2,1.2,5.8,4c-4.6,0.4-8.2,2.8-7.1,6.9c-3.3,3.7-8,4.8-10.9,8.2
		c-4,4.7-0.5,8.9-9.8,10.2c0.5,8-9.2,9.5-13.9,14.1c-5.4,5.3-7.6,12.4-7.2,20.7c0.6,13.4,5.7,32.9-12.8,36.2
		c-0.5,15.8-28.7,18.2-38.4,16.1c-7-1.5-14.3-2.8-18.5-9.5c-5.2-8.4,1.5-15,0.5-23.5c-3.7-0.1-4.6-0.6-5.8,1.9
		c1.5-6.6,6.8-5.8,9.8-0.9c3,5-1.6,11.6,2.8,16.9c-0.3,0.1-1.5-1.5-1.6-1.7c0.9,2.9,1.4,3.6,2.9,5.5c0.5-0.2-0.9-1.6-1-1.5
		c0.6,1.3,1.4,2.1,2.2,3.3c-0.3-0.3-0.6-0.6-0.9-0.9c-0.4-0.4-0.4-0.4-0.1,0c0.8,0.3,1.8,0.4,2.7,0.4c0.1,0.6,0.2,1.1,0.3,1.7
		c0.8,0.4,1.7-0.1,2.5,0.2c-0.4,0-0.9,0-1.3,0c1,0.3,1.3-0.5,0.8,0.8c3.8-0.6,10.6-1.5,14.4-2.7c-0.3,0.6-0.4,1.1-0.4,1.8
		c0.7-0.3,1.2-1,1.8-0.3c1.5-1.3,3.6-2.8,4.8-4.1c-0.7,1.4,1.4-1.1,0.5-0.3c-0.7,0.6-1.3,1.3-1.9,1.9c0.7-0.4,3.3-2.2,2.9-1.9
		c-0.5,0.5-0.8,1-0.9,1.7c0.5,0.4,1,0.3,1.5-0.1c0.4-0.4,0.4-0.4-0.1,0c-0.7,1,0.4-1.2,0,0c0.1-0.2,3.5-3.6,3.6-3.6
		c-0.2,0.6-0.4,1.1-0.6,1.7c-0.8,0.9,1.1-1.3,1.2-1.2c0.1-0.4-0.9-0.4-0.7-0.4c0.5-1.4,0.5-1.7,0.6-3.2c-10.7,3.6-26-6-32.8,7.6
		c1.5-12,18.1-14.9,27.8-11.8c4.8-4.4,2.2-8.7-3.7-5.8c-0.7-1-1.5-1.6-2.2-2.9c-2.4,0.3-4.7-0.6-6.9,0.4c-1.5-2-3.1-5.2-4.1-8.4
		c-3.9,0.9-4.7,1.1-7.1-2.1c-1.4,2.1-3.5,5.1-4.8,7.9"/>
</g>
<g id="linework-hair-rightbang">
	<path class="st8" d="M636.5,108.4c14.8-1.9,0.8,13.3,1.1,17.6c3-0.7,5.8-1.7,8.7-2.8c0.3-1,0.1-1.8,0.4-2.8
		c2.2,2.6,3.1,2.8,3.9,6.8c1.9,0.1,2.9,1.1,4.7,1.3c1.4,6.8,5.4,15.4,3.9,21.6c-1.4,5.8-13,16,1,18.9c-3.7-2.2-4.7-6.4-3.5-10.4
		c11.7-6.8,11.6,18.6,14.9,23.5c-0.5-2.8,0.8-4.1,1.1-6.5c16.2-7.5,12.6,14,14.9,20.5c0.6-1.8,0.8-1.5,1.8-2.6
		c0.7,6.4,6.5,7.4,8.2,12.9c1.6,5.4-0.2,13.3,0.7,19.3c1,6.4,3.4,12-4.7,14.8c-5.8,2-13.8-1.5-12.8-7.9c1.2-0.4,2.3-0.1,3.5-0.2
		c-1.4-0.2-3.2-0.2-4.5,0.2c-5.4,9.4,11.4,15.4,17.1,9c8.5,2.9,4,11,4.5,17.1c0.5,6.6,6.4,12.8-2.9,17.7c8.1,5.2,2.8,9.2,3.1,16
		c0.3,7,3.9,10,1.3,17.2c-1.8,5.1-5.9,10.2-11,12c-4.8,1.7-13.7,0.6-8.6-6.3c-15,10.6,12.2,8.9,17.4,7c2,2.6-0.1,5.7,0.9,7.1
		c1.2,1.7,5.9,3.4,6.4,4.7c2.3,6.4-1.8,11.7-2.1,17.5c-0.7,14.7,16.3,16,27.8,10.8c9.6-4.3,20.5-21.2,13.7-31.8
		c-3.4-5.3-10.7-7.1-15-2.5c-4.7,5.1-0.1,12.6,5.1,7.4c-1.5,0.3-1.9,0.8-3.7,0.7c-0.3-1.6,0.1-3.1,0-4.7c6.2-4.2,13-1.7,14.6,5
		c1.4,5.8-3.9,13.4-7.5,17.8c-6.3,7.6-32.1,18.8-32.2,2"/>
</g>
<g id="linework-hair-left_1_">
	<path class="st8" d="M451.4,446.1c-4.9,4.1-17.9,10.6-15.1,18.6c1.4,3.8,4,6,3.1,10.4c-0.6,3-2.7,7.5,1.5,9
		c-6.4,0-3.9-7.9-6.4-11.3c-2.1-2.9-5.8-1-7.8,1.1c-3.5,3.5-3.6,8-3,12.6c1,8.2,0.9,15.4-5.6,21.3c-5.9,5.4-14,7.9-19.3,14.1
		c-10.8,12.5-0.9,30.9,14.7,32c7.5,0.5,15.2-3.9,17.2-11.4c1.8-6.8-1.5-13.8-7.7-17c-2.4-1.3-5.7-2.1-7.6,0.5
		c-2.4,3.5-0.5,9.3,3.8,10.1c-6.1-0.3-9.8-7.5-7-12.9c3.9-7.5,14.7-4.6,19.4,0.2c10.9,11,4.3,31.7-6.9,39.8
		c-12,8.7-34.6,6.8-43.4-5.8c-10.2-14.6,7.5-31.9,9.4-46.4c0.6-4.9,0.4-9.8,1.7-14.6c1.2-4.4,3.6-8.6,4.1-13.2
		c0.3-3.1-1.1-9.9-5.7-8.3c-4.5,1.6-3.2,8.3-3.8,11.8c-1,6.1-8.4,13.8-15.2,10.9c-7.3-3.1-1.6-16.9,4.4-11.4c-4.2-3-5.1,2.6-3.7,5.5
		c2.1,4.5,8.3,6.3,11.7,2.2c3.8-4.8-0.4-7.6-2.1-11.9c-2.2-5.7,3.1-9.5,6.2-13.5c-13.7,1.2-6.3-17.7-4.8-24.7
		c0.8-3.5,1.7-8.2-1-11.1c-2.9-3-7.8-1.7-10.2,1.2c-4,4.9-0.6,14,6.5,12.1c6-1.6,11.6-11,6.6-16.3c5.9,6-0.4,15.5-6.9,18
		c-8.3,3.1-14-4.6-10.9-12.2c2.8-6.7,11.1-13.7,6.3-21.6c-4.2-7-13.5-2.7-17.4,2.2c-5.5,6.9-6.7,16.8-6.1,25.3
		c0-7.7-0.5-15.7,2.3-23c2.6-6.8,8.1-12.1,10.6-19c-3.1,3-8.2,5.4-12.5,3.8c-3.9-1.5-4-5.9-1.5-8.8c1.3,2.5-2.5,1.2,0,0
		c0.9,2.5,4.6,6.7,7.6,4.7c3-2-1.3-4.6-2-6.7c-1.3-4.3,4-2.9,6.2-1.8c3.4,1.8,7.1,5.4,11.3,4.3c2.6-0.7,4.1-3.2,2.6-5.6
		c-2.2-3.6-8.4-4.5-12.1-5.2c-6.5-1.3-18.7-3.9-13.3-13.3c-3.7,8.6,10.8,14,16.9,10.3c6.1-3.8-0.7-9.1-3.2-12.6
		c-3.1-4.2-3.9-11.2,1.1-14.4c-2.7-0.5,0.5,3.7,1.4,4.3c3.5,2.4,7.7-1,9-4.2c2.5-6-2-13.8-9-11.2c-9.1,3.4-12.7,33.2-26.1,21.6
		c5.1,2.5,11.8,0.4,14.9-4.2c4.1-5.9,0.4-13.2,2-19.7c-1.6,0.7-3.3,1-4.9,1.5c5.3-5.1,0.2-13.1-5.1-15.7c-2.8,6.5,3.3,11.2,6.1,16.3
		c2.9,5.4-0.9,11.2-6.4,12.7c-4.8,1.3-10.8,0.4-13.6-4.1c-2.9-4.8-2.2-11.9,1.7-15.9c-2.1,0.4-4.5,0.8-6.5,1.6
		c2-0.1,4.8-0.5,6.5-1.6c-10.5,2.1-1.6,15.7,4.3,17.9c4.8,1.7,8.4-2.2,9.1-6.8c1.2-8.1-8.7-11.3-11.6-17.6c-4-8.9,7.8-16.6,4-25.5
		c-1.5,0.8-4.4,2.2-5.9,0.8c-1.6-1.6,0.9-6,1.9-7.6c2.9-4.7,9.7-3.1,14.5-3.8c4.8-0.7,10.3-2.1,13.5-6c3.6-4.4,2.4-12.2,1.8-17.4
		c0.8,2.7,2,5.3,2.1,8.1c-1.4-2.4-1.9-5.3-2.1-8.1c4.2,13.7-10,23.9-22.5,19.6c-6-2-12.6-7.8-11.1-14.8c1.3-6.2,9.3-6.1,10.8,0
		c-1.7-1.8-4.4-2-6.7-2.7c-1.4,7.4,5.4,15.8,13.2,13.5c8.5-2.5,4.6-12.2,2-17.7c-2.2-4.6-4.5-9.1-6.2-13.9
		c-1.3-3.8-3.1-8.8-1.8-12.8c0.9-2.9,3.3-4.4,6-5.3c1.5-0.5,3-0.7,4.5-0.8c1.2-0.1,4.2,0.3,5.2-0.3c0.3,0,0.5,0,0.8,0
		c-4.7-5.9-14-5.9-18.3-12.3c-1.5-2.2-2.4-6.4-0.3-8.6c2.5-2.6,7,0.7,9.3,2.2c-2.6-1.4-5.7-1-8.5-0.9c3.9,8.9,14.9,12.9,23.9,11.9
		c2-1,2-4,4-5c8-2,17-3,18.8-11.9c-4.1,4.2-13.1,17.6-18.8,8c7,2.7,14.4-6,9.8-12.3c-2.9-3.9-7.4-2-11-4.3c-4.2-2.8-3.4-9-2.9-13.3
		c0.4,4.8,6.7,17.2,13.2,12.8c2.8-1.9,1.2-5.8-0.2-8.2c-2.3-4.1-6.4-8.6-4-13.6c-0.2,4.3-0.5,9.2,2.3,12.8c3.5,4.5,7.4,1.5,8.7-2.9
		c1.2-4.1,0.8-9.3-1.9-12.7c-2.8-3.6-5.7-4.8-6.7-9.6c-0.7-3.5-1.3-8.5-5.2-10c-3.7-1.5-7.8,2-10.2,4.5c-2.8,3-5.1,6.5-7.6,9.7
		c-2.9,3.7-5.9,7.4-7.7,11.8c-9.9,23.3,31.1,32.3,40.2,13.5c-1.6,14.6-24.1,17.2-34.8,12.1c-7-3.4-12-11.1-10-19
		c2.3-9.6,8.2-18.6,13.8-26.5c3.4-4.8,6.8-10.2,12.6-12c5.5-1.7,10.1-2.6,12.1-8.6c0.8-2.5,2.9-11.2,0.5-12.9c-4.3-3-4,5.8-5,7.5
		c-0.3-0.8-0.5-1.6-0.7-2.4c0.4,0.7,0.7,1.6,0.7,2.4c-1.6-4.7-3-12.6,0.6-16.7c4.7-5.4,9,3.5,13.8,1.4c7-3.2,0-12.8-0.1-17.5
		c-0.1-7.8,9.7-11.1,16.1-10c-4.9,0.3-12.9,4.2-9,10.1c4.2,6.3,12.4,1.4,18.1,1c-2.3,15.3,22.8,3.3,25.2-5.3c-3,6.2-11.5,7.5-17.5,6
		c-4.7-1.1-12.7-5.9-6.8-10.9c-3.5,3.1,3.1,5.2,5.3,5.4c14.1-0.3,18.1-15.3,22.1-25.3c4-8,12-13,21-15c5-1,10,2,14-1c1-1,2-3,2-4
		c1-10-3-21,5-28c1-1,2-1,2.6-1.1c-1.1,1.2-3.3,2.4-4.9,2.1c1.1-1.2,3.4-1.6,4.9-2.1c-1.8,2.2-2.8,8.3-0.8,10.6
		c3.3,3.7,8.6-6.4,10.1-8.4c4.7-6.3,11.3-6.9,18.4-8.7c6.9-1.8,13.8-6,17.4-12.3c1.3,5-1.4,13,2,17.2c4.9,6.1,9.1-9.5,10.1-11.9
		c2,3-0.7,2.9,0,0c1,5.3,5.2,8.9,10.1,10.5c5.9,1.9,11.3,4.5,16.8,7.4c5.3,2.8,10.5,5.8,16.1,7.8c4.5,1.6,10.3,0.3,14,3.9"/>
	<path class="st8" d="M602.2,40.5c1.3,0.5,2.4,1.4,3.3,2.5c0,0.1,0,0.3,0,0.4c-2.9,0.8-8.4,3.9-7.8,6.1"/>
</g>
<g id="linework-hair-right_1_">
	<path class="st8" d="M595.5,51.4c5.8-7.2,13.1-8.6,21.9-8.9c5.5-0.2,10.5-0.9,15.8-2.3c5.3-1.3,10.7-2.7,16.2-1.7
		c-2.7,2.7-6.6,2.3-9.9,3.7c-1,0.2-3,1.2-3,2.2s2,3,3,3c5,1,10-1,15,0c4,1,8,2,12.2,1.6c-0.5,0.3-1,0.8-1.4,1.2
		c4.2,2.1,8.2,1.1,7.2-3.9c-1-1-2-1-2.7-1.1c6.7,0.5,17.7,19.4,23.5,8.1c0.5,11.4,16.6,5.5,22.1,11.7c-4.5,0.3-10.5-1.1-13.8,2.9
		c4.3,1.1,9.1,1.2,12.7,4.1c-0.5-0.9-1.1-1.8-1.7-2.7c7.9,1.9,10.9,9.9,15.9,16.9c2,3,6,6,9,4c4-1,1-8-3.7-8.3c3.6-1.3,2.4,0.1,0,0
		c0.7,0.3,1.7-0.7,2.7-0.7s2,0,3,1c3,2,5,6,2,10c-2,3-10,4-7,10c8,2,15,6,18,13c0,0-2,2-2,3c0,2,0,3,1,5c1,1,1,1,2,2c2,1,3,2,5,2
		c4-1,6-5,6-8c-1-4-3-8-4-12c0-1,2-3,3.8-2.9c-2.8,6.9-1,0.3,0,0c-2.8,6.9,4.8,13.5,2,20.4c-0.7,1.7-2,2.1-3.4,3.2
		c-2.2,1.6-3.8,4.2-4.3,6.9c-2.1,10.8,15,10.4,20,4.7c-2.4,3.7-8.3,6.5-6.9,11.7c0.9,3.4,3,2.6,5.8,3.1c3.2,0.6,5.3,4,6.9,6.7
		c-5.6-3.7-7.1-0.7-11.9,2.1c0,0,0.1,0,0.1-0.1c-1.9,1.5-4,3-6.2,4.1c0,0,0,0,0-0.1c-1.9,2.1-5.9,2.1-5.9,7.1c4,0,9,0,12-4.7
		c-1.8,4.8-1.4,1.7,0,0c-1,6.7-9,12.7-5,19.7c2,3,5-1,7.7-0.9c1.1,4.2,5,6.4,9.2,6.1c-0.6,0.4,0.2,0.7-1,0.2
		c2.1,3.6,6.1,5.6,10.1,7.6c5,4-4,11-3,18c0,1,1,1,1,2c5,4,12,7,17.8,3.1c-2,3.9-6.6,5.8-10.7,4c0.3,6,8.1,7.3,9.7,12.8
		c2.6,9.1-6.8,12.2-12.8,15.9c6.8-2.4,16.1-8.5,8.2-15.6c-6.3-5.2-16.3-9.2-21.3-1.2c-1,2-1,5,1,7c2,1,4,0,6.1,1.9
		c-2.7,1.5-4.1,4-4.9,6.9c3.2,0.1,6.4-0.2,8.9-2.5c-7.1,17.1,31.9,9.7,20.7-5.2c4.7,13-7.6,25.4-20.6,21c0.7,10,13.3,0.2,14.8-4.7
		c0.7,1.2,1.8,2.2,2.2,3.5c5-2.4,10.8-0.1,9.6,6.2c-1,5-6.8,7.4-10.7,9.8c3.5-1.2,6.9-5.7,2.6-8.4c-4.4-2.6-10.7,2.6-10.7,7.1
		c0,2.5,1.5,4.7,3.5,6c2.6,1.7,6,0.7,7.5,3.3c3.3,5.6,1.9,12.1-3.6,15.7c5.3-5.8,0.2-15.2-7.7-13.4c-6.7,1.6-3.3,9.4,2.2,9.9
		c-1.2,3.7-11,9.3-3.1,12.7c4.4,1.9,8.6-4.1,13.2-4.2c3.2,0,23.1,0.3,15-6.7c8,2.6,1.4,6.8-3,8.8c-6.9,1.3-10.9,7.3-16.9,10.3
		c-1,0-4,1-5,1c-2-1-5-1-7-2c-1,0-3,0-5,0c-4,1-4,6-4,10c0,5-3,10,2.1,12.9c-2.9,4.4-0.9-0.5,0,0c-4.1,5.1-19.1,5.1-12.1,13.1
		c0,1,4,0,6,0c1,0,2,1,3,2c1,2,3,3,2,5s-3,3-6,1c1-1,1-2,2-3c5-4,12-3,16-8.2c-0.6,3.3-2.2,5.2,0,0c-1,6.2-9,7.2-14,9.2
		c-2,0-2,6-4,3c-3-2-6-6-10.8-3.2c-3.4-8-8.9-0.5-5.4,5c-0.8,0.2-0.8-0.8-1.8-0.8c-6,2-3,8-1.2,11.8c-1.9-0.1-0.7-1.7,0,0
		c-1.9-0.1-3.7-0.8-5.3-1.9c-2.3-1.6-2.4-2.2-1.7-4.8c-2.7,1.1-5.2,1.2-7.1,3.7c-4.5-4.8-10.9-1.4-9.6,5c2.7-0.8,4.9-0.1,6.9-2.5
		c-0.1,1.8,0.9,3.9,0.7,5.5c-0.2,1.3-2.6,3.9-3.7,5c4.5,0.9,8.4-2.1,11-5.5c-2.4,2.6-6,3.8-8.1,6.6c0.1,1.3-2.6,10.3-3.8,9.2
		c1.9,5.3,7.6,3.8,11,7.2c3.8,3.8,4.5,13.8-0.3,17.3c-4.9,3.6-3.2-4.7-0.9-6.8c3.4-3.2,10.4-4,12.4-8.5c0.8-1.7,0.3-3.4-0.5-5
		c-0.8,3.5-4.5,6.8-6.6,9.5c-1.3,3.2-3.3,4.2-5.3,6.2c-2,3-2,9,3,7c1-1,1-3,1-5c-3-10-14-15-23-14c-4,1-6,5-3,8c6,5,6,11,5,17
		c4,2,9,2,9.9-3.7c0.8,1.6-0.5,3.3,0,0c0.8,1.6,1.1,3.5,0.7,5.2c-0.3,1.6-2.8,4.2-2.8,5.4c0.1,3.7,6.6,2.8,8.2,1.5
		c-2.8,2.5-6,5-8.5,7.9c-3.9,4.5-0.9,6.6,4.3,6.8c-2.2,2.9-6.5,4.6-6.7,8.7c1.5,0.1,3.3-0.2,3.8,1c0.3,0.9-0.4,2.5-0.6,3.3
		c-0.8,2.3-2.2,4.4-3.1,6.7c-1.5,3.9,0.3,7.7,4.9,7.4c3.1-0.2,6.8-2.8,7.8-5.8c0.4-1.2,0.4-2.3-0.5-3.3c-0.5-0.5-1.5-1-2.2-0.9
		c-1.8,0.1-1.1,0.8-1.2,2.4c-0.8-5.4,3.7-9.3,8.3-5.2c5.2,4.7,2.3,11.8-2.2,15.5c-5.7,4.7-9.9,8.5-7.3,16.5
		c2.7,8.3,8.1,14.8,8.8,23.8c0.8,10.6-2.6,19.1-9.1,27.1c-2.9,3.5-11.2,13.4-2.3,15.2c-3.2,3.1-6.7,1.1-8-2.7
		c-1.4-4.4,0.9-8.3,3.1-12c4.3-7.2,9.2-16.8,7.1-25.5c-1.1-4.6-4.3-7.1-7.4-10.4c-3.3-3.5-4.3-7.7-4.7-12.4
		c-0.3-3.8-0.3-8.3-3.1-11.3c-2.1-2.3-5.4-2.5-7.5-0.1c-2.2,2.6-3.9,10.2-8.5,8.4c7.7-5.2,0-15.6-4.2-20.4
		c-7.3-8.2-17.9-10.7-26.3-17.3"/>
</g>
<g id="linework-left-eye">
	<path class="st9" d="M469.5,242.1c0.4,0.2,4.4-1.3,6.5-1.4c-0.6,0.5-1.7,1.8-2.4,2.3c1.3-0.2,3,0.3,4.4,0.2
		c1.4,2.6,6.3,1.6,8.6,0.1c2.7,0.7,7.8-0.8,10.3-1.6c-0.8,0.6-1.4,1.3-2.1,1.9c2.8-0.5,5.5-1.9,8.1-2.6c-0.7,3.7,7.7,1.6,8.7,1
		c2.8,0.1,8.7,0.4,12.5,0.4c4.1,0,9.1,0.7,12.9,0.6c2.7,1.3,5.2,3.1,8.4,4c0-0.1-0.7-0.8-0.8-1c1.9,0.5,1.3-0.1,2.5,1.3
		c2.5-0.6,4.3,0.3,4,3c2.2-0.2,4.8,0.4,6.7-1.5c-0.1,0.3-0.5,0.8-0.6,1.1c0.8,0.7,1.3,0.7,1.9,1.9c2.3,0.6,4,0,6.3,0.7
		c-0.2,0.4-0.3,0.8-0.3,1.2c1.8,0.5,3.3-1.1,5-1.8c-0.8,0.3-1.8,6.5-2.4,7.5c-1,1.8-3.7,4.7-6.1,4c-0.1,1.7,0.9,3.3,2.3,4.3
		c-1.5,2-2,4.4-2.4,6.5c0.3,0.1,0.6,0.1,0.9,0.2c-0.6,1.3-1.8,2.5-3.2,3.4c0.8,3.2-1.6,7-2.5,10c-1.2,4-1.6,8-4,11.5
		c-2.1,3.2-3.2,5.1-3.6,9.1c-0.4,4-0.3,8.3-3.1,11.5c-0.3,0.4-4.2,5-3.5,4.8c-3.9,1-4.8,4.6-5.4,8c-0.1-3.1,0.4-7.8,1.1-10.2
		c1-3.1,4.2-5.1,3.3-9.1c-0.5,0.4-1.4,0.7-2,1.3c-0.2-2.3-0.1-4.7,1.5-6.2c-2.6,1.1-3.8,4.6-3.9,7.2c-0.1,0-2.3-0.4-2.4-0.4
		c-1.7-1.8-0.2-6,0.7-7.4c0-0.3-0.6-0.5-0.7-0.9c2.6-2.2,0.4-4.5-0.1-6.5c-0.6,0.3-1.4,0.2-2.1,0.8c-0.6-0.1-1-0.5-1.8-0.5
		c-0.4-0.7-0.9-2.2-0.9-2.9c0.7-0.3,1.8-1.3,2.4-1.5c-1.8-0.5-3.6-0.4-5.6-0.2c-1.7-0.9-2.7-2.1-3.9-3.4c-0.2-0.7-0.1-1.3-0.4-1.9
		c1.9,0,3.6-0.3,4.9-1.5c-1.3-0.5-2.3-1.7-3.4-2.4c2.4-0.1,4.4-2.8,6.4-3.6c-1.3-0.9-1.7-2-2.5-3.4c0.6-1.2,1.2-2.1,2.9-2.7
		c0.5-1.1,0.7-2.6,0.5-3.8c-6.1-0.6-11.5-2.1-17.4-3.5c-0.2,0.3-0.1,0.6,0.1,0.8c0.2,0.2,0.2,0.2,0,0c-1.8-0.9-3.2-0.4-3.8,1.5
		c-2.8,0.5-8.3-2.2-8.6,1.6c-0.1,0-0.4-0.8-0.7-0.5c-0.2,0.2-0.4,0.4-0.5,0.6c1.6,1,4.1,1.5,4.5,3.8c0.8,0.2,1.9,0.8,2.4,1
		c-2.4,0.1-4.6-0.5-6.9-0.8c-0.4,0.7-1,2.6-1,3.3c2.8,3.8,5.4,5.5,10.4,5.2c0,0.3,0.2,0.7,0.4,0.9c-3.9,1.4-12.1-0.2-14.8-2.4
		c-4,3.9-7.3-5.3-10.3-6.4c0.5-0.2,1-0.6,1.7-0.7c-0.6-3.4-0.5-7-2-9.3c-1.1-1.7-5.3-4.5-6.9-5c2.3,0.4,4.9,0,4.9-2.5
		c-1.3-0.1-2.3-0.8-3.7-0.6c-1.9-1.6-2.8-6-6.6-5.6c-0.3-0.7-0.6-2.7-0.5-3.3c1.1-0.1,1.7-0.9,2.5-1.1c-0.9-1.9-1.8-3.5-4-3.6
		c-0.1-2-0.7-2.7-2.5-3.5c0-0.9,0.7-0.4,1-0.9"/>
</g>
<g id="linework-right-eye">
	<path class="st9" d="M620.1,340.4c1.1-1.4-3.6-6.4-4.6-7.7c0.2-2.2-1.5-4.2-0.1-5.9c-1.6-1.8-4.4-1.6-4.7-4.4
		c-1.6-0.7-2.9-2-3.2-3.7c1.4-0.9,1.1-2-0.3-2.7c0.7-2.9,0.8-5.4,1.2-8.2c-1.4,0.3-2.4-0.1-2.3-1.7c-0.3-0.3-0.5,0.1-0.7-0.4
		c3.4-3.4-0.3-7.5-3-10c0.5-0.3,0.9-1.3,1.4-1.7c-2.1-5-5.5-9.2-3.1-14.6c-2.8-0.9-4.6-5.3-3.9-8.4c0.2-0.8,1.6-0.5,1.9-1.1
		c0.4-0.8-0.1-1.9,0.3-2.7c0.9-1.7,2.6-1.5,2-4.2c-0.4,0-0.7,0.1-1,0.2c-0.1-0.1,0.2-0.7,0-0.8c-1.8-0.3-1.7-1.9-0.3-2.8
		c-0.6-1.5,0.5-2.8,2-2.8c-0.8,1-0.6,1.7-0.2,2.9c1.1-0.3,1.7,0.1,2.6-0.9c-0.3,1.1-0.5,2.1-0.6,3.2c1.4-0.1,2.2-0.4,3.6-0.7
		c0.3-1.1,0.7-1.9,1.2-2.9c-0.1,0.7,0.6,1.5,1.2,2.3c1.2-0.7,2.1-2,2.6-3.3c0.1,0.2,0.1,0.3,0,0.5c0.3-0.3,1.8-0.9,2.7-1.2
		c1.5,3,3.9-2.5,5.6-3.1c-0.2,0.3-0.6,0.4-0.7,0.7c0.1,0.1,0.2,0.2,0.3,0.3c2.2-0.8,3.9-2.6,6.2-2.9c-0.1,0.3-0.1,0.8-0.3,1.2
		c1-1.1,2-1.6,2.8-0.6c2.3-0.2,2.4-2.7,5.2-1.9c0.1,0.3,0,0.6,0.1,0.9c2.1,0.3,3.6-1.4,5.2-2.6c0.4,0.1,1.2,0.2,1.7,0.3
		c0,0.4-0.2,0.6-0.3,0.9c1.6-0.1,5.6-2.5,5.4,0.7c1.7,0.3,5.2-2,4.7,1.3c1.7,0.3,3.4,0.5,4.6-0.8c0.1,0.1,0.1,0.1,0.2,0.2
		c-0.4,0-0.7,0.2-1.1,0.3c0.4-0.2,0.7-0.4,1.3-0.6c-0.5,0.1-2.6,0.4-3.7,0.6c3.6-1.2,8.5,0.3,12,1.3c3.1,0.9,10.1,0.8,11.4,4
		c0.4,0,0.6-0.2,0.9-0.3c2.5,2,4.8,2.1,7.3,3.6c1.2,0.8,5.1,2.9,5.7,4.6c0.2,0,0.7-0.1,0.6-0.2c-0.5,1.3-1.5,2.3-2.6,3.2
		c2.3,0,3.3,2.9,5,4.2c1.5,1.2,5.2,2.7,2.3,4.3c3.2,2.2,5.1-2.1,8.6-0.5c-0.1,0.6,0.3,1.6,0.1,2.2c3,1.4-2,4-3.1,4.8
		c-2.2,1.8-1.8,6.2-4,7.2c-1,0.5-2.7-1-3.7-0.6c-1.4,0.5-1.8,2-2.6,3.1c-1.1,1.6-2.6,4.3-5,3.6c-1.2,2.6-5.4,3.6-8,3.2
		c2.1-0.9,5.8-3.4,5.5-5.9c-0.4,0.1-0.5,0.2-0.9,0.3c0-0.9-0.5-1.6-0.4-2.6c-0.4-0.1-1.1-0.2-1.6-0.1c-0.1-0.2,0.1-0.7-0.1-0.9
		c-0.8,0.2-1.8-0.1-2.6,0.2c-0.8-0.9,0-2.5-0.1-2.6c-0.6-0.8-0.8-0.8-1.7-1.6c-1.6-1.3-3.7-0.3-3.6-3.7c-0.7,0.1-1.3-0.4-1.9-0.5
		c0.2-0.4,0.1-1.1,0.3-1.5c-0.5,0.2-1.2,0.3-1.6,0.5c0.7-0.6,0.8-1.7,1.2-2.2c-1.3,0-2.6,0.5-3.9,0.6c0-0.3,0.3-0.2,0.3-0.5
		c-3.5-2.4-7.7,1.9-11.2-0.7c-2.2,2.7-7.4,0.9-10.1,0.9c-2.5,0-8.9-1.2-10.4,1.4c1.2,1.1,4.6,4.1,4.7,5.3c-0.3-0.1-0.9-0.2-1.2-0.3
		c0.6,0.9,0.9,2.5,0.3,3.6c1.1,0.4,2.1,0.7,3.2,1c-1.1,1-2.1,1.5-2.5,3c0.6,0.1,1.1,0.6,1.5,0.7c-1.7,0.8-3.4,1-4.8,2.4
		c1.3,2,0,4.4,1,6.2c-0.1-0.1,5.6,2.8,1.4,3.5c1,0.3,2.1,0.7,2.9,1.2c-1.9,0.8-4.4,0.3-6.6,0.5c-1.9,3.8-9-3.4-12-3.1
		c-2.5,0.2-4.3,2.3-2.8,4.8c1.2,1.9,4.3,2.1,2.5,5.3c1.3,1.2,3,2.1,4.5,2.6c-0.9-0.3-5-0.9-6-0.6c-1.6,0.5-4,2.7-1.4,3.7
		c0.1,2.8,0.1,6.4,3.3,7.3c-0.4,0.5-0.5,1.4-1,1.9c0.7,0.4,0.6,0.9,1.7,1c0,1.6-0.5,2.9-1.2,4.2c1.3,1.3,0.3,6.5-1.4,6.4"/>
</g>
<g id="linework-nose">
	<path class="st9" d="M540.5,354.8c0.9,2.6,4.2,3.6,7.3,3c1.4,1.4,5.1,2.1,6.1,0.3c-0.2-0.1-0.9-0.3-1.2-0.4c-0.7-1.1-0.6-6.3,1-7.8
		c3-2.8,16.1,4,16,7.8c0,2.8-4.8,2.7-6.5,4c-1.2,0.9-0.4,2.6-2.6,2.7c-0.2,1.5,0.8,2.3,1.2,3.6c-1.7,0.3-1.3,1.7-0.7,3
		c-0.7,0.2-0.3,0.3-0.7,0.7c-0.3,0.1-0.6,0.1-0.9,0.1c0.1,0.9-0.4,1.4-0.4,2.2c-0.3,0.1-0.6,0-0.9,0.1c-1,3.8-0.5,7.4-4.9,8.3
		c2.3-1.8,1.1-3.3,1.6-5.3c0.6-2.1,2.7-3.2,1.9-5.7c-1.2,0-1.8-0.4-2.9-0.8c-0.1-1.1-0.6-1.9-1.1-2.9c-1.2,0.9-2.8,1-3.2-0.7
		c-2.6,0.4-3.7,0.9-6.3,0.2c-0.5-1.2-0.3-1.2-1.7-1.3c-0.3-0.3-0.2-0.9-0.4-1.2c-0.4-0.1-0.9,0-1.2-0.1c1.2-0.4,2.8-0.8,2.6-2.6
		c-0.3-0.1-0.6,0-0.9-0.1c2.4-1.9,0.7-4-0.4-5.9"/>
	<path class="st9" d="M582.8,359.1c0.7-2.6,3.7-3.1,5.8-4.2c2.2-1.3,3.9-3,5.9-4.5c2.4-1.8,3.9-2.7,6.7-2.6c2.1,0.1,6,1,5.7,3.9
		c2.4,0.7,1.5,2.3,2.3,4.1c1.2,2.7,0.7,1.4,3.3,2.7c3.2,1.5,3.5,4.8,2.7,8.7c-0.7,3.4-0.1,6.6-1.7,9.9c-1.2,2.6-4.2,5-4.8,7.6
		c-3.2-3.1-5.8,2.9-8.3,4c-2.1,0.9-3.1-0.6-4.9-0.9c-1.9-0.3-3.5,0.3-5.3,1c-4,1.6-6.8,4-11.4,3.9c-2.6,0-9.8-1.6-9.2-5.5
		c0.2-0.2,0.8-1.1,1-1.4c3.1,1.2,16.7-3,16,2.9c2.1,1.1,7-1.4,6.9-3.6c-1.5,0.1-3,0.8-4-0.4c1.1-0.7,1.5-1.6,1-2.7
		c1.2-0.7,2.7-0.1,3.4-1.6c2.8,0.3,2.5-3.2,0-3.1c-1-1-1.2-2.2-0.4-3.5c-1.3-1-2.8-1.5-2.7-3.4c-2.2-1.4,6.4-4.7,2.7-8.1
		c-1-0.9-4.3,0-5.7-0.6c-1.7-0.8-2.7-2.3-3.3-4"/>
</g>
<g id="linework-mouth">
	<path class="st9" d="M547,409.3c-4.9,0.4-9.9,1.5-14.8,1c-2.2-0.2-14-3.7-8-6.6c0.9-0.4,2.1-0.5,3.1-0.6c2.2-0.3,4.5-0.3,6.7-0.6
		c3.1,3.8,16.8,0.3,22,1.4c6.6,1.4,13.2,4.5,20.5,4.5c15.3,0,29.5-2.8,45.5-2c2.6,0.1,8.3-1.6,9.6,0.5c-9.5,18.3-31.2,3.5-46.6,6.8
		c-5,1.1-9.4,2.4-14.6,0.8c-3-0.9-5.5-1.9-8.4-2.6C557.2,410.8,552,408.9,547,409.3z"/>
	<path class="st9" d="M572,435.9c5.1,2.2,11.8-2.4,16,1.1c-2.7,1-5.3,1.1-7.2,3.4c-2-1.3-4.5-1.5-6.8-2c-0.4-1.8-1-0.8-1.6-0.9"/>
	<path class="st8" d="M524,403.9c-0.5,0.9-1.1,1.8-1.5,2.5"/>
</g>
<g id="linework-eyebrow-right">
	<path class="st9" d="M616.5,233.4c-0.2,0.1-0.4,0.9-0.9,0.9c0.7-2.2,0.8-1.1,2.3-1.5c1.8-1.3,1.9-1.6,0.7-3.3
		c0.9-0.4,2.4-0.8,3.4-0.9c-0.1,0.4-0.3,0.8-0.4,1.2c2.3-0.5,6.8-2,6-4.9c-1,0.3-2.5,0.7-3.4,1.3c2.4-0.5,7.7-4.5,9.9-6.7
		c0.7,0.2,1.7,0,2.4,0.2c-0.1-0.2,0.2-0.8,0.4-0.9c-0.2,0.1-0.5,0.1-0.7,0c1.3-2.9,9.8-1.3,12.9-2.9c0.1,0.5,0,0.9,0.2,1.4
		c2.2,0.3,5,0.6,6.8,0.6c1.8,0,4.8-1.5,6.6-0.1c3-0.7,10.2,1.2,14.1,2.4c0.2,0.1,1.9,1.4,2.4,1.6c1.2,0.6,2-0.6,3.4,0.1
		c2.2,1.1,1.9,4.2,5,5c0.3,0.3,0,0.9,0.2,1.3c1.9,0.3,2.8,1.5,2.5,3.5c3.8-0.3,5.1,3.5,9.3,3.1c1.1,1,2.1,2.3,2.7,3.8
		c3.3,2.2,4,6.5,6.5,9.6c-2.7,1.8-1.9,4.5-1.2,7.1c-0.5,0.4-1,1-1.6,1.4c0.3,0.8,0.2,1.5,0.2,2.4c-0.6,0.3-1.6,0.8-2.2,1
		c0.2,0.1,0.4,0.2,0.7,0.3c-5.6,4.3-6.2-4.6-11.2-5.1c0,0.4,0.1,1.1,0.2,1.5c-1.1-2-2.3-4.1-3.4-6c-3.9-1.2-6,0.5-7-4.5
		c-1.6-0.1-2.2-0.8-3.8-0.1c-1.5-3.9-5-2.9-8.1-3.1c-2.5-0.1-7.5-2.1-9.4-0.6c-1.9-1.9-4.5-1.2-6.5-0.4c-0.9-1.8-2.7-1.9-4.4-0.9
		c0.2,0,1.6,0.1,0.9,0c-3.8-0.6-4.9-0.4-8.5,0.4c-0.6-1.2-1.1-0.7-1.7-1.9c-2.8,2.9-7.2,1.1-10.9,1.9c-3,0.7-9,3.4-11.5,1
		c0.2-0.5,0.4-0.9,0.5-1.4c-4.3,0.7-2.9-4.7-2.9-7.6"/>
</g>
<g id="linework-eyebrow-left">
	<path class="st9" d="M544,239.4c1.1,0.4,1.7,1,2.9,1.1c1.9,3.9,11.4-1.1,11-6c-0.2-1.9-3.3-5-3.9-7.1c-0.7-2.4,0.4-6.2-3.5-5.2
		c-1.3-3-4.7-2.1-5.6-5.2c-3.2,0.6-4.2-2.5-6.9-3.1c-3-0.7-4.9,1.5-7.5-1c-3.4,3.6-7-0.3-10.5-0.5c-4-0.2-7.8,2.6-11.5,3.5
		c-4.4,1.1-21.5-1-22.6,4.9c-6.4,3.8-14.3,2.5-18,9.5c-2.1,0.3-5.5,5.6-6.4,8c-0.9,2.4-0.2,5.1-1.9,7c0.6,0.2,1.7,0.2,2.4,0.1
		c0.1,0.3-0.1,1.2,0.2,1.4c3.6-1.3,7.6-1.8,10.9-1.6c3.9,0.3,7.1,2,11,1.6c8.8-0.8,16.1-6.8,24.5-8.5c13.8-2.8,27.7,2.5,41.5,2.5"/>
</g>
<g id="linework-pupils">
	<path class="st10" d="M521.8,264.3c1.9,0.4,3.6-0.4,5.3-1c1.8-0.7,3.7-1,5.4-1.9c0.6-0.3,1.4-1.3,2.1-1.4c0.9-0.2,1.9,0.7,2.9,0.2
		c2.7-1.3-0.3-3.4-0.1-5c-1.1-0.1-2.7-0.3-3.2-1.5c-0.8-0.2-1.5-0.3-2.2-0.5c-0.6-0.2-0.9-0.7-1.6-0.8c-0.9-0.2-3.6-0.7-4.2,0
		c0.9,1.1,0,3.8-0.1,5.1c0,0.3,0.4,0.8,0.3,1.2c-0.2,0.4-1,0.2-1.1,0.4c-0.5,0.7,0.2,1.9-1.3,1.7c0,0.6,0,1.3-0.1,1.9
		c-1.1,0.3-1.5,2.2-2.6,1.7"/>
	<path class="st10" d="M634.5,257.4c-2.6,0.6-4.7-0.6-6.7,1.6c-1.3,1.5-3.6,2.8-4.3,4.6c-0.8,2-0.1,1.6,1.2,2.3
		c0.9,0.5,1.5,1.4,2.6,1.7c0.6,0.1,1.3,0,1.9,0.1c0.5,0.2,0.8,0.7,1.4,1c0.5,0.3,1.1,0.3,1.6,0.5c0.4,0.2,0.7,0.8,1.2,1
		c1,0.5,2.5,0.9,3.5,1.2c1.1,0.3,2.8,0.9,3.5-0.3c-0.4-0.6-0.1-1.3-0.4-1.8c-0.6-0.9-1.9-1.1-2.5-2c-0.4-0.6-0.7-1.5-1-2.2
		C635.2,262.6,635,260.1,634.5,257.4"/>
	<path class="st10" d="M658.3,269.4c0.2-0.7,2-1.5,2.6-2c0.8-0.7,1.7-1.3,2.3-2.3c0.5-0.8,1.1-1.9,1.5-2.8c0.5-1.2-0.1-2.6,1.4-2.5
		c1.5,0.1,4.2,2.9,3.8,4.5c-0.2,0.8-1.3,1.6-2,2.2c-0.4,0.3-1,0.4-1.3,0.7c-0.5,0.4-0.6,0.8-1.2,1.3c-1.1,0.8-2.4,1.5-3.5,2.3
		c-1.5,1.1-2.8,0.6-4.4,1.4c0-1,0.9-1.1,0.6-2.1"/>
</g>
<g id="pupilShades">
	<path class="st6" d="M527,252.6c0.4-0.6,1.2-0.4,1.9-0.2c1,0.3,2,0.6,3,0.9c0.5,0.1,1,0.3,1.4,0.5c0.3,0.2,0.5,0.4,0.8,0.5
		c0.8,0.5,1.8,0.6,2.6,1s1.4,1.6,0.8,2.3c-0.7,0-1.3-0.6-1.9-1c-0.4-0.3-0.9-0.5-1.4-0.6c-1.3-0.5-2.6-1.1-4-1.6
		c-0.4-0.2-0.8-0.3-1.2-0.4c-0.8-0.1-1.6,0-2.2,0.5C526.7,254,526.8,253.2,527,252.6"/>
	<path class="st6" d="M624,264.9c-0.1,0-0.3-0.1-0.4-0.1c0.3-1,0.7-2,1.5-2.6c0.5-0.4,1.3-0.6,1.4-1.3c-0.3,0.4-0.6,0.7-1,0.9
		c0.8-0.6,1.2-1.6,1.9-2.3c0.8-0.9,2-1.4,3.3-1.6s2.4-0.1,3.7,0c0,1.1,0.1,2.1,0.3,3.2c-0.8-0.7-1.7-1.3-2.7-1.5
		c-1.5-0.3-3,0.6-4.3,1.4c-1.1,0.7-2.1,1.3-3.2,2c-0.4,0.3-0.9,0.7-0.8,1.2"/>
	<path class="st6" d="M665.8,260.3c0.8,0,1.5,0.6,2.1,1.2c0.6,0.6,1.3,1.2,1.4,2.1c0.1,0.8-0.7,1.8-1.5,1.5c0.4-0.3,0.4-0.8,0.3-1.2
		c-0.2-0.4-0.5-0.7-0.9-0.9c-0.5-0.3-1-0.4-1.6-0.5c-0.3,0-0.6,0-0.7-0.3c-0.1-0.1-0.1-0.3,0-0.4c0.1-0.5,0.3-1,0.6-1.5"/>
	<path class="st4" d="M526.9,254.4c-0.3,0.8-0.3,1.7-0.2,2.6c0.3-0.3,0.3-0.8,0.6-1.2c0.4-0.5,1.2-0.4,1.9-0.2
		c1.1,0.3,2.2,0.6,3.3,0.9c1.5,0.4,3.1,0.9,4.2,2c0.4,0.4,0.8,0.8,1.3,0.7c0.3-0.3,0.2-0.9-0.2-1.2c-0.3-0.3-0.8-0.4-1.2-0.5
		c-1-0.3-1.8-0.9-2.7-1.4c-1.2-0.6-2.5-1.1-3.8-1.5c-0.7-0.2-1.3-0.5-2-0.4c-0.5,0.1-1,0.3-1.3,0.6"/>
	<path class="st4" d="M624.7,265c-0.4,0.1-0.7-0.4-0.6-0.8c0.1-0.8,0.8-1.4,1.5-1.9c1.2-0.9,2.5-1.7,3.8-2.3
		c0.6-0.3,1.2-0.5,1.8-0.5c0.5,0,1.1,0.3,1.6,0.5c0.6,0.3,1.2,0.5,1.6,1c0.4,0.5,0.7,1.2,0.5,1.8c-0.4,0-0.7-0.2-1-0.4
		c-0.5-0.2-0.9-0.5-1.4-0.7c-0.4-0.2-0.8-0.4-1.2-0.4c-0.3,0-0.6,0.1-0.9,0.2c-1,0.4-2.1,0.8-3.1,1.1c-0.6,0.2-1.2,0.4-1.7,0.8
		c-0.5,0.4-0.9,0.9-1,1.5"/>
	<path class="st4" d="M664.8,262.2c-0.2,0.3-0.4,0.7-0.5,1.1c0.8,0,1.6,0.1,2.2,0.6c0.6,0.5,0.6,1.6-0.1,1.9
		c0.2,0.1,0.3,0.3,0.3,0.5c0.7-0.1,1.4-0.6,1.9-1.2c-0.5,0.2-1.1-0.3-1-0.8c0-0.1,0.1-0.3,0.1-0.4c0-0.3-0.3-0.5-0.6-0.6
		c-0.5-0.2-0.9-0.4-1.4-0.6c-0.3-0.1-0.7-0.3-1-0.1"/>
	<path class="st11" d="M1132.7,238.7c0-0.2,0-0.4,0-0.7"/>
	<path class="st12" d="M661.1,261.5c0-0.2-0.1-0.4-0.2-0.5c-0.3-0.3-0.8,0-1,0.3c-0.2,0.4-0.3,0.8-0.6,1.1c-0.4,0.4-1.1,0.4-1.5,0.9
		c-0.3,0.2-0.4,0.6-0.6,0.9c-0.7,1.2-2.1,1.6-3.4,1.9c-0.3,0.1-0.6,0.2-1,0.3c-0.6,0.3-1.3,0.5-2.1,0.6c-0.4,0.1-0.9,0.2-1.3,0.4
		c0.3,0.6,0.9,1.1,1.5,1.2l0.5-0.5c0.1,1.2,1.7,1.5,2.8,1.2c1.1-0.4,2-1.2,3.1-1.5c0.6-0.2,1.3-0.2,1.8-0.7c0.4-0.4,0.5-1,1-1.2
		c0.3-0.1,0.6,0,0.8-0.2c0.2-0.1,0.2-0.4,0.2-0.6C661.3,263.8,661.3,262.6,661.1,261.5z"/>
	<path class="st13" d="M656,264.5C656,264.5,655.9,264.5,656,264.5c-0.4,0.3-0.8,0.7-1.3,1c-0.4,0.3-0.9,0.4-1.4,0.5
		c-0.2,0.2-0.5,0.3-0.7,0.4c0.3,0.1,0.5,0.1,0.8,0.1c1.2,0,2.3,0,3.5-0.1C657.3,265.8,656.7,264.9,656,264.5z"/>
	<path class="st13" d="M660.9,261.8c-0.4-0.4-1.2,0.1-1.1,0.6c0.1,0.5,0.8,0.8,1.4,0.6c0.2-0.1,0.4-0.2,0.4-0.4
		c0.1-0.4-0.4-0.7-0.8-0.9"/>
	<path class="st14" d="M518.4,260.4c1.1,0.4,2.4-0.5,2.5-1.6c0-0.3,0-0.5,0.1-0.8c0.2-1,1.4-1.5,2.5-1.7c-0.1,0.7-0.3,1.4-0.4,2.1
		c-0.1,0.5-0.2,1.1-0.5,1.5c-0.7,1.2-2.6,1.4-3.6,0.5"/>
	<path class="st15" d="M522.2,255.5c-0.3-0.1-0.7,0.3-0.6,0.6c0,0.4,0.4,0.6,0.7,0.7s0.7,0,1.1,0c0.2-0.7-0.4-1.4-1.1-1.4"/>
</g>
<g id="fill-hair_1_">
	<path class="st9" d="M753.2,430.5c-3.2-3,2.7-10.4,5.2-12.2c1.6-1.2,3.5-1.9,5-3.2c1.9-1.8,2.8-5.9,0.5-7.7
		c-0.8,2.7-2.7,4.9-4.7,6.9c-0.9,0.9-1.9,2.6-2.9,1.1c-1.1-1.6-0.9-3.4-2.5-4.7c-1.1-0.9-2.5-1.5-3.9-1.9c-1.4-0.4-2.8-0.8-4.1-1.6
		c-0.8-0.5-1.9-1.4-2.1-2.4c-0.3-1.1,0.2-1.3,0.8-2.3c1.1-1.8,1.4-3.7,1.9-5.7c0.5-1.8,1.1-2.7,2.7-3.8c3-2.1,6.2-4.4,6.6-8.1
		c-1.3,2.3-2.7,4-5.1,5.3c-2.1,1.2-4.3,2.2-6.4,3.3c1.2-1.3,3.4-3,3.6-4.9c0.2-1.6-0.8-3.7-0.7-5.5c-2.1,2.4-4.2,1.7-6.9,2.5
		c-1.3-6.4,5.1-9.8,9.6-5c1.9-2.5,4.4-2.6,7.1-3.7c-0.7,2.5-0.6,3.2,1.7,4.8c1.5,1,3.2,1.6,4.9,1.8c0.1,0,0.2,0,0.3,0.1
		c-1.7-3.8-4.7-9.8,1.3-11.8c1,0,1,1,1.7,0.8c-3.5-5.5,2-13,5.4-5c5-2.8,8,1.2,11,4.2c1.1,1.1,2.2,0.4,2.8-0.9
		c1.5,0.1,2.6-0.8,3.2-2.1c0.4-0.8,0.3-1.5,0-2.1c0.2,0.4,4-0.6,4.4-0.7c1.5-0.4,2.9-0.9,4.2-1.8c2.8-2,3.4-5.8,3.8-9
		c-0.8,1.2-0.9,2.7-1.8,3.8c-0.5,0.7-1.3,1.1-2,1.6c-1.7,1-3.5,2.1-5.4,2.6c-1.2,0.3-2.6,0.4-3.5,1.2c-0.2,0.2-0.4,0.4-0.7,0.5
		c-0.8,0.2-1.2-1.1-1.6-1.6c-0.6-0.6-1.5-1.4-2.4-1.4c-2,0-6,1-6,0c-6.4-7.3,5.5-7.9,10.6-11.8c-0.4,0.8-0.3,1.2,1.3-1.3
		c-0.9-0.9-2.9-1.9-3.9-3.9s1-4,2-6c1-4-1-8,1-11c4-4,10-1,15,0c1,0,4-1,5-1c6-3,10-9,16.7-10.3c4.4-1.9,11-6.1,3-8.8
		c8.1,7-11.7,6.7-15,6.7c-4.6,0.1-8.8,6.1-13.2,4.2c-7.9-3.5,1.9-9.1,3.1-12.7c-5.4-0.5-8.8-8.3-2.2-9.9c8-1.9,13,7.5,7.7,13.4
		c5.5-3.6,7-10.1,3.6-15.7c-1.5-2.6-5-1.6-7.5-3.3c-2-1.3-3.6-3.5-3.5-6c0.1-4.5,6.3-9.7,10.7-7.1c3.2,1.9,2.2,4.9,0,6.9
		c3.5-2,7.3-4.3,8.1-8.3c1.2-6.3-4.6-8.6-9.6-6.2c-0.2-0.7-0.6-1.3-1.1-1.8c2.5-2.2,4.4-5.2,5.2-8.5c-5.8,7.7-26.6,8.7-21.3-4.2
		c-2.5,2.3-5.7,2.6-8.9,2.5c0.9-2.9,2.2-5.4,4.9-6.9c-1.9-1.9-3.9-1.9-5.9-1.9c-1-1-2-3-2-4s0-2,1-3c5-8,15-3,21.1,1.2
		c4,3.6,3.5,7,1.2,9.7c2.9-2.4,4.7-5.5,3.3-10.1c-1.6-5.5-9.4-6.8-9.7-12.8c4.1,1.9,8.7,0,10.7-4c-6.7,4.7-21.9-0.9-18.2-10.3
		c1.2-3.1,4.7-7.3,3.9-10.8c-0.4-1.9-2-2.6-3.8-3c-2.2-0.4-2.7-0.2-4.2-2.1c-1.2-1.5-2.4-3-3.8-4.5c1.2,0.5,0.4,0.2,1-0.2
		c-4.2,0.3-8-1.9-9.2-6.1c-1.6,0.9-3.6,1.9-5.6,1.9c-8-5,2-15,2.9-20.7c-2.9,3.7-6.9,5.7-11.9,4.7c0-5,4-5,5.8-7.1c0,0,0,0,0,0.1
		c2.1-1.1,4.2-2.6,6.2-4.1c0,0-0.1,0-0.1,0.1c4.8-2.8,6.3-5.8,11.9-2.1c-1.6-2.7-3.7-6.1-6.9-6.7c-2.8-0.5-4.9,0.3-5.8-3.1
		c-1.4-5.1,4.5-8,6.9-11.7c-5,5.7-22.1,6-20-4.7c0.5-2.7,2.2-5.3,4.3-6.9c1.4-1,2.7-1.4,3.4-3.2c2.7-6.9-4.8-13.5-2-20.4
		c-0.1,0-0.3,0.2-0.4,0.4c-0.9,0.6-2.4,0.7-3.2,1.6c0,6,4,10,3,16c-2,6-9,6-12,1c-1-2-1-3-1-5c0-1,1-2,2-3c-2.1-2.1-3-5.1-5.1-7.2
		c-2.1-2.2-5.4-3.6-8.2-4.4c-1.2-0.4-2.4-0.6-3.5-1.2c-3.3-1.9-1.8-4.8,0.6-6.5c2.2-1.6,5.2-3,6.3-5.6c0.6-3.2-0.9-6-3.5-7.8
		c-1.2-0.8-2.2-1.6-3.7-1.6c-1,0-2,0.1-3,0.3c-0.7,0.1-1.8,0.8-2.4,0.8c1.5,0,3,0.1,4.6,0.1c1.8,0,3.3,1.6,3.8,3.2
		c0.3,0.9,0.3,1.8,0.3,2.7c0,0.3,0,0.5-0.1,0.8c-0.1,0.4-0.5,0.6-0.8,0.8c-0.9,0.5-1.9,0.9-2.9,0.9c-0.4,0-0.8,0-1.2-0.1
		c-0.2-0.1-0.4-0.2-0.6-0.4c-7.7-5.5-10.1-16.4-19.2-20.3c-0.4-0.2-0.9-0.4-1.4-0.5c0.6,0.9,1.2,1.8,1.7,2.7
		c-3.6-2.9-8.4-3-12.7-4.1c3.3-4,9.3-2.6,13.8-2.9c-5.5-6.3-21.6-0.3-22.1-11.7c-5.1,9.9-14-3.3-20.7-7.1c0,0,0.1,0.1,0.1,0.1
		c1,5-3,6-7.3,3.9c0.4-0.4,0.9-1,1.4-1.2c-4.1,0.4-8.1-0.6-12.1-1.6c-5-1-10,1-15,0c-1,0-3-2-3-3s2-2,2.8-2.2c3.3-1.3,7.3-1,9.9-3.7
		c-5.5-1-10.9,0.3-16.2,1.7c-4.6,1.2-10.6,2.9-15.4,2.1c-1.4-0.2-2.3-0.6-3.9-0.3c-1.4,0.3-2.7,0.7-4,1c-1,0.2-3.1,1-4,0.7
		c-1-0.3-1.2-1.4-1.8-2.1c-0.7-0.7-1.8-1.1-2.7-1.5c-3.6-1.7-7.5-2.1-11.3-2.9c-3.9-0.9-7.3-3.2-10.7-5.3
		c-10.5-6.7-26.1-6-32.3-18.5c-0.1-0.4-0.3-1-0.8-1.8c-1.5,3.5-3,12.8-8.1,13.1c-5,0.2-3-15-4.1-18.4c-3,5.3-8.2,8.8-13.7,11.1
		c-5.7,2.4-12.6,2.1-17.9,5.6c-4.8,3.2-6.5,9-10.8,12.6c-5.3,4.4-5.5-7.6-2.8-10.5c-6.8,2.1-5.3,2.7-2.9,1.8
		c-8.6,6.8-3.7,19.2-4.6,28.3c-1,2-4,4-6,4c-13-1-26,4-31,15s-9,28-24,25c-2.3-0.6-6.2-2.5-3.5-5.1c-6.5,5.8,3.5,10.6,8.5,11.2
		c5.8,0.8,13.1-0.5,15.9-6.3c-2.4,8.9-27.5,20.9-25.2,5.3c-5.8,0.3-13.9,5.3-18.1-1c-4-5.9,4.1-9.9,9-10.1
		c-5.4-0.9-12.5,1.1-15.2,6.2c-3.6,6.7,5,12.6,1.2,19.2c-3.9,6.8-9.2-2.9-14-0.7c-5,2.4-4.4,11.1-3.1,16.3c0.1,0.6,0.3,1.3,0.5,1.9
		c0-2.9,0-4.9,2-6.9h4c1,1,0,3,0,5c-2,4-2,10-5,13c-3,1-6,2-9,2c-5.5,2.8-9.8,7.9-13.3,12.9c-3.7,5.4-6.7,11.2-9.5,17.1
		c-3.5,7.2-6,16.5-0.4,23.4c4.4,5.5,10.7,6.4,17.2,6.9c5.7,0.5,13-0.5,18.2-3.8c3.5,5.9-3,14.4-10.3,11.6c1,1.7,2.2,2.7,3.4,3.1
		c-3.7,0.6-6.7,2.5-8.3,5.8c-9,0-20-3-23.1-11.9c2.9,0,5.9-0.5,8.5,0.9c-1.8-1.1-5.8-3.7-8-3.1c-3,0.8-2.9,6.2-1.8,8.4
		c3.8,7.1,14.1,7.2,19,13.4c-8.3,0.2-18.4,0.7-16.7,11.6c1.5,9.2,6.3,17.1,9.9,25.5c2.6,5.9,2.6,12.9-5.2,14.1
		c-7.3,1.1-13.1-7-11.8-13.8c2.3,0.7,4.9,0.8,6.7,2.7c-1.4-5.8-9-6.6-10.6-0.5c-1.4,5.6,2.3,10.6,6.9,13.4c5,3.1,12.2,3.2,17.6,0.9
		c3.9-1.6,7.2-4.7,8.9-8.6c0.7,2-0.1,4.2-1,6.1c-4,9.1-19.5,7.5-27.5,8.9c-3,1-2,6-4,8.2c0.4,3.7,4.5,2,6.6,0.9
		c1,2.4,0.9,4.8,0.1,7.2c-2.2,7.2-8.4,13.6-2.5,20.9c4.1,5,12.3,9,9.4,16.8c-4.3,11.9-19.5,0.8-15.8-8.8c0.9-2.3,2.6-3.6,4.2-5.3
		c-1.8,0.1-3.5,0.6-5.1,1.3c-1.5,0.6-4.5,1-5.5,2c1.6,0.5,2.9-0.8,4.6-0.3c0.2,1-0.7,1.8-0.6,2.8c0,0.8,0.3,2,0.5,2.8
		c0.3,1.8,0.6,3.9,1.2,5.7c0.5,1.5,2,3.3,3.2,4.5c5.5,5.1,18.6,3,19.4-5.5c0.2-1.9-0.4-3.8-1.3-5.5c0.1,0.2,3.8-1.1,4.2-1
		c0.1,1.9-0.5,3.8-0.4,5.6c0.1,2,0.3,3.6,0.1,5.6c-0.1,1-0.1,2.1-0.5,3c-0.3,0.8-0.9,1.4-1.4,2.3c-0.8,1.6-1.9,2.9-3.1,4.3
		c-1.9,2.1-4.1,2.6-6.6,3.2c-1.5,0.4-2.3,0.3-3.7-0.4c-1-0.5-2.9-0.6-3.6-1.6c1.7,0.7,3,2.3,4.6,3.1c1.8,0.9,3.7,0.5,5.5-0.3
		c3.1-1.3,5.7-4.1,7.5-7c1.4-2.1,1.8-4.4,2.9-6.5c2.1-4.1,4.6-8.9,9.5-9.9c6.8-1.4,9.8,6.2,7.6,11.6c-1.3,3.3-5.3,6.4-8.9,4.3
		c-0.6-0.4-2.3-2.3-2.6-3.5c-3.8,3.5-2.9,9.6,0,13.5c2.5,3.4,9.1,8.2,3.7,12.3c-5.9,4.4-21.1-1.3-17.4-10
		c-3.6,6.3,0.8,10.3,6.7,11.9c5.4,1.4,11,1.6,16,4.3c6.9,3.6,2.1,10.3-4.6,7.5c-2.9-1.2-5.3-3.4-8.2-4.5c-2.6-1.1-6.1-0.5-4.4,3
		c0.9,1.8,5.4,5.4,0.8,6.6c-2.8,0.7-6-2.7-6.7-5c-0.9,0.5-1,1-0.9,1.3c-1.6,2.8-1.1,6.3,2.4,7.6c4.3,1.5,9.5-0.8,12.5-3.8
		c-2.4,6.9-8,12.1-10.6,19c-2.1,5.6-2.4,11.6-2.3,17.6c0.4-8.9,3-19.1,10.4-23.8c5.3-3.4,12.4-2.7,14.1,4.2c2,7.9-5.3,13.2-7.7,19.9
		c-2.7,7.3,2.7,13.9,10.4,11.6c2-0.6,4-1.9,5.7-3.6c-1.7,7.5-8.6,25.2,4.9,24.1c-1,0.1-4.4,5-5,5.9c-1.7,2.5-2,4.6-1.2,7.4
		c1.5,5.1,3.8,9.6-2.3,12.6c-3.1,1.5-5.9-0.4-7.5-3.4c-1.4-2.5,1.2-7.9,3.6-4.4c-1.3-4-6.2-2.8-7.3,0.3c-1.1,3.1-0.9,7.4,2.1,9.4
		c3,2,7.7,1.1,10.6-0.7c2.4-1.6,4.8-3.9,5.5-6.8c0.9-3.4-0.1-7.3,1.1-10.7c1.1-3.2,4.4-5.2,6.8-2.1c2.6,3.3,1.9,7.9,0.6,11.5
		c-1.8,5-3.7,9.3-4.1,14.7c-0.3,4.9-0.4,9.5-1.9,14.3c-4.3,13.2-18.9,30.7-5.7,43.4c9,8.7,26.2,10.5,37.3,5.3
		c13.1-6.2,20.3-25.6,13.1-38.7c-3.3-6.1-11.7-10.3-18.4-7c-7.6,3.7-5,15.8,3.4,16.3c-3.3-0.6-5.2-4-4.8-7.3
		c1.2-9,11.4-2.9,14.2,1.6c4.7,7.5,2.5,16.9-5.2,21.2c-13.4,7.6-31.7-5.2-29.1-20.3c1.7-10.3,10.6-14.9,18.7-19.7
		c8.6-5.2,12.5-11.6,11.2-21.8c-0.6-4.3-1.7-9.4,0.5-13.4c1.2-2.2,4.3-5.3,7-5.2c5.9,0.3,2.1,10.5,7.3,12.5
		c-2.2-0.2-0.5-0.2-0.5-1.2c0-4.6,1.2-8.9,0.3-13.3c-0.6-3-1.2-6.4,0.3-9.1c2.2-4,7.6-4.5,11.8-6.3c2.8-1.2,5.3-3.2,7.7-5.1
		c0.6-0.5,1.3-1.1,1.5-1.9c0.2-0.8-0.1-1.6-0.1-2.4c-0.1-2.2,1.5-4.2,3.4-5.5c1.8-1.3,4-2.1,5.7-3.6c1.1-1,1.9-3.7,3.1-4.3
		c1.6-0.8,3.5,1,5.2,1.1c-1.5-2.7-3-5.3-4.4-8c-1.2-2.1-3-3.1-4.3-5c-1.5-2.2-2.3-5-3.5-7.4c-3-6.2-5.8-12.4-8.6-18.7
		c-1.2-2.7-2.3-5.4-3.2-8.2c-1-3.3-1.6-6.8-2-10.2c-0.2-1.7-1.3-3.1-1.7-4.8c-0.5-2.1-1.1-4.2-1.5-6.3c-1.3-6.2-2.6-12.4-3.3-18.7
		c-0.5-4.6-1.1-9.2-1.8-13.8c-0.3-2.3-0.9-4.5-1.1-6.8c-0.1-1.1,0-2.1-0.1-3.2c-0.2-1.2-0.4-2.4-0.4-3.6c0-0.9,0.3-1.9,1-2.5
		c0.4-0.3,0.8-0.4,1.3-0.5c2.4-0.6,4.5,0.5,6.9,0.6c4.7,0.3,9.5-0.1,14.1-1c8.2-1.6,19.3-5.8,19.6-15.7
		c18.5-3.3,13.4-22.8,12.8-36.2c-0.4-8.3,1.8-15.5,7.2-20.7c4.7-4.6,14.4-6.1,13.9-14.1c9.2-1.3,5.8-5.5,9.8-10.2
		c2.9-3.4,7.6-4.5,10.9-8.2c-1.1-4.2,2.5-6.6,7.1-6.9c-2.6-2.8-1.3-3.3-5.8-4c2.6-8.3,10.2-0.5,14.8,0c-0.1,0-0.1-0.8-0.1-0.9
		c0-0.3,0-0.6,0.1-1c0.1-0.6,0.4-1.3,0.7-1.8c0.7-1.3,1.7-2.4,2.7-3.4c0.3-0.3,0.6-0.6,0.9-0.8c0,0,0.1-0.1,0.1,0
		c0.1,0,0.1,0.1,0.1,0.2c0.1,0.3,0.2,0.7,0.4,1c0.9,2.1,1,4.5,0.2,6.6c0.5-0.2,0.8-0.6,1.2-0.9c0.2-0.2,0.4-0.4,0.5-0.6
		c0.4-0.5,0.8-0.9,1.2-1.4c0.6-0.8,1-1.6,1.4-2.5c0.2-0.5,0.3-0.9,0.4-1.4c0.1-0.5,0.3-0.9,0.3-1.4c0-0.4-0.1-0.8-0.1-1.2
		c-0.1-0.7-0.3-1.5-0.5-2.2c-0.1-0.5-0.3-1-0.3-1.6c0-0.6-0.1-1.2-0.3-1.8c-0.1-0.7-0.3-1.4-0.4-2c-0.1-1.2,0.2-2.3,0.2-3.5
		c0-0.3-0.1-0.5,0-0.8c0-0.3,0.1-0.6,0.2-0.8c0.1-0.6,0.3-1.2,0.4-1.9c0.6-2.6,1.4-5.2,1.3-7.8c0-0.5-0.1-1-0.2-1.4
		c2.2-0.5,2.8-1.5,4.8-2.2c-0.5-1-1-2.2-1.6-3.3c4.6,0.4,5.6,4.6,9.8,5.3c2.4,0.4,7.6-2.2,9.7-2.2c1.3-2.1,3.2-2.5,4.5-4.7
		c4.5,1.2,9.5-0.8,12.6-4.4c-0.4-0.5-1.3-1.4-1.7-2c1.4-2.6,1.7-5,4.7-7c0.2-0.8-0.9-0.7-0.7-1.5c5-3.7,5.7-8.4,8.1-13.1
		c1.1,0.4,2.6,0.4,3.6,0.7c0.1-1.1-0.9-1.8-0.8-2.6c2.9-2.1,4.4-5.3,4.7-9.1c-0.6-0.1-1.1-0.2-1.7-0.4c1.8-4.6,7.6-1.5,11.9-0.9
		c-0.2-1.4,0.7-2.7,0.1-4.6c1.2-0.7,2.2-1.6,3.4-2.3c-0.2,0-0.4-0.1-0.5,0v-2c14.8-1.9,0.8,13.3,1.1,17.6c3-0.7,5.8-1.7,8.7-2.8
		c0.3-1,0.1-1.8,0.4-2.8c2.2,2.6,3.1,2.8,3.9,6.8c1.9,0.1,2.9,1.1,4.7,1.3c1.4,6.8,5.4,15.4,3.9,21.6c-1.4,5.8-13,16,1,18.9
		c-3.7-2.2-4.7-6.4-3.5-10.4c11.7-6.8,11.6,18.6,14.9,23.5c-0.5-2.8,0.8-4.1,1.1-6.5c16.2-7.5,12.6,14,14.9,20.5
		c0.6-1.8,0.8-1.5,1.8-2.6c0.7,6.4,6.5,7.4,8.2,12.9c1.6,5.4-0.2,13.3,0.7,19.3c1,6.4,3.4,12-4.7,14.8c-5.8,2-13.8-1.5-12.8-7.9
		c1.2-0.4,2.3-0.1,3.5-0.2c-1.4-0.2-3.2-0.2-4.5,0.2c-5.4,9.4,11.4,15.4,17.1,9c8.5,2.9,4,11,4.5,17.1c0.5,6.6,6.4,12.8-2.9,17.7
		c8.1,5.2,2.8,9.2,3.1,16c0.3,7,3.9,10,1.3,17.2c-1.8,5.1-5.9,10.2-11,12c-4.8,1.7-13.7,0.6-8.6-6.3c-15,10.6,12.2,8.9,17.4,7
		c2,2.6-0.1,5.7,0.9,7.1c1.2,1.7,5.9,3.4,6.4,4.7c1.3,3.6,0.6,6.8-0.3,10c-3.5,6.7-7.2,14.7-9.8,22.1c-2.4,7-2.5,14.3-3.8,21.5
		c-1.2,7.1-4.2,13.5-7.3,20c-2.9,6.1-5,12.3-7.1,18.7c-2.9,8.9-7.5,18.3-4.1,27.8c3.3,9.1,11.3,15.1,19.5,19.4
		c7.6,4,14.6,7.9,19.9,14.8c3.5,4.7,8.4,13.1,1.9,17.6c4.7,1.7,6.3-5.8,8.5-8.4c2-2.4,5.4-2.2,7.5,0.1c2.7,3,2.7,7.6,3.1,11.3
		c0.4,4.7,1.4,8.9,4.7,12.4c3.1,3.3,6.3,5.7,7.4,10.4c2.1,8.7-2.8,18.3-7.1,25.5c-2.2,3.7-4.5,7.6-3.1,12c1.2,3.8,4.7,5.9,8,2.7
		c-8.9-1.8-0.7-11.6,2.3-15.2c6.6-8,10-16.5,9.1-27.1c-0.7-9-6.1-15.5-8.8-23.8c-2.6-8,1.6-11.7,7.3-16.5c1.5-1.2,2.8-2.8,3.7-4.5
		c1.6-3.1,1.8-7.8-0.2-10.8c-1.2-1.8-3.1-2.9-5.2-2.7c-2,0.1-3.9,1.3-4.8,3.1c-0.9,1.8-0.7,3.9-0.5,5.8c0.1,1.1,0.4,2.2,1.1,3.1
		c-0.1-2.2,0.2-4.3,0.6-6.4c0.3-1.3,2.2-0.1,2.8,0.5c2.6,2.6-1.5,5.9-3.5,7.1c-1.2,0.7-2.5,1.4-3.9,1.4c-1.9,0.1-3.8-1-4.6-2.6
		c-1-2-0.3-4.2,0.6-6.2c1.1-2.2,2-4.2,2.8-6.5c0.2-0.5,0.3-1,0.2-1.5c-0.1-0.5-0.5-0.9-0.9-1.1s-0.9-0.3-1.4-0.4
		c-0.5-0.1-1,0-1.5-0.1c-0.4-1.3,1.9-3.5,2.7-4.3c1-0.9,2.1-1.8,3-2.7c0.8-0.7,1.7-1.4,2.1-2.4c-1.5,0.7-3.2,0.8-4.7,0.2
		c-0.6-0.2-1.1-0.5-1.5-1c-0.8-0.9-0.8-2.3-0.1-3.3c0.6-0.8,0.9-1.5,1.5-2.2c1.9-2.1,4-3.7,6.3-5.4c1-0.8,2.2-1.7,2.3-3
		c-1.2,1.1-3,1.3-4.6,1.5c-0.8,0.1-1.6,0.2-2.4,0s-1.5-0.8-1.6-1.6c-0.4-2.1,2.1-3.7,2.5-5.7c0.3-1.4,0.2-2.9-0.3-4.2
		c-0.4-1.2-0.5-2.6-1.5-3.4c0.5,0.8,0.3,1.8-0.1,2.6c-0.6,1.5-1.5,2.9-2.9,3.6c-1.4,0.7-3.3,0.6-4.4-0.5c-0.4-0.4-0.6-1-0.8-1.5
		c-1.4-4.5,1.2-9.2-2.6-13c-0.8-0.8-1.7-1.4-2.4-2.3c-0.4-0.5-0.7-1.2-0.9-1.8c-0.5-1.4-0.7-2.7,0.2-3.9c0.8-1.1,1.9-1.7,3.1-2.1
		c4.3-1.1,10,0.9,13.6,3.2c1.6,1,4.6,2.8,5.5,4.4c0.7,1.3-1,2.5-1.6,3.6c-0.7,1.1-1.7,3.9-1.3,5.1c0.5,2,3.1,3.7,5.1,3
		c2.3-0.8,2.4-3.8,2.1-5.9c-0.1-0.7-0.5-6.3-2.5-4.6c-0.8,0.7,0.4,2.1,0.6,2.8c0.4,1.2,0.1,1.9-0.6,2.9c-1.3,1.7-3.4,1.8-2,4.3
		 M352.5,342c-1.1-2.1-2.7-4.1-3.9-5.9c-1.1-1.6-5.3-7.8-1.4-9c2.2-0.7,4.6,3.3,5.4,4.8C354.2,334.9,355.2,339.3,352.5,342z
		 M356.8,203.5c-6.3-2.4-11.2-7.5-10.6-14.6c0.6-7.6,5.9-13.8,10.4-19.6c3.4-4.5,7.8-11.6,13.7-13c3.6-0.9,5.7,1.8,7,4.8
		c1.7,4,0.7,8.6,4.3,11.6c2.9,2.4,4.9,4.1,5.8,8.1c0.7,3.3,0.5,7.2-1.1,10.2c-1.4,2.7-3.4,3.9-5.5,2.9c1.4,3,1.9,6.8-2.5,7.5
		c-5.7,0.8-10.9-8.8-11.3-13.4c-0.4,3.8-1,8.7,1.5,11.9c2.9,3.8,7.6,1.5,10.9,4.1C372.5,206.8,363.5,206,356.8,203.5z M378.2,446.4
		c-6.6,0.8-9-7.9-5.3-12.3c2.3-2.8,6.9-4.2,9.9-1.5c2.8,2.5,2.3,6.8,1.6,10.2C382.6,444.8,380.4,446.2,378.2,446.4z M439.8,273.7
		c2.3,3.2,3.1,2.9,7.1,2.1c1,3.2,2.6,6.4,4.1,8.4c2.2-1,4.5-0.1,6.9-0.4c0.7,1.3,1.5,1.9,2.2,2.9c6-2.9,8.5,1.3,3.7,5.8
		c-8.8-2.9-23.4-0.7-27,8.8c-0.3-1.5-0.6-3-0.6-4.5c0-3.7,4.5-14.2-0.6-16.1l-0.5,1C436.3,278.8,438.4,275.8,439.8,273.7z
		 M436.9,303.4c-0.1-0.1-0.2-0.2-0.3-0.4c0.1-0.1,0.1-0.2,0.2-0.3C437,303.1,437.1,303.3,436.9,303.4z M436.3,302.6
		c-0.1-0.2-0.3-0.4-0.4-0.7c0,0,0.2,0.1,0.5,0.4C436.3,302.4,436.3,302.5,436.3,302.6z M464.8,303.3c-0.1,0.1-0.1,0.1-0.2,0.1
		c0,0,0-0.1,0.1-0.1c0.3-0.8-0.2,0-0.2,0.2c-0.4,0.2-0.8,0.2-1.1-0.1c0.1-0.6,0.4-1.2,0.9-1.7c-0.4,0.3-2.3,1.6-2.9,1.9
		c0.4-0.4,0.9-0.8,1.3-1.3c0-0.1,0.1-0.2,0.1-0.4c-1.2,1.3-3.3,2.8-4.8,4.1c-0.6-0.7-1.1,0-1.8,0.3c-0.1-0.6,0.1-1.2,0.4-1.8
		c-3.8,1.2-10.6,2-14.4,2.7c0.5-1.3,0.2-0.5-0.8-0.8c0.4,0,0.9,0,1.3,0c-0.8-0.3-1.7,0.3-2.5-0.2c-0.1-0.6-0.2-1.1-0.3-1.7
		c-0.7,0-1.5-0.1-2.3-0.3c0,0,0,0,0,0c-0.2-0.6-0.4-1.3-0.5-1.9c7.3-10.9,21.6-2.4,31.8-5.8c-0.1,1.5-0.1,1.8-0.6,3.2
		C467.7,300.3,465.2,302.9,464.8,303.3C465.2,302.9,465.2,302.9,464.8,303.3z M467.7,301.4c0.2-0.5,0.4-1,0.5-1.5
		c0.2,0,0.7,0.1,0.6,0.4C468.8,300.1,466.9,302.4,467.7,301.4z M794.2,270.6c4.3,1.5,8.4,1.1,12-0.5
		C801.9,274.5,794.7,278.1,794.2,270.6z"/>
	<path class="st8" d="M1257,371c-1,0-2,0-3,0"/>
</g>
<g id="linework-neck-outline">
	<path class="st9" d="M439.9,453.9c1.7-1,3.4-2.2,5.1-3.3c-0.1-0.1-0.4-0.1-0.5-0.1c5.4-3.7,12.7-5.9,16-12c2.2-4,2.6-8.6,2.9-13.1
		c0.3-4.3,1.7-8.9,1.7-13.1c2.6,3.3,5.4,8.9,7.7,10.9l-0.7,0.7c0.5,0.8,1,1.6,1.2,2.5c-1.2-0.3-2.5-0.4-3.7-0.7
		c0.9,8.7-1.4,19.9,2.8,27.9c-0.1-0.6-0.2-1.2-0.4-1.8c0.4,4,0,8.9-4.8,9.7c0.7-0.3,1.3-0.7,2-1c-1.8,2.1-3.8,4.1-2.8,7.1
		c2,6,6,11,6,17c0,17,3,34,15,47c1,2,2,4,2,6c-2,14,7,24,15,34s16,18,25,27c4,3,8,6,12,9s5,7,6,11c5,21,23,34,42,37c5,1,10,0,15-1
		c14-7,22-23,24-38c0-4-2-8-3-12c0-2-2-4-3-6c-2-9,8-12,13-18c0-11,5-21,9-31c3-8,2-18-7-22c-2,0-5,0-7.8-0.9c0.3,0,0.6,0,0.8,0
		c-2.2,3.9-4,8.4-7.7,11.2c0.4,0.1,0.8,0.2,1.2,0.3c-2.1,2.8-5.5,5.3-9.2,4.4c1.2-2.1,2.4-4.1,3.2-6.4c-2.3-0.7-4.5-1.9-6.4-3.5
		c0.3-0.1,0.6-0.2,0.8-0.5c-3.3-1.5-2.2-6.1-1.2-8.7c-2.2,0.5-2.2-2.6-1.9-4c-0.5,0-1.1-0.1-1.6,0c0.5,0,1,0,1.6,0
		c-6.3,0.2-13.1,4.1-19,0.6c0.3-0.3,0.6-0.5,0.9-0.7c-1.1,0.2-8.4,2.2-5.2,3.9c-2.2,0.1-4.4,0.2-6.5,0.3c0.5,0.4,1.1,0.8,1.7,1.2
		c-3.6,2.4-8.2,1.2-12.2,1.3c0.8,0.3,1.6,0.7,2.4,1.2c-3.8-0.8-4.1,4.5-2.7,6.7c-3.2,0.4-5.8,2.5-8.5,4c2.3-3,2.8-6.8,3.2-10.5
		c-1.5,0.5-3,0.8-4.5,1.1c0-0.6-0.3-1.2-0.2-1.8c-6.2,1.8-10.2-6.2-15.8-6.6c1.3-0.1,2.6-0.2,3.9-0.3c-1.2-0.3-1.2-1.3-2.2-1.3
		c-1-2-2-5-4-6c-6-1-14-2-16-7c-4-7-4-16-10-22s-11-12-17-18c-5.8-5.8-7.4-14.6-10.6-21.9c-0.2-0.2-0.2-0.2,0,0
		c5.7,5.7,11.7,12.1,16,18.5c14.9,22,39.2,40.1,67,38.8c-0.6,0.1-1.2,0.2-1.8,0.3c12.5,2.2,25.5,2.2,36.5-2.8c8-4,16-9,23-16
		c7-8,13-16,20-24c5.5-6.3,12.8-10.2,17.9-16.9c5.5-7.1,10.4-14.4,15.2-22c4.3-6.7,9.4-13.2,12.8-20.1c-0.7,6.3-3.3,13.6-6.5,19.3
		c-8.7,15.7-18.9,35-1.4,49.6c17,6,31,16,46,27c5,3,11,5,17,8c29,11,56,24,87,33c10,2,17,9,26,14c1,1,3,1,3.7,1.1
		c-4.2,6.4-5.9-2.5,0,0c-4.2,6.4-10.5,11.8-9.3,20.2c1.2,8.5,7.7,14.9,11.2,22.4c-3.1-0.6-3.2-6.9,0,0c-4-0.8-12.8-2.8-13.7,3.2
		c6.1-0.2,5.4,7.1,4.4,11.2c-1,4.3-0.4,10.9-4.8,13.2c-3.7,1.9-8.2,1.4-11.9,3.7c-4.4,2.7-5.8,8-6.1,12.8c-13.3-6.2-13.3,24.2-12,31
		c-6.1-1.5-13.2-2-17,3.9c-3.7,5.7-4.1,12.9-8.1,18.6c-7.4,10.7-20.7,17.5-33.7,17.4c1.2-1.4,5.2-1.1,6.8-0.4
		c-2,0.7-4.7,0.4-6.8,0.4c1-8-20.6,3.1-24,4.3c-10,3.5-20.4,1.6-30.7,1c-10.9-0.7-21.8,1.3-32.8,2c-11,0.7-22,1.1-33,2
		c-11.2,0.9-22.4,2.3-33.3,4.9c3.2-2.8,7.5-4.9,9.5-8.9c-13.9-4.5-28.6-0.4-42.8-2.3c1.2-0.8,2.4-1.7,3.8-2
		c-5.9-9.1-21-0.1-28.2,2.4c-7.6,2.7-15.6,1.3-23.3,0c-8.8-1.4-17.5-3.3-26.3-4.4c0.9-0.7,1.8-1.4,2.8-2.1c-4.6-5.4-13.5-4-19.7-4.9
		c1.8-9.5-8.7-14.2-15.4-18.1c-5-2.9-9.8-6-15.4-7.6c-6.8-2-14.1-1.9-21.2-2.4c1.5-2,5.2,0.5,0,0c1.8-2.2,3.7-6.6,1.7-9.2
		c-2.4-3.1-8.7-5-12.2-6.3c-4.8-1.8-9-2.7-14.1-2.4c-5.1,0.3-10.2,1.1-15.3,0.9c0.4-1.5,0.4-3.1,0.7-4.7c-10.9,5.1-20-3.7-30.3-5.7
		c-6.8-1.3-13.7-0.2-20.5,0.1c-7.3,0.4-14.7,0.6-21.9-0.7c0.9-2,5.2-0.5,2.2,0.3c-3.8,1-1.4-3.5-0.8-5.2c1-2.9,1-4.6-1.5-6.6
		c-11.1-9.1-23.6-16.7-35.2-25.3c1.3-1.4,1.9-3.3,3-4.8c-11.8-1.9-22,4.8-32.7,8.4c7.1-8.5,16.1-14.5,23-23.6c-4.3-2-4.2,4.6,0,0
		c-4.3-2-4.4-3.7-1.3-7.4c3-3.5,6.6-6.6,10.3-9.3c7.7-5.6,16.2-9.9,24.2-14.9c9.4-5.9,18.6-12.2,27.4-19c8.6-6.6,17.3-13.1,27.1-18
		c8.6-4.3,17.9-7.4,26.1-12.5c7.7-4.7,14.7-11.1,21-17.7c6-6.4,10.2-14.2,14.6-21.7c3.6-6.1,7.7-13.5,14.5-16.5"/>
</g>
<g id="greys3_2_">
	<path class="st16" d="M615.3,358.9c-1.3,1.6-3.2,2.7-5.2,3c-1.4,0.7-2.9,1.2-4.5,1.4c-4.3,0.7-12.6,0.9-15.7,4.6
		c-1.9,2.3-0.6,1.9,0.8,4.3c0.9,1.7,2.3,5.5,1.4,7.3c-0.5,0.9-3,1-3.2,1.5c-0.3,0.9-0.6,1.8-0.5,2.7c0.2,0.8,1,1.6,1.7,2.1
		c-1.6,2.1-2.9,0.1-4.3-0.8c-0.8-0.5-1.8-0.5-2.8-0.4c-4.5,0.3-9,0.6-13.5,0.9c-1.3,1.9-0.1,5,2.1,5.6l-1.2-0.2
		c4.7,3.1,12,2.6,17.1,0.4c1.7-0.7,3.5-2.7,5.2-3c2.1-0.4,4.7,1.1,6.8,1.2c0.4,0,11.3-6.7,8.2-1.5c0.5,0.5,1.3,0,1.8-0.4
		c1.1-0.9,2.3-1.8,3.4-2.7c-1,0.5-2.4-0.7-1.9-1.8c0.2-0.6,0.8-0.9,1.1-1.4c3.1-4,4.4-10.1,4.2-15.2
		C616.1,363.9,615.1,361.4,615.3,358.9z"/>
	<path class="st16" d="M621.9,346.7c-0.3,1.6-1.6,2.9-2.8,4.1c-0.5,0.5-1,1-1.6,1.5c-0.2,0.6-0.4,1.1-0.6,1.6c0,0.1,0,0.1,0,0.2
		c0,0.3,0,0.5,0,0.8c1-1.2,2.2-2.1,3.3-3.2C621.5,350.2,622.4,348.4,621.9,346.7z"/>
	<path class="st16" d="M678.4,291.6c-2.4-2.2-3-6.4-1.5-9.4c-0.3-0.4-0.5-0.8-0.8-1.2c-0.6-1.2-1-2.4-1-3.7c-3.9-1.2-8.3-1-12.5-0.3
		c-2.4,0.4-4.9,1-7.3,1.2c-4.6,0.5-9.3,0.2-13.8-1c-1.2-0.3-2.4-0.7-3.7-0.9c-1.3-0.1-4.1-0.2-5.2,0.5c-1,0.5-0.6,1.1-1.5,1.9
		c-0.7,0.6-3.1,2-3.4,2.8c-0.6,1.8,1.9,2.3,0.3,3.9c-1.1,1.1-7.1,0.4-8-0.8c1.7,2.5,4.6,4,7.6,4c-0.7,0-1.3,0-2,0
		c0.5,1.2,1.9,2.1,3.3,1.9c0,0.7,0,1.3,0,2c-1.4,0-2.9,0-4.3,0c-0.6,0-1.4,0.6-0.9,1c1.4,0.5,5.6,1.1,5.7,3c0,1.7-2.9,2.4-4.1,2.5
		c1.4,0.2,2.6,1.4,2.1,2.9c-0.3,1.3-1.6,1.7-2.7,1.6c-0.3,0-0.7-0.1-1-0.2c-1.5,2.2-4.1,3.8-6.7,3.7c-0.3,0-0.7,0-1,0
		c-0.1,0.4-0.2,0.7-0.3,1.1c-0.2,3.5-1,6.1-0.8,9.8c0,0.9,0.1,1.7,0.4,2.5c0.3,0.8,0.9,1.4,1.3,2.1c1.3,2.5,0.8,5.7,2.4,8
		c0.5,0.7,1.1,1.2,1.6,1.9c1.5,1.8,2,4.1,2.6,6.3c0.8-1.7,0.9-3.6,0.9-5.4c0-2.7,0.1-5.5-1.2-7.9c-1.1-2.1-1.7-3-0.4-4.9
		c1.6-2.4,4-1.5,3.6-4.8c-0.3-2.1-3.2-6.8-4.4-8.4c0.2,0,1.7-0.3,1.8-0.1c0.6,2.4,4.2,3.3,5.8,1.4c0.1,1.1,1.2,1.9,2.3,2
		c1.1,0.1,2.2-0.2,3.2-0.6l7.5-2.7c-2.3-2.6-4.2-5.6-5.4-8.9c-0.2-0.5-0.4-1.2,0-1.6c0.2-0.3,0.6-0.5,1-0.6c1.5-0.5,3-0.9,4.5-1.4
		c-1.6-1.1-0.4-4.3,1.6-4c-0.6-1.3-2.2-1.7-3.4-2.5c-1.2-0.8-1.5-3.1-0.1-3.4c-0.7-1.3-1.4-2.7-2.1-4c4.4-0.3,8.9,1.1,13.1,0.5
		c5.2-0.8,9.5-1.3,14.9-1.1c0.5,1,0.2,2.2-0.6,2.9c1.4-0.1,2.7,0,4.1,0c-0.6,0.9,0,2.2,0.9,2.7c1.3,0.8,3.2,0.9,4.6,1.5
		c0.5,1.6,1,3.3,1.5,4.9c0.9,0,1.7,0.1,2.6,0.1C679,292.2,678.7,291.9,678.4,291.6z"/>
	<path class="st16" d="M680.7,293.2c0,1.1,0,2.1,0,3.2l-1.5,1.2c1.5-1.1,3-2.4,4.3-3.7C682.5,293.8,681.6,293.6,680.7,293.2z"/>
	<path class="st16" d="M541.1,312c-0.8-1.1-1.2-2.4-1.5-3.8c-2.7-1.3-4.2-4.1-4.6-7.2c-0.4-3.1,0.1-6,1.1-8.8
		c-2.4,0.1-3.3-3.7-0.7-4.4c0.6-0.1,1.1-0.3,1.7-0.6c0-0.4,0-0.9,0.1-1.3c-0.1,0-0.1-0.1-0.2-0.1c-0.9-0.4-1.6-0.9-2.2-1.6
		c-1.5,0.7-3,1.3-4.6,1.5c-1.2,0.2-2.4-0.3-2.7-1.6c-0.3-1.1,0.4-2.5,1.6-2.7c1.5-0.3,2.8-0.8,4.2-1.4c0,0,0-0.1,0-0.1
		c-0.1,0-0.2-0.1-0.3-0.1c-1.6-0.8-2.7-1.9-3.3-3.1c-0.1,0.1-0.3,0.3-0.5,0.4c-1.6,0.8-3.7,4-5.1,4c2.6-0.6,1.1,2.9,0.3,3.6
		c-1.1,1.1-2.9,0.9-3.9,2.1c0.9,0.7,1.9,1.4,3,1.9c-1.2,0.2-2,1.5-2.1,2.8c-0.1,1.2,0.4,2.5,0.8,3.6c1.9,1.1,4,1.9,6.1,2.3
		c-0.9,3,2.8,6.3,5.7,4.9c-0.4,3.2-0.8,6.5-1.2,9.7c-0.2,1.9-0.2,4.3,1.5,5.2c1,0.5,2.2,0.3,3.1,0.9c0.9,0.7,1.1,2.1,0.7,3.1
		c-0.4,1.1-1.3,1.9-2.1,2.7l-0.9,2.2l2.7-3.3c2.2-2.7,4.4-5.4,5.8-8.5C542.7,313.8,541.8,313,541.1,312z"/>
	<path class="st16" d="M541.7,359c-0.4,1.2,1.2,2.2,2.5,2.2c1.3,0,2.8-0.2,3.7,0.8c0.3,0.3,0.5,0.8,0.9,0.9c0.5,0.2,1.1-0.1,1.6-0.2
		c1.5-0.2,2.6,1.3,4.1,1.6c0.8,0.2,1.6,0,2.4-0.3c2.8-0.8,5.6-1.5,8.4-2.3c0.3,0.7-0.3,1.4-0.9,1.8c-0.6,0.4-1.4,0.8-1.6,1.5
		c-0.2,0.6,0,1.2,0.1,1.7c0.1,1.2-0.5,2.3-1,3.3c-0.5,0.9-0.9,1.8-1.4,2.6c-0.6,1.2-1.3,2.5-1.9,3.7c0,3.9-3.9,7.2-7.7,6.7
		c1-1.5,1.6-3.3,1.5-5.1c0-0.4,0-0.9,0.1-1.3c0.1-0.4,0.4-0.7,0.7-1c0.4-0.4,0.7-0.9,0.9-1.4c0.4-0.8,0.6-1.7,0.3-2.5
		c-0.4-0.8-1.5-1.2-2.2-0.6c0-1.5-2-2-3.6-2.1c-4.2-0.3-8.3-1.7-11.7-4.1c-0.5-0.4-1.1-0.9-0.9-1.5c0.7,0,1.5-0.1,2.2-0.1
		c0.3-1.4,1.5-2.7,2.9-3.1c0.2-0.1,0.5-0.1,0.6,0.1c0.1,0.2-0.1,0.5-0.2,0.4"/>
	<path class="st16" d="M602,286.9c-0.7-1.7-1.5-3.5-1.9-5.3c-0.3-1.2-0.4-2.5-0.9-3.7c-0.5-1.2-1.5-2.2-2.8-2.4
		c0.1,4.2,0.2,8.4,0.3,12.5c0,0.9,0.4,2.1,1.3,1.9l0.7,0.4c0.6,0.5,1,1.1,1.4,1.8C600.1,290.1,600.8,288.3,602,286.9z"/>
	<path class="st16" d="M620.9,333.2l0,1.1c0.1,1.3-4.2-4.8-4.4-5.2c-1.5-2.6-3.5-3.6-5.5-5.7c-1.6-1.7-0.7-7.3-1.1-9.5
		c-0.5-3.1-1.4-6.2-2.3-9.2c-0.5-0.3-1-0.6-1.5-1c-2.6-2-4.4-4.7-5.4-7.7c0,1.8-0.3,3.7,0,5.5c0.2,1,0.5,1.9,0.8,2.8
		c0.4,1.1,0.8,2.1,1.1,3.2c1.3,3.8,2.7,7.5,4.2,11.2c3,7.2,7.4,16,12.7,21.8c1.4,1.6-0.1,3,1.5,4.1c1-1.4,1.2-3.1,1.5-4.8
		c0.2-1.2,0.3-2.4,0.1-3.6C622.7,334.9,622,333.8,620.9,333.2z"/>
	<path class="st16" d="M561.4,276.2c0.8,0.1,1.6,0.2,2.3,0.5c0-0.2,0-0.4,0-0.5c0-1.1-0.1-2.3,0-3.4c0.3-2.3,1.9-4.4,1.2-6.6
		c-1,0-2.1-0.1-3.1-0.1c1.1,1.1,1.4,2.9,0.8,4.3c-0.3,0.6-0.7,1.2-0.9,1.9c-0.3,1.2,0.2,2.5-0.2,3.7
		C561.5,275.9,561.4,276,561.4,276.2z"/>
	<path class="st16" d="M556.5,292.9c-0.1,1,0,2,0.2,2.9c0.1-1,0.2-2,0.4-3.1C556.9,292.9,556.7,292.9,556.5,292.9z"/>
</g>
</svg>
