<?xml version="1.0" encoding="utf-8"?>
<!-- Generator: Adobe Illustrator 16.0.0, SVG Export Plug-In . SVG Version: 6.00 Build 0)  -->
<!DOCTYPE svg PUBLIC "-//W3C//DTD SVG 1.1//EN" "http://www.w3.org/Graphics/SVG/1.1/DTD/svg11.dtd">
<svg version="1.1" xmlns="http://www.w3.org/2000/svg" xmlns:xlink="http://www.w3.org/1999/xlink" x="0px" y="0px" width="900px"
	 height="900px" viewBox="0 0 900 900" style="enable-background:new 0 0 900 900;" xml:space="preserve">
<style type="text/css">
<![CDATA[
	.st0{fill:none;stroke:#000000;stroke-miterlimit:10;}
	.st1{display:inline;}
	.st2{display:none;}
	.st3{fill:none;stroke:#666766;stroke-width:2;stroke-miterlimit:10;}
]]>
</style>
<g id="original" class="st2">
	
		<image style="display:inline;overflow:visible;" width="1001" height="720" id="Background_copy_xA0_Image_2_" xlink:href="5A09DCE2E54FC9D9.png"  transform="matrix(1 0 0 1 0 180)">
	</image>
</g>
<g id="background-shade" class="st2">
	<g id="eVKz2L_1_" class="st1">
		
			<image style="overflow:visible;" width="734" height="541" id="eVKz2L_2_" xlink:href="5A09DCE2E54FC9C1.jpg"  transform="matrix(1.3638 0 0 1.407 0 172.6055)">
		</image>
	</g>
</g>
<g id="houtline">
	<path class="st3" d="M482.379,704.005c15.349-8.424,29.228-21.067,41.62-37.516c33.628-44.635,47.116-96.45,60.711-149.872
		c11.779-46.286,12.035-98.221-8.221-143.266c-8.247-18.337-20.607-33.838-35.78-47.724c-24.115-22.068-57.053-32.587-89.298-33.897
		c-23.639-0.96-60.181,2.377-82.239,11.367c-23.831,9.728-42.68,27.275-55.328,49.535c-9.94,17.494-21.007,45.954-22.702,66.019
		c-1.437,17.011-3.378,36.631-2.709,53.94c2.312,59.865,15.49,126.063,53.253,174.4c16.446,21.052,28.069,54.723,55.254,63.177
		C429.178,720.192,457.682,717.561,482.379,704.005z"/>
</g>
<g id="neck">
	<path class="st3" d="M321.333,615c2.295,3.001,2.862,8.632,3.019,12.261c0.226,5.227,1.315,10.066,1.923,15.318
		c1.441,12.454,0.234,25.054,1.683,37.499c2.714,23.325,10.561,45.756,19.009,67.539c7.568,19.515,26.274,31.021,37.317,49.248
		c9.937,16.402,22.347,29.128,34.698,44.372c16.811,20.751,25.515,29.044,44.037,6.006c11.948-14.862,25.145-30.034,33.614-47.061
		c8.996-18.084,13.924-36.61,18.912-55.638c5.445-20.777,14.734-39.514,15.007-62.604c0.1-8.471-2.47-19.524,2.446-26.941"/>
</g>
<g id="shoulderL">
	<path class="st3" d="M45.478,855.074c6.216-19.585,25.523-33.021,42.158-39.932c19.453-8.08,32.875-25.712,50.712-37.348
		c18.808-12.27,40.095-19.33,58.997-32.048c16.983-11.426,30.993-25.409,49.625-33.956c27.875-12.786,47.911-47.604,80.695-49.459"
		/>
</g>
<g id="shoulderR">
	<path class="st3" d="M529.5,664c1.021,4.007,9.663,4.495,13.194,5.929c5.378,2.183,10.413,5.188,15.296,8.299
		c9.704,6.183,18.749,13.525,28.912,18.97c19.319,10.349,41.103,11.774,60.439,21.685c39.123,20.051,79.943,31.069,116.046,57.093
		c15.406,11.105,32.609,29.748,42.16,46.187c12.867,22.146,13.697,45.862,30.975,67.242"/>
</g>
<g id="grid-vert">
	<line class="st3" x1="451.411" y1="291.73" x2="433.591" y2="716.235"/>
</g>
<g id="grid-horiz-eye-top">
	<path class="st3" d="M328.596,460.59c12.344,5.585,37.448,1.322,52.498,1.5c19.42,0.229,38.734,1.5,58.497,1.5
		c39.948,0,82.474-2.264,119.994,7.5"/>
</g>
<g id="grid-horiz-eye-bot">
	<path class="st3" d="M346.596,484.589c-0.76,0.89-3.79-1.114-1.714,1.166c31.416,3.665,64.312,4.866,97.709,4.834
		c34.933-0.034,70.076,6.49,104.994,3"/>
</g>
<g id="grid-nose-hr">
	<line class="st3" x1="402" y1="569" x2="476" y2="569"/>
</g>
<g id="grid-mouth-hr">
	<path class="st3" d="M382.594,618.082c33.75-3.375,69.252,3,104.995,3"/>
</g>
<g id="linework-left-eye">
	<path class="st0" d="M329,462c0.381,0.183,4.423-1.267,6.46-1.425c-0.636,0.475-1.703,1.844-2.42,2.325
		c1.337-0.203,3.022,0.298,4.373,0.187c1.439,2.579,6.278,1.614,8.587,0.138c2.653,0.702,7.82-0.766,10.326-1.635
		c-0.766,0.604-1.355,1.339-2.149,1.933c2.782-0.491,5.481-1.907,8.138-2.557c-0.732,3.711,7.652,1.565,8.685,1.022
		c2.8,0.112,8.746,0.442,12.474,0.438c4.059-0.005,9.104,0.685,12.926,0.648c2.745,1.293,5.201,3.131,8.424,3.976
		c-0.027-0.129-0.693-0.844-0.773-0.95c1.936,0.477,1.256-0.115,2.534,1.326c2.51-0.573,4.343,0.322,4.001,3.01
		c2.17-0.153,4.759,0.359,6.713-1.484c-0.08,0.321-0.455,0.78-0.6,1.074c0.824,0.736,1.281,0.684,1.887,1.89
		c2.348,0.632,3.983,0.004,6.335,0.694c-0.156,0.386-0.258,0.784-0.306,1.196c1.793,0.464,3.345-1.103,5.001-1.767
		c-0.77,0.309-1.798,6.493-2.392,7.54c-1.013,1.784-3.739,4.691-6.139,3.985c-0.118,1.729,0.937,3.271,2.337,4.299
		c-1.475,1.973-1.957,4.402-2.351,6.54c0.284,0.064,0.568,0.129,0.853,0.193c-0.57,1.283-1.759,2.51-3.215,3.392
		c0.83,3.164-1.556,7.021-2.454,9.962c-1.229,4.02-1.65,7.993-4.011,11.545c-2.13,3.205-3.228,5.069-3.641,9.093
		c-0.408,3.977-0.299,8.342-3.128,11.525c-0.317,0.356-4.228,4.958-3.538,4.773c-3.895,1.043-4.765,4.569-5.437,7.964
		c-0.093-3.12,0.355-7.829,1.124-10.226c0.987-3.078,4.247-5.115,3.301-9.073c-0.52,0.434-1.354,0.69-1.95,1.273
		c-0.236-2.293-0.069-4.71,1.46-6.248c-2.625,1.146-3.847,4.552-3.912,7.248c-0.131-0.012-2.34-0.383-2.398-0.399
		c-1.686-1.763-0.243-6.003,0.689-7.411c-0.043-0.277-0.649-0.528-0.739-0.891c2.592-2.186,0.384-4.534-0.124-6.536
		c-0.586,0.325-1.37,0.194-2.089,0.838c-0.598-0.127-1.031-0.503-1.777-0.511c-0.449-0.697-0.853-2.206-0.873-2.925
		c0.725-0.329,1.778-1.307,2.36-1.488c-1.824-0.485-3.625-0.369-5.571-0.227c-1.719-0.89-2.658-2.129-3.915-3.362
		c-0.229-0.676-0.147-1.32-0.4-1.948c1.865,0.001,3.557-0.344,4.873-1.465c-1.26-0.479-2.296-1.733-3.384-2.413
		c2.44-0.141,4.437-2.769,6.398-3.614c-1.278-0.92-1.674-2.004-2.512-3.363c0.641-1.247,1.231-2.113,2.853-2.694
		c0.532-1.139,0.748-2.62,0.508-3.841c-6.126-0.584-11.541-2.084-17.362-3.487c-0.167,0.292-0.146,0.571,0.065,0.839
		c0.202,0.193,0.217,0.184,0.047-0.027c-1.778-0.923-3.172-0.44-3.758,1.526c-2.814,0.538-8.25-2.17-8.637,1.627
		c-0.102,0.013-0.391-0.772-0.652-0.478c-0.18,0.188-0.363,0.372-0.55,0.553c1.622,1.034,4.078,1.45,4.51,3.788
		c0.8,0.227,1.888,0.826,2.375,0.974c-2.424,0.098-4.647-0.467-6.861-0.824c-0.416,0.692-0.981,2.615-1.037,3.297
		c2.823,3.791,5.4,5.471,10.35,5.224c0.001,0.314,0.175,0.714,0.375,0.927c-3.938,1.349-12.142-0.187-14.788-2.45
		c-4.013,3.911-7.268-5.348-10.323-6.423c0.543-0.167,0.958-0.586,1.749-0.713c-0.602-3.391-0.529-7.048-1.952-9.301
		c-1.102-1.745-5.278-4.469-6.933-5.012c2.298,0.37,4.852,0.033,4.883-2.528c-1.337-0.128-2.291-0.833-3.726-0.561
		c-1.856-1.561-2.805-5.999-6.621-5.6c-0.271-0.672-0.56-2.734-0.513-3.34c1.106-0.079,1.749-0.886,2.499-1.071
		c-0.854-1.939-1.84-3.516-3.986-3.589c-0.132-1.991-0.659-2.677-2.538-3.534c-0.039-0.938,0.667-0.444,0.962-0.891"/>
</g>
<g id="linework-right-eye">
	<path class="st0" d="M479.667,558.004c1.075-1.355-3.587-6.425-4.61-7.723c0.174-2.208-1.521-4.222-0.107-5.861
		c-1.604-1.8-4.393-1.612-4.672-4.359c-1.584-0.673-2.93-2.02-3.236-3.739c1.377-0.93,1.079-2.046-0.323-2.718
		c0.697-2.934,0.79-5.357,1.231-8.215c-1.44,0.303-2.441-0.143-2.339-1.661c-0.306-0.276-0.479,0.124-0.66-0.373
		c3.396-3.351-0.306-7.517-2.982-10.017c0.491-0.341,0.905-1.328,1.398-1.667c-2.1-4.978-5.549-9.158-3.065-14.582
		c-2.848-0.918-4.6-5.312-3.899-8.352c0.175-0.757,1.56-0.501,1.865-1.134c0.397-0.824-0.121-1.868,0.311-2.689
		c0.915-1.745,2.561-1.492,2.041-4.191c-0.359-0.004-0.71,0.133-0.977,0.158c-0.12-0.111,0.206-0.663-0.023-0.83
		c-1.761-0.265-1.671-1.857-0.316-2.805c-0.644-1.476,0.455-2.793,1.999-2.84c-0.829,1.04-0.594,1.734-0.242,2.873
		c1.1-0.281,1.699,0.067,2.55-0.907c-0.287,1.055-0.477,2.151-0.558,3.249c1.349-0.142,2.211-0.409,3.559-0.668
		c0.316-1.058,0.735-1.913,1.166-2.905c-0.068,0.719,0.606,1.51,1.226,2.322c1.247-0.702,2.086-1.972,2.608-3.259
		c0.121,0.165,0.112,0.333-0.024,0.504c0.345-0.347,1.817-0.882,2.69-1.236c1.523,3.004,3.907-2.457,5.607-3.074
		c-0.197,0.252-0.584,0.431-0.748,0.697c0.086,0.093,0.172,0.185,0.259,0.276c2.244-0.75,3.895-2.627,6.214-2.899
		c-0.116,0.302-0.141,0.792-0.305,1.166c0.953-1.06,2.023-1.555,2.754-0.581c2.307-0.186,2.421-2.688,5.228-1.91
		c0.09,0.313,0.019,0.586,0.099,0.901c2.095,0.256,3.644-1.376,5.193-2.576c0.441,0.103,1.214,0.201,1.726,0.324
		c-0.029,0.354-0.232,0.566-0.27,0.919c1.591-0.061,5.602-2.529,5.353,0.665c1.711,0.262,5.204-1.986,4.666,1.334
		c1.721,0.337,3.376,0.547,4.631-0.809c0.056,0.072,0.12,0.137,0.192,0.193c-0.398-0.024-0.732,0.182-1.089,0.292
		c0.415-0.19,0.678-0.419,1.265-0.625c-0.452,0.13-2.637,0.408-3.689,0.599c3.563-1.201,8.518,0.267,11.982,1.316
		c3.055,0.926,10.101,0.771,11.389,4.04c0.377-0.046,0.556-0.205,0.918-0.258c2.485,2.037,4.794,2.07,7.334,3.651
		c1.244,0.773,5.095,2.911,5.747,4.601c0.157,0.031,0.657-0.146,0.637-0.153c-0.493,1.257-1.545,2.314-2.582,3.22
		c2.348,0.034,3.288,2.891,4.964,4.233c1.463,1.171,5.196,2.693,2.293,4.342c3.249,2.195,5.099-2.072,8.567-0.535
		c-0.103,0.645,0.255,1.583,0.115,2.218c3.042,1.435-2.035,3.957-3.05,4.782c-2.199,1.79-1.813,6.184-3.99,7.216
		c-0.988,0.469-2.746-0.959-3.676-0.63c-1.368,0.483-1.811,1.954-2.609,3.089c-1.147,1.629-2.598,4.267-4.991,3.643
		c-1.151,2.614-5.439,3.562-7.974,3.226c2.091-0.858,5.76-3.384,5.498-5.9c-0.376,0.086-0.456,0.238-0.876,0.259
		c-0.028-0.916-0.512-1.585-0.439-2.575c-0.445-0.074-1.129-0.156-1.567-0.1c-0.064-0.231,0.075-0.736-0.099-0.901
		c-0.767,0.192-1.813-0.094-2.551,0.242c-0.816-0.911-0.04-2.507-0.125-2.624c-0.611-0.849-0.755-0.803-1.683-1.594
		c-1.57-1.34-3.746-0.336-3.644-3.689c-0.704,0.054-1.312-0.433-1.906-0.46c0.171-0.35,0.128-1.064,0.313-1.476
		c-0.481,0.226-1.194,0.331-1.573,0.491c0.716-0.638,0.812-1.668,1.165-2.225c-1.341-0.048-2.602,0.485-3.916,0.551
		c-0.03-0.283,0.279-0.244,0.262-0.525c-3.542-2.379-7.663,1.905-11.21-0.691c-2.21,2.661-7.398,0.891-10.084,0.876
		c-2.479-0.014-8.903-1.155-10.374,1.416c1.176,1.135,4.605,4.15,4.656,5.284c-0.309-0.089-0.877-0.197-1.239-0.251
		c0.617,0.921,0.858,2.491,0.334,3.568c1.066,0.375,2.133,0.724,3.174,1.038c-1.12,0.964-2.133,1.516-2.499,2.971
		c0.637,0.145,1.086,0.598,1.515,0.733c-1.666,0.796-3.362,1.023-4.848,2.381c1.3,1.989,0.027,4.36,1.016,6.2
		c-0.059-0.11,5.645,2.792,1.365,3.475c1.019,0.284,2.102,0.73,2.858,1.185c-1.929,0.809-4.449,0.343-6.566,0.466
		c-1.85,3.796-8.978-3.39-11.983-3.131c-2.485,0.214-4.346,2.285-2.767,4.821c1.193,1.916,4.303,2.122,2.491,5.252
		c1.253,1.151,3.033,2.095,4.508,2.6c-0.887-0.298-4.966-0.897-5.966-0.606c-1.626,0.475-4.02,2.732-1.399,3.731
		c0.082,2.839,0.144,6.38,3.35,7.332c-0.409,0.466-0.526,1.448-0.991,1.942c0.741,0.414,0.597,0.911,1.65,1.05
		c0.044,1.554-0.469,2.915-1.243,4.193c1.251,1.308,0.331,6.548-1.374,6.424"/>
</g>
<g id="linework-nose">
	<path class="st0" d="M400,572.338c0.897,2.571,4.192,3.602,7.25,3.049c1.432,1.365,5.126,2.1,6.086,0.283
		c-0.208-0.053-0.894-0.312-1.2-0.42c-0.652-1.052-0.572-6.336,0.951-7.767c2.964-2.784,16.051,4.046,16.034,7.825
		c-0.014,2.761-4.752,2.67-6.466,4.008c-1.212,0.945-0.354,2.611-2.597,2.746c-0.21,1.523,0.797,2.268,1.225,3.561
		c-1.673,0.317-1.293,1.748-0.674,2.992c-0.679,0.229-0.27,0.252-0.665,0.667c-0.263,0.131-0.609,0.066-0.895,0.104
		c0.051,0.87-0.407,1.406-0.43,2.236c-0.302,0.059-0.607-0.021-0.894,0.097c-1.047,3.835-0.496,7.352-4.934,8.308
		c2.314-1.843,1.107-3.334,1.619-5.281c0.564-2.146,2.733-3.186,1.865-5.691c-1.189-0.038-1.845-0.427-2.894-0.765
		c-0.144-1.146-0.63-1.902-1.124-2.911c-1.232,0.93-2.765,0.966-3.241-0.665c-2.566,0.433-3.696,0.889-6.294,0.233
		c-0.471-1.188-0.259-1.161-1.666-1.334c-0.251-0.252-0.228-0.933-0.449-1.218c-0.408-0.085-0.85,0.042-1.241-0.124
		c1.177-0.41,2.815-0.771,2.583-2.552c-0.317-0.072-0.608-0.002-0.917-0.114c2.397-1.856,0.722-3.976-0.366-5.935"/>
	<path class="st0" d="M442.333,576.671c0.65-2.636,3.721-3.075,5.758-4.241c2.246-1.287,3.92-2.983,5.899-4.51
		c2.381-1.836,3.854-2.739,6.677-2.582c2.126,0.119,6.026,1.016,5.725,3.941c2.412,0.684,1.483,2.315,2.275,4.059
		c1.23,2.709,0.732,1.433,3.333,2.666c3.242,1.538,3.523,4.832,2.741,8.741c-0.688,3.439-0.077,6.633-1.658,9.935
		c-1.229,2.566-4.222,4.983-4.833,7.606c-3.177-3.053-5.793,2.889-8.325,3.977c-2.122,0.912-3.07-0.587-4.935-0.915
		c-1.855-0.327-3.452,0.28-5.306,1c-4.049,1.572-6.831,3.978-11.424,3.915c-2.602-0.036-9.796-1.559-9.202-5.534
		c0.16-0.238,0.794-1.089,0.999-1.35c3.106,1.16,16.708-2.98,16.001,2.9c2.054,1.132,6.985-1.396,6.891-3.559
		c-1.462,0.118-3.017,0.754-3.998-0.394c1.066-0.688,1.521-1.591,1.016-2.655c1.204-0.684,2.726-0.129,3.424-1.609
		c2.777,0.346,2.5-3.211,0.001-3.116c-0.994-0.984-1.219-2.241-0.433-3.533c-1.303-0.974-2.807-1.522-2.684-3.351
		c-2.223-1.37,6.446-4.68,2.741-8.074c-1.004-0.92-4.254,0.037-5.683-0.65c-1.653-0.795-2.71-2.279-3.333-4"/>
</g>
<g id="linework-mouth">
	<path class="st0" d="M382.5,622c0.675-1.39,8.481-1.57,11-1.94c3.051,3.822,16.789,0.28,22.024,1.416
		c6.632,1.439,13.185,4.526,20.476,4.536c15.346,0.021,29.45-2.811,45.485-1.997c2.586,0.131,8.262-1.643,9.564,0.487
		c-9.508,18.297-31.184,3.535-46.575,6.806c-5.002,1.063-9.379,2.382-14.598,0.817c-2.962-0.888-5.464-1.856-8.403-2.6
		c-4.744-1.198-9.965-3.06-14.931-2.624c-8.231,0.722-17.221,3.285-24.543-2.901"/>
	<path class="st0" d="M431.5,653.5c5.085,2.175,11.766-2.352,16.031,1.072c-2.682,0.965-5.34,1.12-7.157,3.354
		c-2.037-1.276-4.492-1.499-6.789-2.011c-0.415-1.783-0.986-0.831-1.585-0.915"/>
	<path class="st0" d="M383.5,621.5c-0.536,0.87-1.119,1.842-1.5,2.5"/>
</g>
<g id="linework-eyebrow-right">
	<path class="st0" d="M476,451c-0.229,0.06-0.388,0.859-0.91,0.948c0.715-2.215,0.795-1.107,2.273-1.522
		c1.76-1.294,1.935-1.62,0.687-3.329c0.88-0.383,2.395-0.816,3.386-0.899c-0.076,0.417-0.274,0.774-0.374,1.212
		c2.299-0.492,6.766-2.028,5.973-4.86c-1.007,0.294-2.527,0.719-3.385,1.335c2.359-0.516,7.69-4.53,9.851-6.674
		c0.655,0.153,1.746,0.046,2.411,0.204c-0.077-0.201,0.217-0.831,0.393-0.942c-0.249,0.084-0.496,0.069-0.742-0.045
		c1.266-2.896,9.849-1.25,12.854-2.865c0.121,0.477,0.049,0.885,0.159,1.364c2.236,0.258,5.042,0.601,6.814,0.572
		c1.839-0.03,4.818-1.526,6.611-0.058c2.96-0.681,10.2,1.214,14.148,2.409c0.205,0.062,1.862,1.413,2.352,1.647
		c1.198,0.572,1.95-0.601,3.387,0.116c2.164,1.081,1.936,4.172,5.028,4.973c0.274,0.304,0.05,0.941,0.17,1.329
		c1.931,0.346,2.774,1.547,2.49,3.51c3.751-0.319,5.062,3.458,9.34,3.15c1.142,1.002,2.065,2.293,2.67,3.842
		c3.319,2.236,3.978,6.466,6.465,9.582c-2.685,1.832-1.925,4.461-1.235,7.125c-0.514,0.444-1.011,0.98-1.602,1.365
		c0.332,0.842,0.162,1.51,0.2,2.425c-0.619,0.298-1.616,0.832-2.244,0.962c0.221,0.083,0.441,0.167,0.662,0.25
		c-5.553,4.303-6.224-4.599-11.228-5.077c0.038,0.444,0.137,1.123,0.172,1.525c-1.132-1.988-2.288-4.066-3.362-5.988
		c-3.927-1.151-5.95,0.479-6.985-4.513c-1.61-0.128-2.244-0.798-3.814-0.134c-1.462-3.861-5.042-2.905-8.113-3.05
		c-2.549-0.12-7.478-2.083-9.375-0.574c-1.881-1.941-4.487-1.222-6.526-0.39c-0.878-1.799-2.697-1.868-4.439-0.913
		c0.245,0.032,1.587,0.113,0.912-0.012c-3.754-0.587-4.931-0.381-8.46,0.44c-0.592-1.193-1.109-0.702-1.723-1.881
		c-2.814,2.877-7.202,1.081-10.9,1.929c-2.96,0.679-9.026,3.369-11.538,1.01c0.161-0.528,0.354-0.935,0.485-1.411
		c-4.305,0.682-2.937-4.743-2.936-7.587"/>
</g>
<g id="linework-eyebrow-left">
	<path class="st0" d="M403.5,457c1.103,0.374,1.707,0.967,2.915,1.085c1.937,3.907,11.402-1.144,11.012-5.974
		c-0.154-1.9-3.315-4.986-3.924-7.113c-0.698-2.435,0.447-6.173-3.514-5.185c-1.288-3.017-4.687-2.107-5.575-5.226
		c-3.171,0.612-4.22-2.457-6.913-3.087c-3.002-0.703-4.871,1.456-7.498-1.05c-3.389,3.596-6.957-0.317-10.475-0.474
		c-4.031-0.18-7.82,2.569-11.527,3.512c-4.388,1.116-21.477-0.979-22.574,4.926c-6.446,3.802-14.304,2.529-18.05,9.512
		c-2.093,0.287-5.495,5.608-6.4,7.962c-0.939,2.446-0.235,5.116-1.91,7.037c0.626,0.211,1.713,0.177,2.36,0.148
		c0.091,0.332-0.099,1.154,0.173,1.378c3.599-1.256,7.605-1.775,10.889-1.552c3.922,0.267,7.051,1.979,11.023,1.611
		c8.773-0.812,16.103-6.83,24.512-8.534c13.791-2.796,27.669,2.522,41.477,2.522"/>
</g>
<g id="linework-hair-leftbang">
	<path class="st0" d="M496,328c0.668-0.31,1.589,0.864,2.675-0.853c-2.281,0.427-3.624,2.071-5.523,3.104
		c0.631,1.922-0.282,3.207-0.104,4.621c-4.337-0.605-10.137-3.659-11.9,0.934c0.556,0.137,1.115,0.257,1.679,0.361
		c-0.311,3.736-1.76,6.935-4.703,9.059c-0.163,0.751,0.874,1.483,0.752,2.596c-1.059-0.296-2.498-0.32-3.62-0.671
		c-2.438,4.729-3.158,9.363-8.11,13.096c-0.209,0.832,0.952,0.681,0.711,1.505c-2.959,1.987-3.325,4.359-4.708,6.997
		c0.374,0.61,1.338,1.533,1.698,2c-3.068,3.614-8.058,5.64-12.591,4.402c-1.336,2.22-3.161,2.59-4.502,4.705
		c-2.15,0.049-7.351,2.636-9.724,2.219c-4.162-0.732-5.198-5.011-9.9-5.345c-0.36-0.38-0.334-0.406,0.079-0.079
		c0.65,1.072,1.112,2.363,1.671,3.346c-1.923,0.686-2.563,1.712-4.753,2.174c1.055,4.555-2.116,9.836-1.902,15.829
		c0.232,6.514,3.309,10.462-2.048,15.872c0.473-3.324-0.241-3.687-1.226-6.966c0.035-0.743,0.069-0.743,0.104,0
		c-2.834,2.76-5.874,5.574-5.151,8.892c-4.617-0.525-12.157-8.276-14.801,0c4.476,0.668,3.177,1.243,5.804,4.003
		c-4.555,0.361-8.185,2.787-7.051,6.948c-3.274,3.681-8.021,4.809-10.901,8.203c-4.016,4.733-0.538,8.905-9.777,10.223
		c0.507,8.008-9.213,9.517-13.923,14.077c-5.43,5.256-7.623,12.414-7.244,20.745c0.608,13.382,5.653,32.913-12.833,36.178
		c-0.471,15.755-28.667,18.227-38.425,16.077c-7.013-1.545-14.258-2.758-18.471-9.528c-5.242-8.425,1.478-15.017,0.548-23.549
		c-3.671-0.115-4.61-0.61-5.845,1.949c1.486-6.566,6.784-5.84,9.793-0.897c3.028,4.974-1.619,11.647,2.828,16.871
		c-0.257,0.05-1.507-1.478-1.646-1.746c0.887,2.861,1.401,3.553,2.922,5.524c0.536-0.195-0.851-1.6-0.981-1.528
		c0.636,1.281,1.409,2.146,2.203,3.255c-0.296-0.306-0.596-0.606-0.9-0.904c-0.403-0.385-0.428-0.373-0.075,0.035
		c0.829,0.285,1.846,0.408,2.708,0.435c0.112,0.554,0.223,1.107,0.331,1.662c0.838,0.439,1.747-0.14,2.499,0.167
		c-0.426,0.003-0.852,0.005-1.278,0.008c1.001,0.278,1.303-0.522,0.781,0.797c3.826-0.651,10.554-1.502,14.39-2.688
		c-0.308,0.554-0.436,1.146-0.384,1.775c0.741-0.33,1.179-1.017,1.829-0.333c1.526-1.33,3.601-2.798,4.801-4.106
		c-0.695,1.443,1.366-1.131,0.518-0.272c-0.663,0.615-1.282,1.279-1.945,1.896c0.723-0.373,3.349-2.179,2.929-1.924
		c-0.479,0.48-0.792,1.05-0.936,1.708c0.485,0.369,0.974,0.332,1.466-0.11c0.393-0.414,0.364-0.412-0.087,0.008
		c-0.719,0.976,0.358-1.156-0.016,0.021c0.151-0.169,3.538-3.593,3.568-3.627c-0.198,0.568-0.396,1.137-0.595,1.705
		c-0.771,0.945,1.116-1.275,1.157-1.155c0.091-0.349-0.854-0.362-0.692-0.375c0.534-1.374,0.506-1.687,0.626-3.227
		c-10.67,3.568-25.97-6.033-32.838,7.554c1.484-11.995,18.139-14.938,27.793-11.797c4.754-4.439,2.239-8.696-3.746-5.753
		c-0.675-1.015-1.5-1.638-2.178-2.926c-2.381,0.284-4.651-0.589-6.877,0.433c-1.534-2.043-3.078-5.181-4.119-8.429
		c-3.947,0.888-4.745,1.135-7.052-2.052c-1.438,2.131-3.533,5.132-4.777,7.874"/>
</g>
<g id="linework-hair-rightbang">
	<path class="st0" d="M496,326c14.785-1.908,0.839,13.296,1.147,17.623c3.034-0.744,5.825-1.727,8.682-2.794
		c0.293-0.953,0.13-1.79,0.394-2.756c2.2,2.59,3.12,2.76,3.925,6.78c1.91,0.115,2.89,1.051,4.679,1.322
		c1.39,6.772,5.441,15.358,3.923,21.575c-1.419,5.807-12.989,16.029,0.956,18.851c-3.697-2.187-4.689-6.355-3.531-10.425
		c11.723-6.824,11.618,18.565,14.878,23.472c-0.488-2.777,0.76-4.07,1.119-6.475c16.229-7.492,12.575,14.042,14.861,20.479
		c0.566-1.82,0.756-1.489,1.797-2.569c0.749,6.379,6.506,7.411,8.167,12.923c1.641,5.442-0.211,13.257,0.727,19.274
		c0.992,6.369,3.41,11.992-4.723,14.774c-5.8,1.983-13.783-1.473-12.849-7.9c1.165-0.391,2.34-0.074,3.546-0.151
		c-1.399-0.187-3.183-0.171-4.523,0.174c-5.438,9.415,11.398,15.39,17.077,8.973c8.478,2.904,4.008,11.035,4.479,17.123
		c0.512,6.628,6.442,12.835-2.876,17.706c8.148,5.176,2.805,9.196,3.123,16.047c0.326,7.016,3.889,9.998,1.27,17.199
		c-1.849,5.08-5.886,10.23-11,12.023c-4.81,1.685-13.673,0.618-8.645-6.343c-14.975,10.581,12.159,8.945,17.395,6.997
		c1.977,2.593-0.066,5.689,0.933,7.125c1.172,1.684,5.902,3.406,6.368,4.678c2.334,6.358-1.793,11.731-2.074,17.52
		c-0.715,14.711,16.294,16.005,27.803,10.803c9.611-4.346,20.517-21.212,13.724-31.826c-3.41-5.328-10.746-7.129-15.023-2.474
		c-4.72,5.138-0.084,12.647,5.12,7.422c-1.462,0.253-1.946,0.832-3.698,0.698c-0.332-1.593,0.068-3.132,0.026-4.672
		c6.207-4.192,13.017-1.7,14.604,5.049c1.354,5.758-3.895,13.38-7.53,17.803c-6.255,7.608-32.062,18.769-32.247,1.975"/>
</g>
<g id="linework-hair-left-top">
	<path class="st0" d="M463,259c-5.161-2.894-11.311-5.345-16.997-3.123c-7.23-7.196-11.108-9.972-21.003-11.877
		c-10.1-1.945-14.067-5.909-19.025-14.626c-1.002,5.143-3.265,10.594-7.95,13.75c-5.466-3.526-2.315-13.304-4.221-19.023
		c-4.525,7.955-13.245,11.491-21.582,13.678c-5.495,1.441-7.722,0.482-12.972,5.497c-3.963,3.786-5.189,9.338-10.248,11.826
		c-3.101-3.08-2.824-9.622-0.349-12.143c-6.478,2.02-7.316,7.469-8.603,13.095c-0.96,4.199,1.997,13.319,0.995,15.948
		c-2.803,7.353-8.513,3.995-15.043,5.003c-5.638,0.871-9.632,3.663-14.226,6.774c-11.56,7.829-9.747,13.618-14.532,25.246
		c-5.052,12.278-25.856,9.196-20.587,2.886c-10.354,9.578,18.226,17.531,24.361,4.968c-2.63,10.626-27.333,21.077-25.171,5.274
		c-4.599,0.126-12.415,4.43-16.623,0.623c-7.137-6.457,1.346-11.523,7.472-11.771c-6.122-1.061-13.04,1.494-15.472,7
		c-3.124,7.072,4.54,10.982,2.016,17.02c-3.921,9.382-9.688-1.783-14.513,0.707c-4.667,2.408-3.941,14.227-2.507,18.19
		c-0.027-1.645,1.549-5.468,1.952-7.746c1.252-0.059,2.402-0.111,3.674-0.023c0.307,6.694-3.654,12.752-4.8,19.475
		c-14.329-1.534-31.858,30.565-34.826,42.37c-5.696,22.658,42.395,26.225,44.826,5.357c-5.656,11.691-22.089,11.158-31.803,7.4
		c-13.637-5.275-12.161-17.61-3.493-29.002c3.314-4.356,8.044-10.598,12-14.003c7.473-6.433,9.563-5.36,13.025,2.028
		c0.841,1.795,0.366,5.64,1.974,8.523c1.117,2.004,4.964,3.124,6.246,5.703c2.595,5.224,1.823,14.718-3,18.096
		c-7.269-1.66-7.153-9.365-6.945-15.746c-3.754,7.869,7.949,15.068,5.742,19.45c-4.669,9.27-14.821-5.873-14.793-10.502
		c-0.375,3.467-0.678,8.556,1.223,11.452c3.43,5.227,7.492,1.262,10.826,4.197c7.34,6.465,1.226,17.691-7.922,14.225
		c6.368,10.063,14.885-4.383,18.751-8.048c-3.013,7.276-3.549,6.963-9.877,9.872c-5.438,2.5-10.96,0.294-13.197,7.849
		c-9.996-2.786-20.078-0.392-23.675-12.674c3.245,0,5.721-0.562,8.518,0.929c-2.662-1.706-5.852-2.149-8.42-2.976
		c-9.069,11.929,13.261,15.822,17.671,21.673c-7.631,0.254-16.953-0.123-17.167,8.474c-0.111,4.453,5.08,17.607,7.023,21.973
		c2.658,5.974,10.297,14.306,1.271,19.554c-8.557,4.975-16.391-5.152-14.872-12.649c2.765,0.922,4.398,0.311,6.701,2.694
		c-2.042-7.93-11.295-6.31-10.849,2.15c0.285,5.397,6.427,10.663,11.246,12.755c11.269,4.893,30.906-4.825,21.751-18.751"/>
</g>
<g id="linework-hair-bottom-left">
	<path class="st0" d="M204,505c-2.723,2.051-19.812,23.536-4.197,16.151c2.304,5.262-5.456,14.151-5.025,21.626
		c0.547,9.479,6.167,8.335,11.198,15.418c5.421,7.633-1.058,16.6-10.776,11.605c-6.193-3.184-8.536-14.844-1.351-16.649
		c-6.671,9.678-1.355,25.236,13.123,18.82c13.614-6.033-2.405-16.776-1.82-26.82c6.232-0.222,11.613,10.095,5.952,14.649
		c1.721-0.702,3.102-0.436,4.945-1.45c-1.823,6.74,2.101,11.642-0.801,17.678c-2.986,6.213-10.456,8.954-16.12,6.146
		c13.703,11.191,17.361-16.087,23.625-20.421c6.237-4.316,14.98,0.9,12.493,8.493c-1.943,5.932-12.006,9.655-13.098,1.932
		c0.573-0.14,1.141-0.295,1.705-0.468c-6.875,4.555-3.727,15.069,3.973,18.464c4.975,16.803-22.642,8.168-18.751-1.797
		c-7.462,13.969,15.051,12.827,19.87,14.575c4.39,1.592,10.365,5.021,3.829,8.822c-5.719,3.326-11.551-3.521-15.771-5.874
		c-1.424,1.123-2.481,2.268-3.103,4.096c1.536,1.093,1.938,2.334,3.922,3.175c0.001-0.012,0.178,2.877,0.026,2.685
		c-4.137,2.178-8.457,1.33-9.067-3.779c-8.279,10.333,7.802,11.443,14.071,5.078c-2.334,6.822-8.309,12.289-10.626,19.071
		c-2.28,6.671-2.23,17.376-2.226,22.917c-0.527-7.719,3.017-24.343,9.751-29.221c10.569-7.657,17.862,3.889,14.001,12.831
		c-2.54,5.884-16.319,18.795-1.801,23.295c9.279,2.876,19.605-11.598,12.949-18.646c4.619,4.952-2.049,16.788-8.877,16.621
		c-9.547-0.233-7.839-16.404,2-15.047c18.434,2.543-13.452,38.519,9.874,37.227c-1.342,2.091-6.887,8.437-6.968,10.771
		c-0.171,4.901,6.609,5.306,4.317,11.271c-7.178,18.678-22.587-11.042-9.377-4.417c-11.291-8.669-12.362,21.821,6.405,8.445
		c6.951-4.954,2.77-8.785,4.703-14.251c2.744-7.759,6.265-9.562,9.02-1.027c1.84,5.701-2.011,10.714-3.997,16.004
		c-2.757,7.345-0.365,11.848-1.948,19.052C247.219,744.935,237.107,748.812,237,764"/>
</g>
<g id="linework-hair-right-top">
	<path class="st0" d="M455,269c7.618-9.356,14.614-8.558,26-9c9.792-0.38,18.293-5.547,27.924-3.774
		c-3.576,3.706-9.536,1.841-13.021,5.774c4.091,5.279,8.382,2.917,14.12,3c5.582,0.08,10.505,1.921,16.123,2.003
		c0.573-0.961-0.935,0.749-1.296,0.945c3.61,3.554,8.242,0.884,7.005-4.797c-0.826-0.231-1.819,0.109-2.557-0.171
		c6.735,0.248,17.475,19.507,23.476,8.1c0.624,11.246,16.949,5.73,22.146,11.721c-4.949,0.393-10.542-1.01-13.766,2.948
		c4.137,1.04,9.129,1.255,12.691,4.104c-0.471-0.809-1.2-1.935-1.742-2.705c14.298,3.687,12.659,22.666,25.745,21.698
		c1.418-4.566,0.477-8.755-4.546-9.064c4.434-1.577,9.685,3.001,8.801,8.271c-0.774,4.616-8.524,5.206-8.9,8.147
		c-0.942,7.375,7.422,5.031,11.016,7.582c4.282,3.039,4.005,6.378,7.658,9.438c-5.503,5.948,3.006,14.916,9.42,10.079
		c4.85-3.656,0.696-14.524-1.396-18.294c1.252-1.356,2.08-2.282,3.92-2.881c-2.27,5.746,1.728,9.442,2.208,14.826
		c0.904,10.131-2.638,5.701-6.299,11.781c-7.688,12.77,11.597,16.361,18.367,8.618c-3.114,4.755-9.739,7.075-6.168,13.45
		c1.217,2.172,5.203,0.331,7.294,2.203c2.007,1.796,3.388,3.691,4.651,5.824c-6.752-4.39-6.863-0.814-11.929,2.121
		c1.232-0.714-6.735,4.714-5.997,4.003c-2.802,2.696-5.792,2.151-5.794,6.904c4.649,0.686,8.856-0.887,11.917-4.479
		c-1.602,4.605-14.208,27.448,2.674,18.778c1.147,4.139,4.653,6.36,9.155,6.098c0.229,1.273-0.719,0.212-1.004,0.196
		c2.022,2.218,3.622,4.306,5.274,6.404c13.712-0.078,1.288,12.245,1.758,17.176c0.749,7.859,13.716,10.874,18.92,7.126
		c-2.116,4.175-6.604,5.8-10.671,3.973c0.378,7.083,10.174,6.568,10.045,15.653c-0.108,7.638-7.073,9.17-13.149,13.045
		c33.833-11.85-19.056-33.861-12.922-9.974c3.479-0.477,4.769,1.53,6.945,2.151c-3.061,1.683-4.012,3.961-4.942,6.853
		c3.566,0.125,6.288-0.085,8.894-2.502c-7.233,17.72,31.423,9.296,20.685-5.226c4.61,12.848-6.805,25.649-20.578,20.971
		c0.868,10.162,13.442,0.363,14.794-4.749c0.73,1.432,1.696,1.87,2.249,3.502c5.331-2.542,10.58-0.484,9.604,6.175
		c-0.688,4.694-7.654,7.91-10.669,9.825c9.382-3.2,2.78-13.435-5.128-6.849c-6.862,5.714-1.005,13.786,6.822,13.174
		c4.617,5.899,4.12,13.129-2.452,17.452c4.447-4.938,2.268-12.35-4.597-13.4c-8.976-1.373-9.073,9.078-0.955,9.945
		c-0.871,3.468-9.394,6.785-4.619,11.626c4.414,4.477,8.856-2.352,12.574-3.02c2.089-0.375,26.309,1.396,17.1-6.797
		c10.855,3.725-2.893,8.695-5.929,9.968c-6.067,2.544-9.262,6.663-14.92,9.08c-5.312,2.27-13.624-2.713-17.299-0.299
		c-6.292,4.133,1.525,12.294-4.556,15.444c0.475,3.393,0.724,4.94,3.949,6.801c-4.26,6.415-15.102,1.112-13.969,12.878
		c6.456-0.324,13.135-0.13,12.668,7.974c-2.016,0.891-3.377,1.369-5.668,1.026c0.407-8.135,15.006-5.24,17.865-11.976
		c-1.36,7.649-8.469,8.088-14.868,8.274c0.098,1.42-0.487,3.293-0.303,4.697c-1.57,0.197-3.125,0.281-4.697,0
		c0.344-5.712-5.021-5.904-8.929-3.974c-3.707-8.58-9.194-1.006-5.374,4.974c-1.044-0.143-1.608-0.486-2.594-0.697
		c-1.34,1.301-2.587,3.914-3.107,5.598c2.117,2.298,1.679,3.71,2.701,6.1c-2.822-0.216-5.66-1.648-7.701-4.1
		c0.081-0.781,0.575-1.739,0.725-2.571c-2.894,1.17-4.771,0.618-7.123,3.671c-4.645-4.888-10.953-1.897-9.598,5
		c3.381-1.015,4.15,0.502,6.92-2.498c-0.178,3.591,0.354,3.948,0.806,5.868c-1.171,0.948-2.744,3.775-3.801,4.607
		c4.576,0.897,8.247-1.948,11.047-5.452c-2.508,2.702-6.096,3.919-8.119,6.63c0.666-0.893-2.854,11.837-3.798,9.195
		c2.898,8.108,11.834,0.916,13.742,13.853c1.752,11.877-9.573,15.403-5.726,6.171c2.712-6.508,18.666-6.91,13.723-15.872
		c-0.33,4.089-23.486,25.378-8.097,22.498c2.848-15.308-24.83-25.42-26.872-14.872c-1.035,5.351,3.669,4.235,4.801,7.246
		c0.953,2.535,1.506,6.118,1.972,7.526c0.702,2.123-3.985,4.845,1.203,7.299c3.93,1.859,7.493-1.151,8.02-4.671
		c1.884,3.619,0.519,7.51-2.071,10.619c1.979,3.254,4.503,3.413,7.972,1.736c0.36-0.383,0.334-0.41-0.078-0.081
		c-1.465,2.506-19.634,13.782-3.922,14.546c-2.048,2.813-6.459,4.436-6.718,8.655c1.217,0.075,2.48,0.164,3.694,0.299
		c0.96,5.833-7.792,12.893-2.896,16.896c6.66,5.448,18.622-8.479,8.195-8.9c-0.511,0.798,0.217,1.852-0.144,2.554
		c-1.464-10.897,11.695-8.093,10.992,2.295c-0.585,8.658-11.783,9.558-13.048,18.004c-1.188,7.939,7.769,17.967,9.052,26
		c2.887,18.072-2.875,24.938-13,38"/>
</g>
<g id="linework-pupils">
	<path class="st0" d="M381.332,481.835c1.875,0.384,3.61-0.4,5.329-1.041c1.807-0.674,3.707-1.007,5.384-1.913
		c0.634-0.342,1.406-1.255,2.116-1.392c0.897-0.173,1.866,0.704,2.875,0.216c2.718-1.315-0.287-3.4-0.062-5.011
		c-1.148-0.088-2.725-0.257-3.17-1.496c-0.8-0.175-1.539-0.253-2.183-0.53c-0.569-0.245-0.903-0.655-1.622-0.833
		c-0.929-0.229-3.572-0.661-4.182,0c0.895,1.149,0.019,3.795-0.114,5.13c-0.032,0.322,0.443,0.808,0.262,1.171
		c-0.186,0.371-1.006,0.155-1.141,0.357c-0.493,0.738,0.151,1.856-1.299,1.701c-0.039,0.639-0.012,1.309-0.054,1.945
		c-1.109,0.333-1.534,2.193-2.638,1.695"/>
	<path class="st0" d="M493.998,475.002c-2.555,0.553-4.708-0.57-6.704,1.621c-1.326,1.457-3.627,2.814-4.291,4.551
		c-0.75,1.963-0.106,1.619,1.169,2.32c0.941,0.517,1.499,1.424,2.618,1.716c0.554,0.145,1.313-0.05,1.878,0.122
		c0.542,0.165,0.841,0.704,1.366,0.971c0.514,0.262,1.105,0.254,1.634,0.538c0.438,0.235,0.746,0.807,1.164,0.994
		c1.003,0.452,2.49,0.869,3.504,1.162c1.143,0.33,2.755,0.872,3.512-0.329c-0.379-0.551-0.067-1.344-0.383-1.799
		c-0.593-0.855-1.877-1.063-2.534-2.027c-0.432-0.633-0.7-1.514-1.024-2.207C494.733,480.133,494.487,477.696,493.998,475.002"/>
	<path class="st0" d="M517.831,487.002c0.181-0.678,1.972-1.484,2.63-2.046c0.819-0.699,1.721-1.347,2.337-2.32
		c0.493-0.778,1.138-1.941,1.492-2.841c0.466-1.182-0.071-2.644,1.42-2.505c1.523,0.142,4.222,2.904,3.787,4.545
		c-0.213,0.807-1.262,1.618-1.999,2.167c-0.389,0.289-0.965,0.449-1.298,0.703c-0.521,0.399-0.637,0.839-1.207,1.255
		c-1.087,0.794-2.366,1.522-3.532,2.339c-1.549,1.085-2.828,0.587-4.438,1.353c-0.013-0.985,0.887-1.103,0.641-2.149"/>
</g>
<g id="linework-hairlines-left">
	<path class="st0" d="M451.59,328.597c-6.18,9.634-19.865,11.744-29.993,16.166c-14.055,6.136-14.899,9.124-21.004,21.333
		c-5.542,11.083-11.848,17.78-24.042,23.623c-13.11,6.282-14.273,8.429-22.427,18.375c-12.5,15.249-49.137,7.527-59.645,27.375
		c-11.136,21.037,50.867,32.448,22.04,43.121c-14.86,5.502-38.753-16.226-52.791,4.129c-7.148,10.364,4.465,14.002,0.145,24.065
		c-4.743,11.048-21.229,2.894-8.773,18.304c11.147,13.79,39.573,1.841,38.993,28.493c-0.226,10.383-10.71,16.078-13.494,25.504
		c-3.451,11.682,0.559,11.562,6.755,21.146c13.432-8.155,23.206,9.098,19.112,20.888c-5.875,16.919-35.12,15.659-31.605-4.273
		c5.257-1.832,7.536-2.613,11.549,0.904c-13.989,4.023-15.31,21.151,1.689,22.528c9.388,0.762,25.38-21.151,30.033,0.27
		c2.841,13.081-16.246,16.472-18.068,30.034c-0.936,6.963,5.514,12.46,3.146,19.498c-2.585,7.686-12.479,9.946-18.111,15"/>
	<path class="st0" d="M453.09,304.598c-7.445,2.011-11.263,4.096-17.993,9c-4.831,3.52-7.861,12.339-16.5,11.655
		c-20.051-1.588-9.605-30.99,1.185-16.264c-0.19-11.786-17.639-7.89-21.855,0.408c-6.863,13.507,9.679,17.116-4.874,28.571
		c-9.77,7.691-22.299,3.841-32.993,8.26c-15.013,6.203-6.501,14.582-11.887,25.944c-11.536,24.337-45.05,3.199-16.204-16.203
		c7.146-4.807,29.521-15.338,21.031-27.778c-6.762-9.909-24.053,3.138-30.815,7.534c-18.136,11.788-66.063,58.117-49.385,81.248
		c-0.679-19.646,11.469-39.157,30.036-44.686c3.63,16.483-12.049,14.546-15.938,25.605c-3.678,10.458,9.703,14.409-4.727,24.106
		c-14.342,9.639-15.326,0.228-18.028,19.016c-2.616,18.183-4.153,12.858-21.042,17.999c-19.457,5.922-12.06,10.187-7.088,23.993
		c4.708,13.072-0.671,18.668-4.537,30.421c-3.929,11.945-3.789,18.421,4.502,28.087c5.458,6.363,21.515,12.424,24.028,20.999
		c5.933,20.238-29.217,21.692-22.827,6.604c-1.626,14.757,5.345,26.74,20.916,20.318c5.013,4.307,15.003,12.786,6.261,16.904
		c-0.558,2.622-0.957,4.82-1.756,7.243"/>
	<path class="st0" d="M451.59,288.099c-25.848-3.334,9.943,27.022,10.535,34.464c0.702,8.839-4.157,19.018-15.069,14.735
		c-10.556-4.143-7.012-17.06-8.971-25.2c-7.917-32.91-38.998-2.862-56.618-24.338c-14.949-18.221,15.054-30.298,29.35-29.403
		c0.63,0.724,1.045,1.553,1.244,2.487c-35.604-1.045-27.623,48.995,2.031,31.755"/>
	<path class="st0" d="M466.59,286.599c-11.515-8.578-23.594-3.469-27.034,7.5c-1.832,5.841,3.399,9.223-1.06,15.328
		c-3.716,5.087-12.667,4.845-18.405,6.004c-11.144,2.253-23.169,3.92-32.622-3.704c-6.965-5.619-9.049-21.894-22.91-14.324
		c-10.904,5.955-2.173,22.206-14.97,26.689c-16.007,5.608-13.523-13.363-13.494-22.571c0.11-35.07-39.971,0.638-31.499,15.077"/>
</g>
<g id="linework-hairlines-right">
	<path class="st0" d="M454.59,318.097c-10.276,6.927-15.315,34.611,5.623,19.123c8.639-6.39,18.047-42.104,34.721-25.499
		c-2.824,1.137-5.235,3.55-7.19,4.577c12.775,2.55,24.181-11.257,35.921-4.201c14.728,8.852-2.402,18.839-3.445,29.63
		c-1.02,10.544,6.771,26.446,18.332,30.367c16.657,5.649,23.834-14.297,9.417-19.272c-1.7,3.588-3.478,5.981-3.043,10.158
		c-0.399-10.027,7.359-10.828,13.197-2.928c8.963,12.127-4.343,12.807-6.072,18.341c-6.03,19.296,14.489,15.814,27.029,23.406
		c12.711,7.697,23.884,25.063,15.044,39.332c-9.926,16.021-32.225-5.111-19.731-13.278c-11.768,3.332-8.053,19.875-1.303,26.731
		c4.351,4.419,8.451,5.831,14.995,6.005c6.265,0.167,14.567-7.187,15.338-7.194c6.388-0.064,18.696,12.077,19.528,22.159
		c1.024,12.41-10.614,17.457-20.201,23.662c-8.405,5.439-20.408,13.388-15.866,25.536c5.657,15.13,20.098,3.456,28.605,10.393
		c12.966,10.571-3.094,21.183-5.312,28.568c-3.009,10.017,3.73,22.736,17.24,15.811c1.559-0.799,3.036-2.131,4.165-3.44"/>
	<path class="st0" d="M450.09,306.098c3.489-3.948,10.109-9.199,16.131-10.833c10.721-2.909,9.022,1.839,18.332,3.035
		c16.179,2.077,23.129-9.986,32.807-20.324c-0.541-1.328-3.582-6.538-4.535-7.614c-3.772-0.065-7.484-0.846-11.081,0.827
		c5.475-0.181,21.701-0.99,21.872,7.871c0.156,8.132-5.695,4.446-8.69,9.456c-7.291,12.196-4.871,13.657,10.495,10.417
		c12.115-2.554,15.302-7.185,26.592,1.167c6.359,4.704,16.887,18.557,1.839,21.261c0.645,15.114,26.326,11.947,35.433,18.042
		c17.182,11.499,8.894,41.112-5.7,23.55c-9.459,9.097,0.978,14.576,5.965,20.012c4.631,5.049,5.638,0.207,8.994,7.172
		c1.903,3.95,1.675,8.714,1.278,13.267c-8.482-2.089-24.44-13.226-19.125-23.241c-23.055,30.555,38.324,36.28,25.231,15.042
		c4.206,7.859,4.496,15.956,7.659,23.391c2.936,6.899,11.832,13.937,11.729,22.243c-12.36,6.45,13.911,10.302,5.172,22.827
		c-8.272,11.855-11.895-13.116-9.744-17.952c-1.809,10.751,8.364,40.667,24.148,28.905c-5.337,9.899-2.528,31.212-17.612,28.199
		c1.586,4.223,5.333,7.991,10.109,10.567c-9.204,12.886-22.526,9.048-20.425,25.092c1.054,8.046,8.517,9.682,3.819,17.734
		c-3.955,6.779-13.035,3.47-16.534,5.211c-15.375,7.647-6.11,12.354-10.505,26.66c-3.485,11.346-23.701,19.948-20.398,1.697
		c11.889,3.458,3.526,10.234,2.364,17.433c-1.317,8.161,0.526,17.367-1.126,25.872c-5.246,27.003-36.029,7.12-18.226-2.772
		c-4.903,4.261-9.773,11.33-5.392,17.391c6.429,8.893,15.382-1.016,21.749,0.014c16.598,2.684-10.748,25.12,9.368,36.366"/>
	<path class="st0" d="M448.59,283.599c-3.504-5.346-5.411-12.419-10.5-16.644c-19.601,31.577-40.007-23.208-25.279-26.883
		c-12.556,1.059-10.771,18.263-6.547,25.861c4.924,8.858,15.907,7.955,19.678,17.362c-15.019,2.588-22.341-10.02-27.226-22.04
		c-9.007,9.752-12.405,26.783-28.127,28.338c-18.558,1.836-30.781-15.952-14.994-28.493"/>
</g>
<g id="linework-face-outline">
	<path class="st0" d="M293.664,497.001c-3.949,4.388,1.468,22.794,2.521,29.331c1.606,9.968,0.593,19.048,4.146,28.703
		c3.582,9.733,5.787,18.082,7.351,28.63c1.341,9.044,2.342,18.362,6.798,26.521c8.735,15.995,15.138,31.554,28.017,45.317
		c12.156,12.991,19.886,28.351,33.003,40.996c2.784,2.684,4.179,5.08,8.001,6.65c4.367,1.794,7.532,0.232,11.68,1.671
		c6.462,2.241,11.67,12.089,19.669,6.265c2.657,5.954,22.584,5.479,28.815,5.249c9.198-0.341,20.736-2.875,28.518-7.481
		c6.849-4.054,14.931-7.655,20.98-13.02c6.73-5.968,11.851-13.111,17.67-19.664c5.8-6.53,11.765-12.429,17.35-19.202
		c6.108-7.408,6.629-16.348,12.132-23.466c5.619-7.27,11.042-13.514,15.185-21.999c4.323-8.856,6.115-18.403,9.48-27.152
		c0.879-2.286,1.187-4.088,2.686-6.016"/>
</g>
<g id="linework-neck-outline">
	<path class="st0" d="M169.664,769.001c-1.417-1.189,7.225-5.378,10-7.168c5.168-3.333,6.651-6.296,10.502-10.814
		c7.083-8.311,20.41-2.937,25.399-13.247c-4.165,3.409-8.033,6.854-12.999,9.165c8.276-7.901,19.448-16.913,30.431-19.253
		c8.538-1.819,18.033-4.996,24.501-11.48c3.074-3.081,6.488-7.143,9.333-10.553c2.725-3.268,4.248-7.594,7.299-10.813
		c2.898-3.059,6.453-6.164,9.351-8.67c1.851-1.601,4.43-2.659,6.202-4.334c2.115-1.999,2.472-4.016,4.616-5.999
		c10.582-9.787,25.129-9.48,35.546,0.335c8.05,7.586,19.05,22.694,8.085,32.229c8.807-6.979,3.27-17.727-0.103-25.562
		c-3.674-8.536-4.602-16.961-13.579-19.849c4.439,1.396,13.46,15.226,15.267,20.013c3.409,9.03,4.881,19.084-2.565,26.434
		c3.972-8.793,1.233-16.897-3.768-25.285c-1.683-2.823-5.851-9.911-8.884-5.181c-2.349,3.664,3.086,10.258,4.215,13.183
		c2.003,5.19-0.401,8.782,0.634,13.366c0.481,2.126,3.196,3.471,3.733,5.485c0.586,2.196-0.522,5.354-0.402,7.85
		c0.101,2.094,0.947,4.655,1.315,6.833c0.249,1.471,0.852,5.662,1.187,6.633c1.668,4.832,6.015,6.772,8.682,10.831
		c2.546,3.875,2.118,7.032,3.499,11.869c0.639,2.238,1.67,3.474,1.983,5.464c0.413,2.627-0.679,5.536,0.338,8.032
		c3.527,8.657,11.813,14.854,16.363,22.968c2.364,4.216,4.714,6.539,7.998,10.021c3.145,3.334,3.947,7.4,6.635,10.683
		c2.805,3.427,7.617,4.83,11.004,6.946c3.943,2.464,8.035,6.586,11.03,10.369c6.097,7.701,7.942,17.68,13.817,25.498
		c6.63,8.822,15.971,9.381,25.368,13.333c9.838,4.137,16.612,7.784,25.118-0.797c6.672-6.731,10.773-16.58,14.348-25.201
		c3.003-7.24,3.632-15.335,3.732-23.217c-12.528-0.087-1.997-11.972,2.066-15.285c3.346-2.729,5.633-3.923,6.551-8.016
		c0.664-2.962-1.655-7.963-0.366-11.332c1.948-5.091,8.32-10.118,9.215-16.152c0.561-3.781-1.731-7.862-1.365-11.998
		c0.328-3.713,2.82-8.151-1.901-8.765c0.894-6.917-7.416-0.589-11.172-3.934c0.275,0.019,0.552,0.025,0.827,0.02
		c-2.758,0.882-4.031,3.257-1.839,5.477c-1.636,1.989-4.224,3.485-5.836,5.723c0.396,0.091,0.793,0.178,1.19,0.261
		c-2.163,2.86-5.16,5.389-9.185,4.437c0.893-1.914,2.622-4.264,3.163-6.419c-2.434-0.652-4.43-1.884-6.354-3.465
		c0.334-0.065,0.615-0.226,0.843-0.481c-0.42-0.336-1.249-0.641-1.621-0.969c-0.738-2.788-0.607-5.291,0.466-7.733
		c-0.797-0.551-1.562-0.709-2.481-0.933c0.277-0.875,0.203-2.16,0.5-3.082c-4.425-0.822-8.802,1.215-12.599,2.598
		c-1.817-1.405-4.055-2.178-6.437-2.032c-0.008-0.238,0.864-0.493,0.87-0.735c-2.338-0.259-4.431,0.439-5.835,2.037
		c0.272,0.696,0.448,1.292,0.648,1.881c-2.088-0.096-4.455,0.39-6.531,0.267c0.378,0.367,1.072,0.763,1.681,1.186
		c-2.7,2.062-8.487,0.916-12.197,1.315c0.946,0.221,1.907,1.03,2.412,1.218c-4.324-0.068-4.986,3.814-2.662,6.699
		c-3.208,0.22-5.845,2.738-8.549,4.014c3.01-3.718,2.592-6.327,3.183-10.462c-1.031,0.632-3.406,0.627-4.489,1.113
		c-0.209-0.629-0.027-1.178-0.21-1.816c-2.6,1.235-5.103,1.011-4.635-1.933c-3.4-1.297-8.394-1.779-11.198-4.685
		c1.218,0.057,2.661-0.309,3.878-0.266c-1.938-1.318-4.15-3.749-5.817-5.316c-0.172-1.059-0.333-1.558-0.73-2.482
		c-1.461,1.046-3.2,0.6-4.618,1.166c-0.519-6.593-10.632-6.668-13.812-11.252c8.272-5.859-17.606-20.561-15.071-26.535
		c-6.022-1.989-4.815-4.631-7.034-9.628c-1.653-3.722-5.32-7.622-7.58-11.15c0.027-0.021,0.859-1.143,0.9-1.232
		c1.026,1.372,1.991,1.796,2.613,3.798c1.638-0.029,2.725,1.021,4.437,0.882c1.148,4.066,4.817,6.607,6.946,9.72
		c2.593,3.791,4.329,7.257,7.967,10.664c7.46,6.984,15.217,6.366,23.719,10.317c3.342,1.554,7.582,4.017,11.319,6.015
		c4.895,2.617,6.875,2.493,12.313,2.987c8.737,0.794,22.725,3.733,31.148,1.477c9.436-2.527,18.55-6.344,26.553-12.793
		c3.714-2.993,6.542-7.264,9.615-9.854c4.634-3.907,8.422-5.54,9.303-11.882c4.268,0.336,4.008-4.971,6.568-6.766
		c1.145-0.802,3.86,0.202,5.365-0.671c2.149-1.248,2.004-2.609,3.314-3.998c0.438-0.465,1.434-2.908,2.148-3.852
		c0.63-0.833,2.736-1.385,3.669-2.315c1.959-1.956,3.56-5.373,4.834-7.833c2.89-5.577,5.134-10.884,8.669-16.146
		c1.453-2.163,3.648-5.985,6.162-7.704c2.09-1.43,6.15-0.593,9.101-1.867c-2.07,2.792-4.401,6.095-5.749,9.233
		c-1.438,3.349-1.56,6.654-2.683,10.65c-1.133,4.034-4.222,6.459-2.199,11.167c1.271,2.958,3.573,3.141,4.882,5.301
		c1.48,2.442,0.818,5.202,1.301,6.183c2.972,6.041,13.034,8.005,19.349,13.018c5.275,4.188,16.149,11.132,17.951,17.383
		c3.605,0.193,7.623,4.883,11.068,6.267c4.59,1.844,9.82,2.655,14.016,5.183c4.372,2.634,7.591,5.818,12.765,7.367
		c2.195,0.657,4.391,0.551,6.556,1.445c2.15,0.89,3.792,3.206,5.963,4.035c4.837,1.847,9.296,1.938,14.183,4.485
		c4.538,2.364,8.222,3.384,13.334,4.833c5.344,1.516,10.205,4.638,15.37,5.797c5.244,1.179,10.696,1.87,15.931,3.222
		c5.337,1.378,18.886,6.161,19.932,11.979c-2.134,1.173-11.059,1.964-11.782,4.303c-0.861,2.785,2.833,2.481,3.381,4.518
		c0.642,2.383,0.115,3.942,0.502,6.684c0.742,5.264,2.296,6.647-2.632,10.165c-5.184,3.699-10.224,1.922-15.887,1.168
		c-5.646-0.752-9.723-1.354-8.682,5.466c1.156,7.577,6.725,7.68,4.048,15.334c-2.11,6.031-3.726,6.607-0.863,13.067
		c0.41,0.925,2.685,0.83,3.248,2.102c0.682,1.541-0.326,3.58,0.101,5.18c0.806,3.021-0.428,6.107,3.947,6.315
		c-4.312,3.903-13.628-5.557-19.783-4.808c-6.61,0.804-12.162,6.969-14.697,12.675c-2.689,6.054-3.674,11.403-9.283,16
		c-6.514,5.336-12.938,5.371-20.649,7.437c-4.839,1.296-7.538,2.805-12.218,3.232c-5.06,0.463-8.57,3.275-13.815,5.234
		c-5.403,2.019-9.435,1.919-14.215,6.245c-2.931,2.652-5.465,6.969-9.302,8.537c-10.895,4.453-32.066,0.65-44.466,0.65
		c-14.913,0-32.381,2.185-46.703-0.17c-8.203-1.348-18.609-1.436-26.164-4.646c-5.785-2.458-9.627-8.074-15.987-8.386
		c-4.31-0.211-8.58,2.519-13.479,1.751c-5.516-0.864-10.814-2.145-16.519-2.401c-8.973-0.404-13.856,0.965-21.365,5.367
		c-5.625,3.299-10.045,7.033-16.002,6.63c-5.825-0.394-18.692-2.668-21.979-8.811c-0.49-0.916-1.506-1.761-2.051-2.666
		c1.244-1.19,1.812-3.078,3.297-4.136c-2.907-12.75-34.264,0.418-43.899,0.832c-2.511,0.107-9.017-1.751-11.333-2.686
		c-3.29-1.328-6.81-5.009-9.852-6.828c-0.945-0.565-1.336-2.559-2.78-3.218c-2.078-0.948-5.398,0.937-7.535-0.036
		c-4.968-2.261-6.98-10.605-9.299-15.198c-5.357,2.207-14.289,5.387-19.716,2.016c-1.358,3.944-9.476,1.404-13.5,2.421
		c-4.205,1.063-9.028,4.608-13.352,4.83c-9.404,0.482-2.618-5.031-4.133-9.817c-2.027-6.401-9.874-5.222-15.065-6.283
		c-0.502-4.023,5.534-7.459,4.48-10.563c-0.453-1.336-8.2-4.451-9.88-5.502c-4.16-2.601-8.195-5.915-12.865-7.165
		c-3.187-0.853-6.892-0.477-9.95-1.171c-24.208-5.504,16.869-23.986-5.786-26.947c-2.069-5.261,2.351-10.931,5.232-15.217"/>
	<path class="st0" d="M347.664,665.001c-0.47-3.169-6.114-11.034-7.965-14.701c-2.827-5.598-6.161-9.175-12.799-7.297
		c2.031,1.518,5.456,1.061,7.28,2.815c1.371,1.318,1.962,5.357,2.854,7.146c2.466,4.947,6.871,8.063,9.963,12.704"/>
</g>
</svg>
