<?xml version="1.0" encoding="utf-8"?>
<!-- Generator: Adobe Illustrator 16.0.0, SVG Export Plug-In . SVG Version: 6.00 Build 0)  -->
<!DOCTYPE svg PUBLIC "-//W3C//DTD SVG 1.1//EN" "http://www.w3.org/Graphics/SVG/1.1/DTD/svg11.dtd">
<svg version="1.1" xmlns="http://www.w3.org/2000/svg" xmlns:xlink="http://www.w3.org/1999/xlink" x="0px" y="0px" width="900px"
	 height="900px" viewBox="0 0 900 900" enable-background="new 0 0 900 900" xml:space="preserve">
<g id="Layer_28" display="none">
	<g id="original" display="inline">
		
			<image overflow="visible" enable-background="new    " width="1001" height="720" id="Background_copy_xA0_Image_2_" xlink:href="5A09DCE2E54FC9D9.png"  transform="matrix(1 0 0 1 -2.1816 16.9316)">
		</image>
	</g>
</g>
<g id="Layer_27" display="none">
	<g id="background-shade_2_" display="inline">
		<g id="eVKz2L_1_">
			
				<image overflow="visible" enable-background="new    " width="737" height="561" id="eVKz2L_2_" xlink:href="5A09DCE2E54FC9C1.jpg"  transform="matrix(1.3426 0 0 1.3851 3.5801 1.5996)">
			</image>
		</g>
	</g>
</g>
<g id="houtline_1_">
	<g id="houtline">
		<path fill="none" stroke="#666766" stroke-width="2" stroke-miterlimit="10" d="M480.197,540.937
			c15.35-8.424,29.229-21.067,41.62-37.516c33.628-44.636,47.116-96.45,60.711-149.872c11.779-46.286,12.035-98.221-8.221-143.266
			c-8.247-18.337-20.607-33.838-35.78-47.724c-24.115-22.068-57.053-32.587-89.298-33.897c-23.64-0.96-60.181,2.377-82.239,11.367
			c-23.831,9.728-42.68,27.275-55.328,49.535c-9.939,17.494-21.007,45.954-22.702,66.019c-1.437,17.011-3.378,36.631-2.709,53.94
			c2.312,59.865,15.49,126.063,53.252,174.4c16.446,21.052,28.069,54.723,55.254,63.177
			C426.996,557.124,455.5,554.492,480.197,540.937z"/>
	</g>
</g>
<g id="neck_1_">
	<g id="neck_3_">
		<path fill="none" stroke="#666766" stroke-width="2" stroke-miterlimit="10" d="M319.151,451.932
			c2.295,3.001,2.862,8.632,3.019,12.261c0.227,5.228,1.315,10.066,1.924,15.318c1.44,12.454,0.233,25.054,1.683,37.499
			c2.714,23.325,10.562,45.756,19.009,67.539c7.568,19.515,26.274,31.021,37.317,49.248c9.937,16.401,22.347,29.128,34.698,44.372
			c16.811,20.751,25.515,29.044,44.037,6.006c11.947-14.862,25.145-30.034,33.613-47.062c8.996-18.084,13.924-36.609,18.912-55.638
			c5.445-20.777,14.734-39.514,15.007-62.604c0.101-8.472-2.47-19.524,2.446-26.941"/>
	</g>
</g>
<g id="shoulderL_1_">
	<g id="shoulderL">
		<path fill="none" stroke="#666766" stroke-width="2" stroke-miterlimit="10" d="M43.296,692.006
			c6.216-19.585,25.523-33.021,42.158-39.933c19.453-8.08,32.875-25.712,50.712-37.348c18.808-12.271,40.095-19.33,58.997-32.048
			c16.983-11.426,30.993-25.409,49.625-33.956c27.875-12.786,47.911-47.604,80.695-49.459"/>
	</g>
</g>
<g id="shoulderR_1_">
	<g id="shoulderR_3_">
		<path fill="none" stroke="#666766" stroke-width="2" stroke-miterlimit="10" d="M527.318,500.932
			c1.021,4.007,9.663,4.495,13.194,5.929c5.378,2.184,10.413,5.188,15.296,8.3c9.704,6.183,18.749,13.524,28.912,18.97
			c19.318,10.349,41.103,11.773,60.438,21.685c39.123,20.051,79.943,31.069,116.046,57.093
			c15.406,11.105,32.609,29.748,42.16,46.188c12.867,22.146,13.697,45.862,30.975,67.242"/>
	</g>
</g>
<g id="grid-vert_1_">
	<g id="grid-vert">
		
			<line fill="none" stroke="#666766" stroke-width="2" stroke-miterlimit="10" x1="449.229" y1="128.662" x2="431.409" y2="553.167"/>
	</g>
</g>
<g id="grid-horiz-eye-top_1_">
	<g id="grid-horiz-eye-top_3_">
		<path fill="none" stroke="#666766" stroke-width="2" stroke-miterlimit="10" d="M326.414,297.521
			c12.345,5.585,37.448,1.322,52.498,1.5c19.42,0.229,38.734,1.5,58.497,1.5c39.948,0,82.475-2.264,119.994,7.5"/>
	</g>
</g>
<g id="grid-horiz-eye-bot_1_">
	<g id="grid-horiz-eye-bot">
		<path fill="none" stroke="#666766" stroke-width="2" stroke-miterlimit="10" d="M344.414,321.521
			c-0.76,0.89-3.79-1.114-1.714,1.166c31.416,3.665,64.312,4.866,97.709,4.834c34.934-0.034,70.076,6.49,104.994,3"/>
	</g>
</g>
<g id="grid-nose-hr_1_">
	<g id="grid-nose-hr_3_">
		
			<line fill="none" stroke="#666766" stroke-width="2" stroke-miterlimit="10" x1="399.818" y1="405.932" x2="473.818" y2="405.932"/>
	</g>
</g>
<g id="grid-mouth-hr_1_">
	<g id="grid-mouth-hr">
		<path fill="none" stroke="#666766" stroke-width="2" stroke-miterlimit="10" d="M380.412,455.014c33.75-3.375,69.252,3,104.995,3"
			/>
	</g>
</g>
<g id="linework-left-eye_1_">
	<g id="linework-left-eye_3_">
		<path fill="none" stroke="#000000" stroke-miterlimit="10" d="M326.818,298.932c0.381,0.183,4.423-1.267,6.46-1.425
			c-0.636,0.475-1.703,1.844-2.42,2.325c1.337-0.203,3.021,0.298,4.373,0.187c1.438,2.579,6.278,1.614,8.587,0.138
			c2.653,0.702,7.82-0.766,10.326-1.635c-0.767,0.604-1.355,1.339-2.149,1.934c2.782-0.491,5.481-1.907,8.138-2.558
			c-0.731,3.711,7.652,1.565,8.686,1.022c2.8,0.111,8.746,0.441,12.474,0.438c4.06-0.005,9.104,0.686,12.927,0.648
			c2.744,1.293,5.2,3.131,8.424,3.976c-0.027-0.129-0.693-0.844-0.773-0.95c1.937,0.478,1.256-0.114,2.534,1.326
			c2.51-0.572,4.343,0.322,4.001,3.01c2.17-0.152,4.759,0.359,6.713-1.483c-0.08,0.321-0.455,0.78-0.6,1.074
			c0.824,0.735,1.281,0.684,1.887,1.89c2.348,0.632,3.983,0.004,6.335,0.694c-0.156,0.386-0.258,0.784-0.306,1.195
			c1.793,0.465,3.345-1.103,5.001-1.767c-0.771,0.309-1.798,6.493-2.393,7.54c-1.013,1.784-3.738,4.691-6.139,3.985
			c-0.118,1.729,0.937,3.271,2.337,4.299c-1.475,1.973-1.957,4.401-2.351,6.54c0.284,0.063,0.567,0.129,0.853,0.192
			c-0.57,1.283-1.759,2.511-3.215,3.393c0.83,3.164-1.556,7.021-2.454,9.962c-1.229,4.02-1.649,7.993-4.011,11.545
			c-2.13,3.205-3.229,5.069-3.642,9.093c-0.407,3.978-0.299,8.342-3.128,11.525c-0.316,0.355-4.228,4.958-3.537,4.772
			c-3.896,1.043-4.766,4.569-5.438,7.964c-0.093-3.119,0.355-7.828,1.124-10.226c0.987-3.078,4.247-5.115,3.301-9.073
			c-0.52,0.435-1.354,0.69-1.95,1.273c-0.235-2.293-0.068-4.71,1.46-6.248c-2.625,1.146-3.847,4.552-3.911,7.248
			c-0.132-0.012-2.341-0.383-2.398-0.399c-1.686-1.763-0.243-6.003,0.689-7.411c-0.044-0.276-0.649-0.527-0.739-0.891
			c2.592-2.186,0.384-4.534-0.124-6.536c-0.586,0.325-1.37,0.194-2.089,0.838c-0.599-0.127-1.031-0.503-1.777-0.511
			c-0.449-0.697-0.853-2.206-0.873-2.925c0.725-0.329,1.778-1.308,2.36-1.488c-1.824-0.484-3.625-0.369-5.571-0.227
			c-1.719-0.891-2.658-2.129-3.915-3.362c-0.229-0.676-0.147-1.32-0.4-1.948c1.865,0.001,3.558-0.344,4.873-1.465
			c-1.26-0.479-2.296-1.732-3.384-2.413c2.44-0.141,4.438-2.769,6.398-3.613c-1.278-0.921-1.675-2.005-2.513-3.363
			c0.642-1.247,1.231-2.113,2.854-2.694c0.532-1.139,0.748-2.62,0.508-3.841c-6.126-0.584-11.541-2.084-17.362-3.487
			c-0.167,0.292-0.146,0.571,0.065,0.839c0.202,0.193,0.217,0.185,0.047-0.026c-1.778-0.923-3.172-0.44-3.758,1.525
			c-2.814,0.538-8.25-2.17-8.637,1.627c-0.103,0.014-0.392-0.771-0.652-0.478c-0.18,0.188-0.363,0.372-0.55,0.553
			c1.622,1.034,4.078,1.45,4.51,3.788c0.8,0.228,1.888,0.826,2.375,0.974c-2.424,0.099-4.647-0.467-6.861-0.823
			c-0.416,0.691-0.98,2.614-1.037,3.297c2.823,3.791,5.4,5.471,10.351,5.224c0.001,0.314,0.175,0.714,0.375,0.927
			c-3.938,1.35-12.143-0.187-14.788-2.449c-4.013,3.911-7.269-5.349-10.323-6.423c0.543-0.168,0.958-0.587,1.749-0.714
			c-0.602-3.391-0.529-7.048-1.952-9.301c-1.102-1.745-5.277-4.469-6.933-5.012c2.298,0.37,4.852,0.033,4.883-2.528
			c-1.337-0.128-2.291-0.833-3.726-0.561c-1.856-1.562-2.806-5.999-6.621-5.601c-0.271-0.672-0.561-2.733-0.514-3.34
			c1.106-0.079,1.749-0.886,2.499-1.071c-0.854-1.938-1.84-3.516-3.985-3.589c-0.132-1.99-0.659-2.677-2.538-3.534
			c-0.039-0.938,0.667-0.443,0.962-0.891"/>
	</g>
</g>
<g id="linework-right-eye_1_">
	<g id="linework-right-eye">
		<path fill="none" stroke="#000000" stroke-miterlimit="10" d="M477.485,394.936c1.075-1.354-3.587-6.425-4.61-7.723
			c0.175-2.208-1.521-4.223-0.106-5.861c-1.604-1.8-4.394-1.612-4.672-4.359c-1.584-0.673-2.931-2.02-3.236-3.738
			c1.377-0.931,1.079-2.046-0.323-2.719c0.697-2.934,0.79-5.356,1.231-8.215c-1.44,0.303-2.441-0.143-2.339-1.661
			c-0.307-0.275-0.479,0.124-0.66-0.373c3.396-3.351-0.307-7.517-2.982-10.017c0.491-0.341,0.905-1.328,1.398-1.667
			c-2.101-4.978-5.549-9.158-3.065-14.582c-2.848-0.918-4.6-5.312-3.898-8.352c0.175-0.758,1.56-0.501,1.864-1.135
			c0.397-0.823-0.12-1.867,0.312-2.688c0.915-1.745,2.561-1.492,2.041-4.191c-0.359-0.004-0.71,0.133-0.978,0.158
			c-0.119-0.111,0.206-0.663-0.022-0.83c-1.761-0.265-1.671-1.856-0.316-2.805c-0.644-1.477,0.455-2.793,1.999-2.84
			c-0.829,1.04-0.594,1.733-0.242,2.873c1.101-0.281,1.699,0.066,2.551-0.907c-0.287,1.055-0.478,2.15-0.559,3.249
			c1.35-0.143,2.211-0.409,3.56-0.668c0.315-1.059,0.734-1.913,1.166-2.905c-0.068,0.719,0.605,1.51,1.226,2.322
			c1.247-0.702,2.086-1.973,2.608-3.259c0.121,0.164,0.111,0.333-0.024,0.504c0.345-0.348,1.817-0.883,2.69-1.236
			c1.522,3.004,3.906-2.457,5.606-3.074c-0.197,0.252-0.584,0.432-0.748,0.697c0.086,0.093,0.172,0.185,0.26,0.276
			c2.243-0.75,3.895-2.628,6.214-2.899c-0.116,0.302-0.142,0.792-0.306,1.166c0.953-1.061,2.023-1.555,2.754-0.581
			c2.308-0.186,2.422-2.688,5.229-1.91c0.09,0.313,0.019,0.586,0.099,0.901c2.095,0.256,3.645-1.376,5.193-2.576
			c0.44,0.103,1.214,0.201,1.726,0.324c-0.028,0.354-0.231,0.565-0.27,0.919c1.591-0.062,5.602-2.529,5.353,0.665
			c1.711,0.262,5.204-1.986,4.666,1.334c1.722,0.337,3.376,0.547,4.631-0.81c0.057,0.072,0.12,0.138,0.192,0.193
			c-0.398-0.024-0.732,0.182-1.089,0.292c0.415-0.19,0.678-0.419,1.265-0.625c-0.452,0.13-2.637,0.408-3.688,0.599
			c3.562-1.2,8.518,0.268,11.981,1.316c3.056,0.926,10.102,0.771,11.39,4.04c0.377-0.046,0.556-0.205,0.918-0.258
			c2.484,2.037,4.794,2.069,7.334,3.65c1.244,0.773,5.095,2.911,5.747,4.602c0.156,0.031,0.656-0.146,0.637-0.153
			c-0.493,1.257-1.545,2.314-2.582,3.22c2.348,0.034,3.288,2.892,4.964,4.233c1.463,1.171,5.196,2.693,2.293,4.342
			c3.249,2.195,5.1-2.071,8.567-0.535c-0.104,0.646,0.255,1.583,0.115,2.219c3.042,1.435-2.035,3.957-3.051,4.781
			c-2.198,1.79-1.812,6.185-3.989,7.217c-0.988,0.469-2.746-0.959-3.677-0.631c-1.367,0.483-1.811,1.954-2.608,3.09
			c-1.147,1.629-2.599,4.267-4.991,3.643c-1.151,2.614-5.439,3.562-7.974,3.226c2.091-0.857,5.76-3.384,5.498-5.899
			c-0.376,0.086-0.456,0.238-0.876,0.259c-0.028-0.916-0.513-1.585-0.439-2.575c-0.445-0.074-1.129-0.155-1.567-0.1
			c-0.063-0.231,0.075-0.736-0.099-0.901c-0.767,0.192-1.812-0.094-2.551,0.242c-0.816-0.911-0.04-2.507-0.125-2.624
			c-0.611-0.849-0.755-0.803-1.684-1.594c-1.569-1.34-3.746-0.336-3.644-3.689c-0.704,0.055-1.312-0.433-1.906-0.46
			c0.171-0.35,0.128-1.063,0.313-1.476c-0.481,0.226-1.194,0.331-1.573,0.491c0.716-0.639,0.812-1.668,1.165-2.226
			c-1.341-0.048-2.603,0.485-3.916,0.551c-0.03-0.282,0.279-0.243,0.262-0.524c-3.542-2.379-7.663,1.905-11.21-0.691
			c-2.21,2.661-7.397,0.892-10.084,0.876c-2.479-0.014-8.903-1.154-10.374,1.416c1.176,1.135,4.605,4.15,4.656,5.284
			c-0.309-0.089-0.877-0.197-1.239-0.251c0.617,0.921,0.858,2.491,0.334,3.568c1.066,0.375,2.133,0.724,3.174,1.038
			c-1.12,0.964-2.133,1.516-2.499,2.971c0.638,0.145,1.086,0.598,1.516,0.732c-1.666,0.797-3.362,1.023-4.849,2.382
			c1.301,1.988,0.027,4.359,1.017,6.199c-0.06-0.109,5.645,2.792,1.365,3.476c1.019,0.284,2.102,0.729,2.857,1.185
			c-1.929,0.81-4.449,0.343-6.565,0.466c-1.851,3.797-8.979-3.39-11.983-3.131c-2.485,0.214-4.346,2.285-2.767,4.821
			c1.192,1.916,4.303,2.122,2.49,5.252c1.253,1.151,3.033,2.095,4.509,2.6c-0.888-0.298-4.967-0.896-5.967-0.605
			c-1.626,0.475-4.02,2.731-1.398,3.73c0.082,2.839,0.144,6.38,3.35,7.332c-0.409,0.466-0.525,1.448-0.991,1.942
			c0.741,0.414,0.598,0.911,1.65,1.05c0.044,1.554-0.469,2.915-1.243,4.193c1.251,1.308,0.331,6.548-1.374,6.424"/>
	</g>
</g>
<g id="linework-nose_1_">
	<g id="linework-nose_3_">
		<path fill="none" stroke="#000000" stroke-miterlimit="10" d="M397.818,409.27c0.896,2.571,4.192,3.603,7.25,3.049
			c1.432,1.365,5.126,2.101,6.086,0.283c-0.208-0.053-0.894-0.312-1.2-0.42c-0.651-1.052-0.571-6.336,0.951-7.767
			c2.964-2.784,16.051,4.046,16.034,7.824c-0.014,2.762-4.752,2.671-6.466,4.009c-1.212,0.944-0.354,2.61-2.598,2.746
			c-0.21,1.522,0.798,2.268,1.226,3.561c-1.673,0.317-1.293,1.748-0.674,2.992c-0.68,0.229-0.271,0.252-0.665,0.667
			c-0.264,0.131-0.609,0.065-0.896,0.104c0.051,0.87-0.407,1.406-0.43,2.236c-0.302,0.059-0.607-0.021-0.895,0.097
			c-1.047,3.835-0.496,7.353-4.934,8.309c2.314-1.844,1.107-3.334,1.619-5.281c0.563-2.146,2.732-3.187,1.865-5.691
			c-1.189-0.038-1.846-0.427-2.895-0.765c-0.144-1.146-0.63-1.902-1.124-2.911c-1.231,0.93-2.765,0.966-3.241-0.665
			c-2.565,0.433-3.695,0.889-6.294,0.233c-0.471-1.188-0.259-1.161-1.666-1.334c-0.251-0.252-0.228-0.934-0.448-1.219
			c-0.408-0.085-0.851,0.042-1.241-0.124c1.177-0.409,2.814-0.771,2.583-2.552c-0.317-0.072-0.608-0.002-0.917-0.114
			c2.396-1.855,0.722-3.976-0.366-5.935"/>
		<path fill="none" stroke="#000000" stroke-miterlimit="10" d="M440.151,413.603c0.65-2.636,3.721-3.075,5.758-4.241
			c2.246-1.287,3.92-2.982,5.899-4.51c2.381-1.836,3.854-2.739,6.677-2.582c2.126,0.119,6.026,1.016,5.725,3.941
			c2.412,0.684,1.483,2.314,2.275,4.059c1.229,2.709,0.732,1.434,3.333,2.666c3.242,1.538,3.523,4.832,2.741,8.741
			c-0.688,3.438-0.077,6.633-1.658,9.935c-1.229,2.566-4.222,4.983-4.833,7.606c-3.177-3.053-5.793,2.889-8.325,3.977
			c-2.122,0.912-3.069-0.587-4.935-0.915c-1.855-0.326-3.452,0.28-5.307,1c-4.049,1.572-6.83,3.979-11.424,3.915
			c-2.602-0.036-9.796-1.559-9.202-5.533c0.16-0.238,0.794-1.09,0.999-1.351c3.106,1.16,16.708-2.979,16.001,2.9
			c2.055,1.132,6.985-1.396,6.892-3.56c-1.462,0.118-3.018,0.755-3.998-0.394c1.065-0.688,1.521-1.591,1.016-2.655
			c1.204-0.684,2.727-0.129,3.424-1.608c2.777,0.346,2.5-3.211,0.001-3.116c-0.993-0.984-1.219-2.241-0.433-3.533
			c-1.303-0.974-2.807-1.522-2.684-3.351c-2.224-1.37,6.445-4.681,2.74-8.074c-1.004-0.92-4.254,0.037-5.683-0.65
			c-1.653-0.795-2.71-2.279-3.333-4"/>
	</g>
</g>
<g id="linework-mouth_1_">
	<g id="linework-mouth">
		<path fill="none" stroke="#000000" stroke-miterlimit="10" d="M380.318,458.932c0.675-1.39,8.48-1.57,11-1.94
			c3.051,3.822,16.789,0.28,22.024,1.416c6.632,1.439,13.185,4.526,20.476,4.536c15.346,0.021,29.45-2.811,45.485-1.997
			c2.586,0.132,8.262-1.643,9.563,0.487c-9.508,18.297-31.184,3.535-46.575,6.806c-5.002,1.063-9.379,2.383-14.598,0.817
			c-2.962-0.888-5.464-1.855-8.403-2.6c-4.744-1.198-9.965-3.061-14.931-2.624c-8.231,0.722-17.221,3.284-24.543-2.901"/>
		<path fill="none" stroke="#000000" stroke-miterlimit="10" d="M429.318,490.432c5.085,2.175,11.766-2.352,16.031,1.072
			c-2.683,0.965-5.34,1.12-7.157,3.354c-2.037-1.275-4.492-1.499-6.789-2.011c-0.415-1.783-0.986-0.831-1.585-0.915"/>
		<path fill="none" stroke="#000000" stroke-miterlimit="10" d="M381.318,458.432c-0.536,0.87-1.119,1.842-1.5,2.5"/>
	</g>
</g>
<g id="linework-eyebrow-right_1_">
	<g id="linework-eyebrow-right_3_">
		<path fill="none" stroke="#000000" stroke-miterlimit="10" d="M473.818,287.932c-0.229,0.06-0.388,0.859-0.91,0.948
			c0.715-2.215,0.795-1.107,2.273-1.522c1.76-1.294,1.935-1.62,0.687-3.329c0.88-0.383,2.396-0.815,3.386-0.898
			c-0.075,0.417-0.273,0.773-0.373,1.212c2.299-0.492,6.766-2.028,5.973-4.86c-1.007,0.294-2.527,0.719-3.385,1.335
			c2.358-0.516,7.689-4.529,9.851-6.674c0.655,0.153,1.746,0.046,2.411,0.204c-0.077-0.201,0.217-0.831,0.393-0.942
			c-0.249,0.084-0.496,0.069-0.742-0.045c1.267-2.896,9.85-1.25,12.854-2.864c0.121,0.477,0.049,0.885,0.159,1.363
			c2.236,0.258,5.042,0.602,6.813,0.572c1.839-0.03,4.818-1.526,6.611-0.058c2.96-0.682,10.2,1.214,14.148,2.408
			c0.205,0.062,1.861,1.413,2.352,1.647c1.198,0.572,1.95-0.601,3.387,0.116c2.164,1.081,1.937,4.172,5.028,4.973
			c0.274,0.304,0.05,0.941,0.17,1.329c1.932,0.346,2.774,1.547,2.49,3.51c3.751-0.318,5.062,3.458,9.34,3.15
			c1.143,1.002,2.065,2.293,2.67,3.842c3.319,2.236,3.979,6.466,6.465,9.582c-2.685,1.832-1.925,4.461-1.234,7.125
			c-0.515,0.444-1.012,0.98-1.603,1.365c0.332,0.842,0.162,1.51,0.2,2.425c-0.619,0.298-1.616,0.832-2.244,0.962
			c0.221,0.083,0.441,0.167,0.662,0.25c-5.553,4.303-6.224-4.599-11.228-5.077c0.038,0.444,0.137,1.123,0.172,1.525
			c-1.132-1.988-2.288-4.066-3.362-5.988c-3.927-1.151-5.95,0.479-6.985-4.513c-1.609-0.128-2.243-0.798-3.813-0.134
			c-1.462-3.861-5.042-2.905-8.113-3.051c-2.549-0.12-7.478-2.083-9.375-0.573c-1.881-1.941-4.487-1.223-6.525-0.391
			c-0.879-1.799-2.697-1.868-4.439-0.913c0.245,0.032,1.587,0.113,0.912-0.012c-3.754-0.587-4.932-0.381-8.46,0.44
			c-0.592-1.193-1.109-0.702-1.724-1.882c-2.813,2.877-7.201,1.081-10.899,1.93c-2.96,0.679-9.026,3.369-11.538,1.01
			c0.161-0.528,0.354-0.936,0.485-1.411c-4.306,0.682-2.938-4.743-2.937-7.587"/>
	</g>
</g>
<g id="linework-eyebrow-left_1_">
	<g id="linework-eyebrow-left">
		<path fill="none" stroke="#000000" stroke-miterlimit="10" d="M401.318,293.932c1.104,0.374,1.707,0.967,2.915,1.085
			c1.937,3.907,11.402-1.144,11.012-5.974c-0.153-1.9-3.314-4.986-3.924-7.113c-0.698-2.436,0.447-6.173-3.514-5.186
			c-1.288-3.017-4.688-2.106-5.575-5.226c-3.171,0.612-4.22-2.457-6.913-3.087c-3.002-0.703-4.871,1.456-7.498-1.05
			c-3.389,3.596-6.957-0.317-10.475-0.475c-4.031-0.18-7.82,2.569-11.527,3.513c-4.388,1.115-21.477-0.979-22.574,4.926
			c-6.446,3.802-14.304,2.529-18.05,9.512c-2.093,0.287-5.495,5.608-6.4,7.962c-0.938,2.446-0.234,5.116-1.909,7.037
			c0.626,0.211,1.713,0.177,2.359,0.148c0.091,0.332-0.099,1.153,0.173,1.378c3.6-1.256,7.605-1.775,10.89-1.552
			c3.922,0.267,7.051,1.979,11.022,1.61c8.773-0.812,16.104-6.83,24.513-8.534c13.791-2.796,27.669,2.522,41.477,2.522"/>
	</g>
</g>
<g id="linework-hair-leftbang_1_">
	<g id="linework-hair-leftbang_3_">
		<path fill="none" stroke="#000000" stroke-miterlimit="10" d="M493.818,164.932c0.668-0.31,1.589,0.864,2.675-0.853
			c-2.281,0.427-3.624,2.071-5.522,3.104c0.631,1.922-0.282,3.207-0.104,4.621c-4.337-0.605-10.137-3.659-11.899,0.934
			c0.556,0.137,1.114,0.257,1.679,0.361c-0.312,3.736-1.76,6.935-4.703,9.059c-0.163,0.751,0.874,1.483,0.752,2.596
			c-1.059-0.296-2.498-0.32-3.62-0.671c-2.438,4.729-3.158,9.363-8.109,13.096c-0.209,0.832,0.951,0.681,0.711,1.505
			c-2.959,1.987-3.325,4.359-4.708,6.997c0.374,0.61,1.338,1.533,1.697,2c-3.067,3.614-8.058,5.64-12.591,4.402
			c-1.336,2.22-3.161,2.59-4.502,4.705c-2.15,0.049-7.351,2.636-9.724,2.219c-4.162-0.732-5.198-5.011-9.9-5.345
			c-0.36-0.38-0.334-0.406,0.079-0.079c0.65,1.072,1.112,2.363,1.671,3.346c-1.923,0.686-2.562,1.712-4.753,2.174
			c1.055,4.555-2.116,9.836-1.902,15.829c0.232,6.514,3.31,10.462-2.048,15.872c0.474-3.324-0.241-3.687-1.226-6.966
			c0.035-0.743,0.068-0.743,0.104,0c-2.834,2.76-5.874,5.574-5.15,8.892c-4.617-0.525-12.157-8.276-14.802,0
			c4.477,0.668,3.178,1.243,5.805,4.003c-4.556,0.361-8.186,2.787-7.052,6.948c-3.273,3.681-8.021,4.809-10.9,8.203
			c-4.016,4.732-0.538,8.905-9.777,10.223c0.507,8.008-9.213,9.518-13.923,14.077c-5.43,5.256-7.623,12.414-7.244,20.745
			c0.608,13.382,5.653,32.913-12.833,36.178c-0.471,15.755-28.667,18.228-38.425,16.077c-7.013-1.545-14.258-2.758-18.471-9.528
			c-5.242-8.425,1.478-15.017,0.548-23.549c-3.671-0.115-4.61-0.609-5.845,1.949c1.486-6.566,6.784-5.84,9.793-0.897
			c3.028,4.975-1.619,11.647,2.828,16.871c-0.257,0.051-1.507-1.478-1.646-1.746c0.887,2.861,1.401,3.554,2.922,5.524
			c0.536-0.195-0.851-1.6-0.981-1.528c0.636,1.281,1.409,2.146,2.203,3.255c-0.296-0.306-0.596-0.605-0.9-0.903
			c-0.403-0.385-0.428-0.373-0.075,0.035c0.829,0.284,1.846,0.407,2.708,0.435c0.112,0.554,0.223,1.107,0.331,1.662
			c0.838,0.438,1.747-0.14,2.499,0.167c-0.426,0.003-0.852,0.005-1.278,0.008c1.001,0.278,1.304-0.521,0.781,0.797
			c3.826-0.65,10.554-1.502,14.39-2.688c-0.308,0.554-0.436,1.146-0.384,1.774c0.741-0.33,1.179-1.017,1.829-0.333
			c1.526-1.33,3.602-2.798,4.801-4.105c-0.694,1.442,1.366-1.131,0.519-0.272c-0.663,0.615-1.282,1.279-1.945,1.896
			c0.723-0.373,3.349-2.18,2.929-1.924c-0.479,0.479-0.792,1.05-0.936,1.708c0.485,0.368,0.974,0.332,1.466-0.11
			c0.393-0.414,0.364-0.412-0.087,0.008c-0.719,0.977,0.358-1.156-0.016,0.021c0.15-0.169,3.538-3.594,3.567-3.627
			c-0.198,0.567-0.396,1.137-0.595,1.704c-0.771,0.945,1.116-1.274,1.157-1.154c0.091-0.35-0.854-0.362-0.692-0.375
			c0.534-1.374,0.506-1.688,0.626-3.228c-10.67,3.568-25.97-6.032-32.838,7.555c1.484-11.995,18.139-14.938,27.793-11.798
			c4.754-4.438,2.239-8.695-3.746-5.753c-0.675-1.015-1.5-1.638-2.178-2.926c-2.381,0.284-4.651-0.589-6.877,0.434
			c-1.534-2.043-3.078-5.182-4.119-8.43c-3.947,0.889-4.745,1.136-7.052-2.052c-1.438,2.131-3.533,5.132-4.777,7.874"/>
	</g>
</g>
<g id="linework-hair-rightbang_1_">
	<g id="linework-hair-rightbang">
		<path fill="none" stroke="#000000" stroke-miterlimit="10" d="M493.818,162.932c14.785-1.908,0.839,13.296,1.146,17.623
			c3.034-0.744,5.825-1.727,8.683-2.794c0.293-0.953,0.13-1.79,0.394-2.756c2.2,2.59,3.12,2.76,3.926,6.78
			c1.909,0.115,2.89,1.051,4.679,1.322c1.39,6.772,5.44,15.358,3.923,21.575c-1.419,5.807-12.989,16.029,0.956,18.851
			c-3.697-2.187-4.689-6.355-3.531-10.425c11.724-6.824,11.618,18.565,14.878,23.472c-0.487-2.777,0.76-4.07,1.119-6.475
			c16.229-7.492,12.575,14.042,14.861,20.479c0.565-1.82,0.756-1.489,1.797-2.569c0.749,6.379,6.506,7.411,8.167,12.923
			c1.641,5.442-0.211,13.257,0.727,19.274c0.992,6.369,3.41,11.992-4.723,14.773c-5.8,1.983-13.783-1.473-12.849-7.899
			c1.165-0.392,2.34-0.074,3.546-0.151c-1.399-0.187-3.184-0.171-4.523,0.174c-5.438,9.415,11.398,15.391,17.077,8.974
			c8.479,2.903,4.008,11.034,4.479,17.123c0.512,6.628,6.441,12.835-2.876,17.705c8.147,5.177,2.805,9.196,3.123,16.048
			c0.325,7.016,3.889,9.998,1.27,17.198c-1.849,5.08-5.886,10.23-11,12.023c-4.81,1.685-13.673,0.618-8.645-6.343
			c-14.976,10.581,12.158,8.944,17.395,6.997c1.977,2.593-0.066,5.688,0.933,7.125c1.173,1.684,5.902,3.405,6.368,4.678
			c2.334,6.357-1.793,11.73-2.074,17.52c-0.715,14.711,16.295,16.006,27.804,10.804c9.61-4.347,20.517-21.212,13.724-31.826
			c-3.41-5.328-10.746-7.129-15.023-2.475c-4.72,5.139-0.084,12.647,5.12,7.423c-1.462,0.253-1.945,0.832-3.697,0.697
			c-0.332-1.593,0.067-3.132,0.025-4.672c6.207-4.191,13.018-1.7,14.604,5.049c1.354,5.759-3.896,13.381-7.53,17.804
			c-6.255,7.607-32.062,18.769-32.247,1.975"/>
	</g>
</g>
<g id="linework-hair-left-top_1_">
	<g id="linework-hair-left-top_3_">
		<path fill="none" stroke="#000000" stroke-miterlimit="10" d="M460.818,95.932c-5.161-2.894-11.311-5.345-16.997-3.123
			c-7.229-7.196-11.108-9.972-21.003-11.877c-10.1-1.945-14.067-5.909-19.025-14.626c-1.002,5.143-3.265,10.594-7.949,13.75
			c-5.467-3.526-2.315-13.304-4.222-19.023c-4.524,7.955-13.245,11.491-21.582,13.678c-5.495,1.441-7.722,0.482-12.972,5.497
			c-3.963,3.786-5.189,9.338-10.248,11.826c-3.101-3.08-2.824-9.622-0.349-12.143c-6.479,2.02-7.316,7.469-8.604,13.095
			c-0.96,4.199,1.997,13.319,0.995,15.948c-2.803,7.353-8.513,3.995-15.043,5.003c-5.638,0.871-9.632,3.663-14.226,6.774
			c-11.561,7.829-9.747,13.618-14.532,25.246c-5.052,12.278-25.856,9.196-20.587,2.886c-10.354,9.578,18.226,17.531,24.36,4.968
			c-2.63,10.626-27.333,21.077-25.17,5.274c-4.599,0.126-12.415,4.43-16.623,0.623c-7.137-6.457,1.346-11.523,7.472-11.771
			c-6.122-1.061-13.04,1.494-15.472,7c-3.124,7.072,4.54,10.982,2.016,17.02c-3.921,9.382-9.688-1.783-14.513,0.707
			c-4.667,2.408-3.941,14.227-2.507,18.19c-0.027-1.645,1.549-5.468,1.952-7.746c1.252-0.059,2.402-0.111,3.674-0.023
			c0.307,6.694-3.654,12.752-4.8,19.475c-14.329-1.534-31.858,30.565-34.826,42.37c-5.696,22.658,42.396,26.225,44.826,5.357
			c-5.656,11.691-22.089,11.158-31.803,7.4c-13.637-5.275-12.161-17.61-3.493-29.002c3.314-4.356,8.044-10.598,12-14.003
			c7.473-6.433,9.563-5.36,13.025,2.028c0.841,1.795,0.366,5.64,1.974,8.523c1.117,2.004,4.964,3.124,6.246,5.703
			c2.595,5.224,1.823,14.718-3,18.096c-7.269-1.66-7.153-9.365-6.945-15.746c-3.754,7.869,7.949,15.068,5.742,19.45
			c-4.669,9.271-14.821-5.873-14.793-10.502c-0.375,3.467-0.678,8.556,1.223,11.452c3.43,5.227,7.492,1.262,10.826,4.197
			c7.34,6.465,1.226,17.691-7.922,14.225c6.368,10.063,14.885-4.383,18.751-8.048c-3.013,7.276-3.549,6.963-9.877,9.872
			c-5.438,2.5-10.96,0.294-13.197,7.849c-9.996-2.786-20.078-0.392-23.675-12.674c3.245,0,5.721-0.562,8.518,0.929
			c-2.662-1.706-5.852-2.148-8.42-2.976c-9.069,11.929,13.261,15.822,17.671,21.673c-7.631,0.254-16.953-0.123-17.167,8.474
			c-0.111,4.453,5.08,17.607,7.023,21.974c2.658,5.974,10.297,14.306,1.271,19.554c-8.557,4.976-16.391-5.152-14.872-12.648
			c2.765,0.922,4.398,0.311,6.701,2.693c-2.042-7.93-11.295-6.31-10.849,2.15c0.285,5.396,6.427,10.663,11.246,12.755
			c11.269,4.893,30.906-4.825,21.751-18.751"/>
	</g>
</g>
<g id="linework-hair-bottom-left_1_">
	<g id="linework-hair-bottom-left">
		<path fill="none" stroke="#DF2126" stroke-miterlimit="10" d="M201.818,341.932c-2.723,2.051-19.812,23.536-4.197,16.151
			c2.304,5.262-5.456,14.15-5.025,21.626c0.547,9.479,6.167,8.335,11.198,15.418c5.421,7.633-1.058,16.6-10.776,11.604
			c-6.193-3.184-8.536-14.844-1.351-16.648c-6.671,9.678-1.355,25.235,13.123,18.819c13.614-6.033-2.405-16.775-1.82-26.819
			c6.232-0.223,11.613,10.095,5.952,14.648c1.721-0.702,3.102-0.436,4.945-1.45c-1.823,6.74,2.101,11.643-0.801,17.679
			c-2.986,6.213-10.456,8.954-16.12,6.146c13.703,11.191,17.361-16.087,23.625-20.421c6.237-4.316,14.98,0.9,12.493,8.493
			c-1.943,5.932-12.006,9.655-13.098,1.932c0.573-0.14,1.141-0.295,1.705-0.468c-6.875,4.555-3.727,15.069,3.973,18.464
			c4.975,16.803-22.642,8.168-18.751-1.797c-7.462,13.969,15.051,12.827,19.87,14.575c4.39,1.592,10.365,5.021,3.829,8.821
			c-5.719,3.326-11.551-3.521-15.771-5.873c-1.424,1.122-2.481,2.268-3.103,4.096c1.536,1.093,1.938,2.334,3.922,3.175
			c0.001-0.012,0.178,2.877,0.026,2.685c-4.137,2.179-8.457,1.33-9.067-3.778c-8.279,10.333,7.802,11.442,14.071,5.078
			c-2.334,6.821-8.309,12.289-10.626,19.07c-2.28,6.671-2.23,17.376-2.226,22.917c-0.527-7.719,3.017-24.343,9.751-29.221
			c10.569-7.657,17.862,3.889,14.001,12.831c-2.54,5.884-16.319,18.795-1.801,23.295c9.279,2.876,19.605-11.598,12.949-18.646
			c4.619,4.951-2.049,16.787-8.877,16.62c-9.547-0.232-7.839-16.403,2-15.047c18.434,2.543-13.452,38.52,9.874,37.228
			c-1.342,2.091-6.887,8.437-6.968,10.771c-0.171,4.901,6.609,5.307,4.317,11.271c-7.178,18.678-22.587-11.042-9.377-4.417
			c-11.291-8.669-12.362,21.82,6.405,8.444c6.951-4.954,2.77-8.784,4.703-14.251c2.744-7.759,6.265-9.562,9.02-1.026
			c1.84,5.701-2.011,10.714-3.997,16.004c-2.757,7.345-0.365,11.848-1.948,19.052c-2.833,12.884-12.945,16.762-13.052,31.949"/>
	</g>
</g>
<g id="linework-hair-right-top_1_">
	<g id="linework-hair-right-top_3_">
		<path fill="none" stroke="#DF2126" stroke-miterlimit="10" d="M452.818,105.932c7.618-9.356,14.614-8.558,26-9
			c9.792-0.38,18.293-5.547,27.924-3.774c-3.576,3.706-9.536,1.841-13.021,5.774c4.091,5.279,8.382,2.917,14.12,3
			c5.582,0.08,10.505,1.921,16.123,2.003c0.572-0.961-0.936,0.749-1.297,0.945c3.61,3.554,8.242,0.884,7.006-4.797
			c-0.826-0.231-1.819,0.109-2.558-0.171c6.735,0.248,17.476,19.507,23.477,8.1c0.624,11.246,16.948,5.73,22.146,11.721
			c-4.949,0.393-10.542-1.01-13.766,2.948c4.137,1.04,9.129,1.255,12.69,4.104c-0.471-0.809-1.2-1.935-1.742-2.705
			c14.299,3.687,12.659,22.666,25.745,21.698c1.418-4.566,0.478-8.755-4.546-9.064c4.435-1.577,9.686,3.001,8.801,8.271
			c-0.773,4.616-8.523,5.206-8.899,8.147c-0.942,7.375,7.422,5.031,11.016,7.582c4.282,3.039,4.005,6.378,7.658,9.438
			c-5.503,5.948,3.006,14.916,9.42,10.079c4.85-3.656,0.696-14.524-1.396-18.294c1.252-1.356,2.079-2.282,3.92-2.881
			c-2.271,5.746,1.728,9.442,2.208,14.826c0.903,10.131-2.639,5.701-6.3,11.781c-7.688,12.77,11.598,16.361,18.367,8.618
			c-3.114,4.755-9.739,7.075-6.168,13.45c1.217,2.172,5.203,0.331,7.294,2.203c2.007,1.796,3.389,3.691,4.651,5.824
			c-6.752-4.39-6.863-0.814-11.929,2.121c1.231-0.714-6.735,4.714-5.997,4.003c-2.803,2.696-5.792,2.151-5.794,6.904
			c4.648,0.686,8.855-0.887,11.917-4.479c-1.603,4.605-14.208,27.448,2.674,18.778c1.146,4.139,4.652,6.36,9.155,6.098
			c0.229,1.273-0.72,0.212-1.005,0.196c2.022,2.218,3.622,4.306,5.274,6.404c13.712-0.078,1.288,12.245,1.758,17.176
			c0.749,7.858,13.716,10.874,18.92,7.126c-2.116,4.175-6.604,5.8-10.671,3.973c0.378,7.083,10.174,6.568,10.045,15.653
			c-0.107,7.638-7.073,9.17-13.148,13.045c33.833-11.851-19.057-33.861-12.923-9.975c3.479-0.477,4.77,1.53,6.945,2.151
			c-3.061,1.683-4.012,3.961-4.941,6.853c3.565,0.125,6.287-0.085,8.894-2.502c-7.233,17.721,31.423,9.297,20.685-5.226
			c4.61,12.848-6.805,25.649-20.578,20.971c0.868,10.162,13.442,0.363,14.795-4.749c0.729,1.433,1.695,1.87,2.249,3.502
			c5.331-2.542,10.579-0.483,9.604,6.176c-0.688,4.693-7.654,7.909-10.669,9.824c9.382-3.199,2.78-13.435-5.128-6.849
			c-6.862,5.714-1.005,13.786,6.822,13.174c4.616,5.899,4.12,13.129-2.452,17.452c4.447-4.938,2.268-12.35-4.598-13.4
			c-8.976-1.373-9.072,9.078-0.954,9.945c-0.871,3.468-9.395,6.785-4.619,11.626c4.414,4.478,8.855-2.352,12.573-3.02
			c2.09-0.375,26.31,1.396,17.101-6.798c10.854,3.726-2.894,8.695-5.929,9.969c-6.067,2.544-9.263,6.663-14.921,9.08
			c-5.312,2.27-13.624-2.713-17.299-0.299c-6.292,4.133,1.525,12.294-4.556,15.443c0.475,3.394,0.724,4.94,3.949,6.801
			c-4.261,6.415-15.103,1.112-13.97,12.878c6.456-0.323,13.136-0.13,12.668,7.975c-2.016,0.891-3.377,1.369-5.668,1.025
			c0.407-8.135,15.007-5.239,17.865-11.976c-1.36,7.649-8.469,8.088-14.868,8.274c0.099,1.42-0.486,3.293-0.303,4.696
			c-1.57,0.197-3.125,0.281-4.697,0c0.345-5.712-5.021-5.903-8.929-3.974c-3.707-8.58-9.194-1.006-5.374,4.974
			c-1.044-0.143-1.608-0.485-2.594-0.696c-1.34,1.301-2.587,3.913-3.107,5.598c2.117,2.298,1.68,3.71,2.701,6.1
			c-2.822-0.216-5.66-1.647-7.701-4.1c0.081-0.781,0.575-1.739,0.726-2.571c-2.895,1.17-4.771,0.618-7.123,3.671
			c-4.646-4.888-10.953-1.896-9.599,5c3.381-1.015,4.15,0.502,6.92-2.498c-0.178,3.592,0.354,3.948,0.807,5.868
			c-1.171,0.948-2.744,3.775-3.802,4.607c4.576,0.896,8.247-1.948,11.048-5.452c-2.509,2.702-6.097,3.919-8.119,6.63
			c0.666-0.893-2.854,11.837-3.798,9.195c2.897,8.107,11.834,0.916,13.741,13.853c1.752,11.877-9.572,15.403-5.726,6.171
			c2.712-6.508,18.666-6.909,13.723-15.872c-0.33,4.09-23.485,25.378-8.097,22.498c2.848-15.308-24.83-25.42-26.872-14.872
			c-1.035,5.352,3.669,4.235,4.801,7.246c0.953,2.535,1.506,6.118,1.973,7.526c0.702,2.123-3.985,4.845,1.202,7.299
			c3.931,1.859,7.493-1.151,8.021-4.671c1.884,3.619,0.519,7.51-2.071,10.619c1.979,3.254,4.503,3.413,7.973,1.736
			c0.359-0.384,0.334-0.41-0.078-0.081c-1.465,2.506-19.634,13.781-3.922,14.546c-2.049,2.812-6.459,4.436-6.719,8.654
			c1.218,0.075,2.48,0.164,3.694,0.3c0.96,5.833-7.792,12.893-2.896,16.896c6.659,5.448,18.621-8.479,8.194-8.899
			c-0.511,0.798,0.217,1.852-0.144,2.554c-1.464-10.897,11.694-8.093,10.992,2.295c-0.586,8.658-11.783,9.558-13.049,18.004
			c-1.188,7.939,7.77,17.967,9.053,26c2.887,18.072-2.875,24.938-13,38"/>
	</g>
	<path fill="none" stroke="#DF2126" stroke-miterlimit="10" d="M745.318,437.432c0-0.333,0-0.667,0-1"/>
</g>
<g id="linework-pupils_1_">
	<g id="linework-pupils">
		<path fill="none" stroke="#000000" stroke-miterlimit="10" d="M379.15,318.767c1.875,0.384,3.61-0.4,5.329-1.041
			c1.807-0.674,3.707-1.007,5.384-1.913c0.634-0.342,1.406-1.255,2.116-1.392c0.896-0.173,1.866,0.704,2.875,0.216
			c2.718-1.315-0.287-3.4-0.062-5.011c-1.147-0.088-2.725-0.257-3.17-1.496c-0.8-0.175-1.539-0.253-2.183-0.53
			c-0.569-0.245-0.903-0.655-1.622-0.833c-0.929-0.229-3.572-0.661-4.182,0c0.895,1.149,0.019,3.795-0.114,5.13
			c-0.032,0.322,0.442,0.809,0.262,1.171c-0.186,0.371-1.006,0.155-1.141,0.357c-0.493,0.738,0.15,1.855-1.299,1.701
			c-0.039,0.639-0.013,1.309-0.055,1.944c-1.108,0.333-1.534,2.193-2.638,1.695"/>
		<path fill="none" stroke="#000000" stroke-miterlimit="10" d="M491.816,311.934c-2.555,0.553-4.708-0.57-6.704,1.621
			c-1.326,1.457-3.627,2.814-4.291,4.551c-0.75,1.963-0.106,1.619,1.169,2.32c0.941,0.517,1.499,1.424,2.618,1.716
			c0.554,0.146,1.313-0.05,1.878,0.122c0.542,0.165,0.841,0.704,1.366,0.971c0.514,0.263,1.104,0.254,1.634,0.538
			c0.438,0.235,0.746,0.808,1.164,0.994c1.003,0.452,2.49,0.869,3.504,1.162c1.143,0.33,2.755,0.872,3.512-0.329
			c-0.379-0.551-0.066-1.344-0.383-1.799c-0.593-0.855-1.877-1.063-2.534-2.027c-0.432-0.633-0.7-1.514-1.023-2.207
			C492.552,317.064,492.306,314.628,491.816,311.934"/>
		<path fill="none" stroke="#000000" stroke-miterlimit="10" d="M515.649,323.934c0.181-0.678,1.972-1.484,2.63-2.046
			c0.819-0.699,1.721-1.347,2.337-2.32c0.493-0.777,1.138-1.94,1.492-2.841c0.466-1.182-0.071-2.644,1.42-2.505
			c1.523,0.142,4.222,2.904,3.787,4.545c-0.213,0.807-1.262,1.618-1.999,2.167c-0.389,0.289-0.965,0.449-1.298,0.703
			c-0.521,0.398-0.638,0.839-1.207,1.255c-1.087,0.794-2.366,1.522-3.532,2.339c-1.549,1.085-2.828,0.587-4.438,1.354
			c-0.014-0.985,0.887-1.104,0.641-2.149"/>
	</g>
</g>
<g id="linework-hairlines-left_1_">
	<g id="linework-hairlines-left_3_">
		<path fill="none" stroke="#000000" stroke-miterlimit="10" d="M449.408,165.529c-6.18,9.634-19.865,11.744-29.993,16.166
			c-14.055,6.136-14.898,9.124-21.004,21.333c-5.542,11.083-11.848,17.78-24.042,23.623c-13.109,6.282-14.272,8.429-22.427,18.375
			c-12.5,15.249-49.137,7.527-59.645,27.375c-11.136,21.037,50.867,32.448,22.04,43.121c-14.859,5.502-38.752-16.226-52.791,4.129
			c-7.148,10.364,4.465,14.002,0.145,24.065c-4.743,11.048-21.229,2.894-8.773,18.304c11.147,13.79,39.573,1.841,38.993,28.493
			c-0.226,10.383-10.71,16.078-13.494,25.504c-3.451,11.682,0.559,11.562,6.755,21.146c13.432-8.155,23.206,9.098,19.112,20.888
			c-5.875,16.919-35.12,15.659-31.605-4.273c5.257-1.832,7.536-2.612,11.549,0.904c-13.989,4.023-15.31,21.151,1.689,22.528
			c9.388,0.762,25.38-21.151,30.033,0.27c2.841,13.081-16.246,16.472-18.067,30.034c-0.937,6.963,5.514,12.46,3.146,19.498
			c-2.585,7.686-12.479,9.946-18.111,15"/>
		<path fill="none" stroke="#000000" stroke-miterlimit="10" d="M450.908,141.53c-7.445,2.011-11.263,4.096-17.993,9
			c-4.831,3.52-7.86,12.339-16.5,11.655c-20.051-1.588-9.604-30.99,1.186-16.264c-0.19-11.786-17.64-7.89-21.855,0.408
			c-6.862,13.507,9.679,17.116-4.874,28.571c-9.77,7.691-22.299,3.841-32.993,8.26c-15.013,6.203-6.501,14.582-11.887,25.944
			c-11.536,24.337-45.05,3.199-16.204-16.203c7.146-4.807,29.521-15.338,21.031-27.778c-6.762-9.909-24.053,3.138-30.815,7.534
			c-18.136,11.788-66.062,58.117-49.385,81.248c-0.679-19.646,11.469-39.157,30.036-44.686c3.63,16.483-12.049,14.546-15.938,25.605
			c-3.678,10.458,9.703,14.409-4.727,24.106c-14.342,9.639-15.326,0.228-18.028,19.016c-2.616,18.184-4.153,12.858-21.042,17.999
			c-19.457,5.922-12.06,10.188-7.088,23.993c4.708,13.072-0.671,18.668-4.537,30.421c-3.929,11.945-3.789,18.421,4.502,28.087
			c5.458,6.363,21.515,12.424,24.028,20.999c5.933,20.238-29.217,21.692-22.827,6.604c-1.626,14.757,5.345,26.74,20.916,20.317
			c5.013,4.308,15.003,12.786,6.261,16.904c-0.558,2.622-0.957,4.82-1.756,7.243"/>
		<path fill="none" stroke="#000000" stroke-miterlimit="10" d="M449.408,125.031c-25.848-3.334,9.943,27.022,10.535,34.464
			c0.702,8.839-4.157,19.018-15.069,14.735c-10.556-4.143-7.012-17.06-8.971-25.2c-7.917-32.91-38.998-2.862-56.618-24.338
			c-14.949-18.221,15.055-30.298,29.351-29.403c0.63,0.724,1.045,1.553,1.243,2.487c-35.604-1.045-27.623,48.995,2.031,31.755"/>
		<path fill="none" stroke="#000000" stroke-miterlimit="10" d="M464.408,123.531c-11.515-8.578-23.594-3.469-27.034,7.5
			c-1.832,5.841,3.399,9.223-1.06,15.328c-3.716,5.087-12.667,4.845-18.405,6.004c-11.144,2.253-23.169,3.92-32.622-3.704
			c-6.965-5.619-9.049-21.894-22.91-14.324c-10.903,5.955-2.173,22.206-14.97,26.689c-16.007,5.608-13.522-13.363-13.494-22.571
			c0.11-35.07-39.971,0.638-31.499,15.077"/>
	</g>
</g>
<g id="linework-hairlines-right_1_">
	<g id="linework-hairlines-right">
		<path fill="none" stroke="#000000" stroke-miterlimit="10" d="M452.408,155.029c-10.275,6.927-15.314,34.611,5.623,19.123
			c8.639-6.39,18.047-42.104,34.721-25.499c-2.823,1.137-5.234,3.55-7.189,4.577c12.774,2.55,24.181-11.257,35.921-4.201
			c14.728,8.852-2.402,18.839-3.445,29.63c-1.02,10.544,6.771,26.446,18.332,30.367c16.657,5.649,23.834-14.297,9.417-19.271
			c-1.7,3.588-3.478,5.98-3.043,10.158c-0.398-10.027,7.359-10.828,13.197-2.928c8.963,12.127-4.343,12.807-6.072,18.341
			c-6.03,19.296,14.489,15.814,27.029,23.406c12.711,7.697,23.884,25.063,15.044,39.332c-9.926,16.021-32.225-5.111-19.731-13.278
			c-11.768,3.332-8.053,19.875-1.303,26.731c4.352,4.419,8.451,5.831,14.995,6.005c6.265,0.167,14.567-7.187,15.338-7.194
			c6.388-0.063,18.696,12.077,19.528,22.159c1.023,12.41-10.614,17.457-20.201,23.662c-8.405,5.439-20.408,13.388-15.866,25.536
			c5.657,15.13,20.099,3.456,28.605,10.393c12.966,10.571-3.095,21.184-5.312,28.568c-3.009,10.018,3.73,22.736,17.24,15.811
			c1.559-0.799,3.036-2.131,4.165-3.439"/>
		<path fill="none" stroke="#000000" stroke-miterlimit="10" d="M447.908,143.03c3.489-3.948,10.109-9.199,16.131-10.833
			c10.722-2.909,9.022,1.839,18.332,3.035c16.18,2.077,23.129-9.986,32.808-20.324c-0.541-1.328-3.582-6.538-4.535-7.614
			c-3.772-0.065-7.484-0.846-11.081,0.827c5.475-0.181,21.701-0.99,21.872,7.871c0.156,8.132-5.695,4.446-8.69,9.456
			c-7.291,12.196-4.871,13.657,10.495,10.417c12.115-2.554,15.302-7.185,26.592,1.167c6.359,4.704,16.888,18.557,1.839,21.261
			c0.646,15.114,26.326,11.947,35.434,18.042c17.182,11.499,8.894,41.112-5.7,23.55c-9.459,9.097,0.978,14.576,5.965,20.012
			c4.631,5.049,5.638,0.207,8.994,7.172c1.903,3.95,1.675,8.714,1.278,13.267c-8.482-2.089-24.44-13.226-19.125-23.241
			c-23.056,30.555,38.324,36.28,25.23,15.042c4.206,7.859,4.496,15.956,7.659,23.391c2.937,6.899,11.832,13.938,11.729,22.243
			c-12.36,6.45,13.91,10.302,5.172,22.827c-8.272,11.854-11.896-13.116-9.744-17.952c-1.81,10.751,8.364,40.667,24.147,28.905
			c-5.337,9.898-2.527,31.212-17.611,28.199c1.586,4.223,5.333,7.99,10.108,10.566c-9.203,12.886-22.525,9.048-20.425,25.092
			c1.054,8.046,8.518,9.683,3.819,17.734c-3.955,6.779-13.035,3.47-16.534,5.211c-15.375,7.646-6.11,12.354-10.505,26.66
			c-3.485,11.346-23.701,19.948-20.398,1.697c11.89,3.458,3.526,10.233,2.364,17.433c-1.317,8.161,0.526,17.367-1.126,25.872
			c-5.246,27.003-36.029,7.12-18.226-2.772c-4.903,4.262-9.773,11.33-5.393,17.392c6.429,8.893,15.382-1.017,21.749,0.014
			c16.599,2.684-10.748,25.12,9.368,36.366"/>
		<path fill="none" stroke="#000000" stroke-miterlimit="10" d="M446.408,120.531c-3.504-5.346-5.411-12.419-10.5-16.644
			c-19.601,31.577-40.007-23.208-25.279-26.883c-12.556,1.059-10.771,18.263-6.547,25.861c4.924,8.858,15.907,7.955,19.679,17.362
			c-15.02,2.588-22.342-10.02-27.227-22.04c-9.007,9.752-12.405,26.783-28.127,28.338c-18.558,1.836-30.781-15.952-14.994-28.493"/>
	</g>
</g>
<g id="linework-face-outline_1_">
	<g id="linework-face-outline_3_">
		<path fill="none" stroke="#000000" stroke-miterlimit="10" d="M474.405,544.414c7.852-3.955,15.128-9.188,21.336-15.416
			c6.532-6.555,11.855-14.177,17.961-21.108c5.991-6.802,12.849-12.122,16.519-20.64c6.119-14.201,18.201-26.121,20.623-41.818
			c1.023-6.629,2.116-11.842,4.086-18c1.936-6.051,3.261-12.858,5.75-18.527c2.442-5.563,7.062-10.238,6.139-16.973"/>
		<path fill="none" stroke="#000000" stroke-miterlimit="10" d="M292.318,334.932c4.606,1.624,0.066,11.605,0.5,15.5
			c0.565,5.069,2.259,10.139,3.473,15.027c2.692,10.849,2.083,22.197,4.283,33.028c2.125,10.466,4.467,20.82,6.364,31.398
			c1.886,10.518,6.223,21.022,11.271,30.425c4.812,8.962,9.882,18.189,16.157,26.193c6.6,8.419,13.38,16.573,20.35,24.701
			c6.81,7.941,12.862,17.088,20.325,24.391c6.805,6.659,15.353,11.013,24.191,14.309c18.72,6.982,39.7,9.789,58.981,3.028
			c5.321-1.865,13.951-3.906,17.105-9.001"/>
	</g>
</g>
<g id="linework-neck-outline_1_">
	<path fill="none" stroke="#000000" stroke-miterlimit="10" d="M300.318,505.432c-5.99,2.523-14.369,15.414-18.751,24.249
		c-4.962,10.005-12.836,16.436-20.971,23.977c-11.083,10.274-22.5,13.345-36.059,19.993c-10.577,5.188-21.294,13.403-30.47,20.53
		c-10.098,7.843-21.532,14.817-31.726,21.277c-6.953,4.407-29.397,16.969-29.872,24.829c1.969,0.516,2.598,1.592,3.945,2.145
		c-3.786,4.148-7.303,8.342-10.847,12.249c-3.479,3.835-10.113,7.113-12.125,11.351c12.208-4.062,19.374-10.6,32.748-8.426
		c-0.757,0.851-1.635,3.62-2.968,4.826c7.629,5.038,15.247,11.717,23.044,17.274c10.413,7.422,18.117,5.774,12.18,19.552
		c12.753,2.325,27.705-0.239,38.844,0.202c13.827,0.549,19.896,12.585,33.854,6.1c-0.443,1.339-0.191,3.22-0.726,4.669
		c7.69,0.294,14.332-1.979,21.872-0.769c6.833,1.098,12.845,5.945,19.854,7.143c1.34,3.561,0.443,7.213-1.726,10.626
		c13.561,0.906,22.194,0.557,33.174,7.929c7.277,4.886,20.851,9.302,18.877,20.127c5.579,0.84,16.185,0.612,19.749,4.9
		c-1.065,0.659-2.137,1.489-2.824,2.051c13.428,1.691,27.244,5.338,40.924,6.192c9.567,0.599,30.339-14.214,36.924-4.167
		c-2.125,0.431-2.718,1.464-3.844,2c12.78,1.795,30.61-1.634,42.795,2.342c-1.808,3.704-6.143,5.908-9.501,8.9
		c25.727-6.71,54.088-4.317,80.626-8.29c14.569-2.182,27.76,0.977,42,0.219c8.673-0.462,24.982-12.253,31.881-8.829
		c-0.145,1.014-0.71,1.649-0.785,2.682c12.6,0.104,26.569-7.124,33.93-17.656c8.029-11.491,3.136-27.497,24.82-22.321
		c-1.42-6.38-0.733-36.672,12.003-31.003c1.09-4.851,1.555-9.955,5.956-13.143c3.74-2.709,10.329-0.123,13.489-3.436
		c1.18-1.237,2.599-12.356,2.71-14.29c0.255-4.434,3.925-8.271-3.826-10.175c0.478-6.426,9.045-3.546,13.694-3.003
		c-2.932-6.331-9.137-13.76-10.896-20.803c-2.582-10.347,4.441-14.859,8.92-21.827c-13.435-5.837-26.469-16.15-40.678-19.415
		c-14.068-3.232-29.141-8.089-42.167-14.032c-14.505-6.617-28.514-13.696-42.829-18.972c-12.055-4.441-19.786-13.968-31.472-20.528
		c-14.03-7.877-27.019-7.889-30.751-25.249c-1.77-8.229-1.768-12.344,1.277-19.945c2.601-6.49,7.323-12.544,6.571-19.903
		c-0.998-0.26-1.855,0.007-2.849-0.151l-0.759,1.86c-6.99,6.916-11.17,15.871-15.773,24.412c-1.115,2.069-2.181,4.26-3.517,6.198
		c-1.492,2.165-3.734,3.197-5.863,4.763c-3.903,2.868-7.426,6.217-10.713,9.767c-7.03,7.592-12.921,15.823-20.633,22.782
		c-7.73,6.976-14.83,13.111-24.863,16.555c-10.314,3.54-21.552,4.05-32.149,1.487c0.588-0.095,1.178-0.267,1.771-0.324
		c-4.49,0.409-8.942-0.538-13.29-1.554c-4.125-0.964-8.558-1.5-12.534-2.955c-7.307-2.676-14.437-7.679-21.032-11.8
		c-6.47-4.044-10.894-10.616-16.455-15.761c-2.83-2.617-5.323-5.583-8.236-8.099c-2.515-2.17-5.849-4.332-6.94-7.644
		c-2.739,4.705,3.624,6.531,5.486,9.812c-0.49-0.593-0.98-1.186-1.47-1.778c0.97,1.278,0.97,3.278,1.97,4.278c8,9,17,17,23,28
		c2,4,0,10,4,13c4,2,8,2,11,5c1,1,3,1,4,1c3,1,4,3,5,6c0,0,1,1,2.426,1.371c-1.292,0.094-2.584,0.187-3.878,0.266
		c3.132,1.633,6.464,2.815,9.247,5.049c2.279,1.829,3.62,3.336,6.586,1.569c-0.081,0.622,0.255,1.198,0.21,1.816
		c1.509-0.318,3.024-0.624,4.489-1.113c-0.407,3.618-0.828,7.516-3.183,10.462c2.747-1.515,5.329-3.651,8.549-4.014
		c-1.646-2.289-1.059-7.3,2.662-6.699c-0.762-0.483-1.571-0.893-2.412-1.218c4.038-0.163,8.598,1.147,12.196-1.315
		c-0.585-0.359-1.146-0.756-1.681-1.186c2.18-0.016,4.352-0.224,6.531-0.268c-3.105-2.283,3.845-3.817,5.187-3.918
		c-0.295,0.239-0.584,0.484-0.869,0.735c5.982,3.5,12.765-0.413,19.035-0.566c-0.528,0.042-1.038,0.032-1.566,0.031
		c0.523-0.179,1.035-0.064,1.566-0.031c-0.382,1.447-0.365,4.497,1.904,4.028c-0.977,2.642-2.077,7.187,1.232,8.689
		c-0.228,0.255-0.509,0.415-0.844,0.48c1.858,1.562,4.008,2.809,6.354,3.465c-0.739,2.282-2.015,4.329-3.163,6.419
		c3.667,0.885,7.109-1.634,9.185-4.437c-0.397-0.083-0.794-0.17-1.189-0.261c3.686-2.829,5.46-7.27,7.675-11.2
		c-0.276,0.006-0.552-0.002-0.827-0.021c1.577,0.864,4.577,0.864,6.577,0.864c8,1,10,10,9,17c-1,3-1,5-2,8c-4,9-8,19-8,29
		c-5,4-11,7-13,13c-1,3,2,7,4,10c6,14-3,28-10,40c-2,2-4,4-6,6c-3,2-6,5-10,5c-3,0-7,0-10,0c-2-1-5-1-7-2c-6-3-13-5-18-9
		c-3-3-7-4-9-8c-2-3-5-6-6-10c-1-3-2-7-3-10c-2-3-3-7-6-9c-15-10-25-21-36-35c-4-7-9-12-13-19s-2-16-5-23c-2-3-4-6-6-9c-1-1-2-1-3-2
		c-8-14-5-30-8-45c-4-4-7-10-1-14c-1,0-1,1-2,1c1-1,2-1,3-1c5-6,1-14-6-16c-9-2-17,5-24.437,9.491"/>
</g>
</svg>
